<?xml version="1.0" encoding="utf-8"?>
<!-- Generator: Adobe Illustrator 19.1.0, SVG Export Plug-In . SVG Version: 6.00 Build 0)  -->
<svg version="1.0" id="Layer_1" xmlns="http://www.w3.org/2000/svg" xmlns:xlink="http://www.w3.org/1999/xlink" x="0px" y="0px"
	 viewBox="0 0 728 55" enable-background="new 0 0 728 55" xml:space="preserve">
<g>
	<g>
		<defs>
			<rect id="SVGID_1_" y="3" width="117.4" height="47.6"/>
		</defs>
		<clipPath id="SVGID_2_">
			<use xlink:href="#SVGID_1_"  overflow="visible"/>
		</clipPath>
		<g clip-path="url(#SVGID_2_)">
			<defs>
				<rect id="SVGID_3_" y="3" width="117.4" height="47.6"/>
			</defs>
			<clipPath id="SVGID_4_">
				<use xlink:href="#SVGID_3_"  overflow="visible"/>
			</clipPath>
			<path clip-path="url(#SVGID_4_)" fill="#FF0050" d="M0,34.7c0-1.1,0.9-1.9,1.9-1.9h6.2c2,0,3.6,0.6,4.6,1.6
				c0.8,0.8,1.2,1.8,1.2,3v0c0,2-1.1,3.1-2.3,3.8c2,0.8,3.3,2,3.3,4.3v0c0,3.2-2.6,4.8-6.6,4.8H1.9c-1.1,0-1.9-0.9-1.9-1.9V34.7z
				 M7.3,39.8c1.7,0,2.8-0.6,2.8-1.9v0c0-1.2-0.9-1.8-2.5-1.8H3.8v3.7H7.3z M8.3,46.9c1.7,0,2.7-0.6,2.7-1.9v0
				c0-1.2-0.9-1.9-2.9-1.9H3.8v3.9H8.3z"/>
			<path clip-path="url(#SVGID_4_)" fill="#FF0050" d="M22.2,34.7c0-1.1,0.9-1.9,1.9-1.9h6.1c2.2,0,4,0.6,5.1,1.8c1,1,1.5,2.4,1.5,4
				v0c0,2.8-1.4,4.5-3.5,5.3l2.7,3.3c0.4,0.5,0.6,0.9,0.6,1.5c0,1.1-0.9,1.8-1.8,1.8c-0.9,0-1.5-0.4-1.9-1l-3.8-4.8h-3.1v3.8
				c0,1.1-0.9,1.9-1.9,1.9c-1.1,0-1.9-0.9-1.9-1.9V34.7z M30,41.3c1.9,0,3-1,3-2.5v0c0-1.7-1.2-2.5-3-2.5h-3.8v5H30z"/>
			<path clip-path="url(#SVGID_4_)" fill="#FF0050" d="M44.5,34.5c0-1.1,0.9-1.9,1.9-1.9c1.1,0,1.9,0.9,1.9,1.9v14
				c0,1.1-0.9,1.9-1.9,1.9c-1.1,0-1.9-0.9-1.9-1.9V34.5z"/>
			<path clip-path="url(#SVGID_4_)" fill="#FF0050" d="M56.8,34.7c0-1.1,0.9-1.9,1.9-1.9h4.9c5.5,0,9.3,3.8,9.3,8.7v0
				c0,4.9-3.8,8.8-9.3,8.8h-4.9c-1.1,0-1.9-0.9-1.9-1.9V34.7z M63.6,46.8c3.2,0,5.3-2.1,5.3-5.2v-0.1c0-3.1-2.1-5.3-5.3-5.3h-3v10.6
				H63.6z"/>
			<path clip-path="url(#SVGID_4_)" fill="#FF0050" d="M79.4,41.6L79.4,41.6c0-5,3.9-9.1,9.2-9.1c2.7,0,4.4,0.6,6,1.7
				c0.4,0.3,0.8,0.8,0.8,1.6c0,1.1-0.9,1.9-1.9,1.9c-0.6,0-0.9-0.2-1.2-0.4c-1-0.8-2.2-1.2-3.8-1.2c-2.8,0-5,2.5-5,5.5v0
				c0,3.2,2.2,5.6,5.3,5.6c1.4,0,2.7-0.4,3.6-1.1v-2.5h-2.6c-0.9,0-1.7-0.7-1.7-1.7c0-0.9,0.8-1.7,1.7-1.7h4.4
				c1.1,0,1.9,0.9,1.9,1.9v4.3c0,1.1-0.4,1.9-1.4,2.5c-1.4,0.9-3.5,1.8-6.1,1.8C83.1,50.6,79.4,46.8,79.4,41.6"/>
			<path clip-path="url(#SVGID_4_)" fill="#FF0050" d="M103.9,48.4V34.7c0-1.1,0.9-1.9,1.9-1.9h9.7c1,0,1.7,0.8,1.7,1.7
				c0,1-0.8,1.7-1.7,1.7h-7.8v3.6h6.7c1,0,1.7,0.8,1.7,1.7c0,1-0.8,1.7-1.7,1.7h-6.7v3.7h7.9c1,0,1.7,0.8,1.7,1.7
				c0,1-0.8,1.7-1.7,1.7h-9.8C104.7,50.3,103.9,49.4,103.9,48.4"/>
			<path clip-path="url(#SVGID_4_)" fill="#FF0050" d="M115,22.7C98.7,9.8,79.1,3,58.4,3C37.6,3,18.1,9.8,1.8,22.7
				c-0.9,0.7-1,1.9-0.3,2.8c0.7,0.9,2,1,2.8,0.3c7.7-6.2,16.3-10.9,25.4-14v12.5c0,1.1,0.9,2,2,2c1.1,0,2-0.9,2-2V10.6
				C41,8.4,48.6,7.2,56.4,7v17.3c0,1.1,0.9,2,2,2c1.1,0,2-0.9,2-2V7c7.8,0.2,15.4,1.3,22.7,3.5v13.7c0,1.1,0.9,2,2,2
				c1.1,0,2-0.9,2-2V11.8c9.1,3.2,17.6,7.9,25.4,14c0.4,0.3,0.8,0.4,1.2,0.4c0.6,0,1.2-0.3,1.6-0.8C116,24.7,115.8,23.4,115,22.7"/>
		</g>
	</g>
</g>
<g>
	<rect x="153.9" y="5.6" fill="none" width="472.9" height="56.1"/>
	<path fill="#7596FF" d="M161.4,5.6h1.8l7.1,18.1h-1.7l-2.2-5.5H158l-2.2,5.5h-1.6L161.4,5.6z M166,16.8l-3.7-9.5l-3.7,9.5H166z"/>
	<path fill="#7596FF" d="M172.5,10.7h1.5v2.1c0.7-0.9,1.5-1.5,2.3-1.9c0.8-0.4,1.7-0.6,2.6-0.6c1.5,0,2.6,0.4,3.3,1.2
		c0.7,0.8,1.1,2,1.1,3.5v8.7h-1.5v-8.3c0-1.4-0.2-2.4-0.7-3c-0.5-0.6-1.3-0.9-2.3-0.9c-0.5,0-1,0.1-1.6,0.3s-1.1,0.5-1.5,0.9
		c-0.5,0.4-0.9,0.9-1.1,1.4c-0.3,0.5-0.4,1.1-0.4,1.9v7.7h-1.5V10.7z"/>
	<path fill="#7596FF" d="M200.6,21.9c-0.2,0.3-0.5,0.5-0.8,0.8c-0.3,0.3-0.7,0.5-1,0.7c-0.4,0.2-0.8,0.4-1.3,0.5
		c-0.5,0.1-1,0.2-1.5,0.2c-1.4,0-2.5-0.3-3.3-1c-0.8-0.7-1.2-1.6-1.2-2.9c0-0.9,0.2-1.6,0.6-2.2c0.4-0.6,0.9-1,1.5-1.3
		c0.6-0.3,1.3-0.5,2.1-0.7c0.8-0.1,1.6-0.2,2.4-0.2l2.5-0.1v-0.4c0-1.3-0.2-2.2-0.7-2.8c-0.5-0.6-1.4-0.9-2.7-0.9
		c-0.6,0-1.2,0.1-1.6,0.2c-0.4,0.1-0.8,0.2-1.1,0.4c-0.3,0.2-0.5,0.4-0.7,0.7c-0.2,0.3-0.3,0.6-0.4,0.9l-1.3-0.2
		c0.5-2.1,2.2-3.2,5.1-3.2c0.9,0,1.7,0.1,2.3,0.3c0.6,0.2,1.1,0.5,1.5,1c0.4,0.4,0.7,0.9,0.8,1.5c0.2,0.6,0.3,1.3,0.3,2.1v8.6h-1.5
		V21.9z M200.6,16.8l-2.4,0.1c-1,0-1.8,0.1-2.5,0.3c-0.7,0.1-1.2,0.3-1.6,0.6c-0.4,0.3-0.7,0.6-0.9,1c-0.2,0.4-0.3,0.8-0.3,1.4
		c0,0.8,0.2,1.4,0.7,1.9c0.4,0.5,1.2,0.7,2.4,0.7c0.6,0,1.1-0.1,1.7-0.2s1-0.3,1.4-0.6c0.3-0.2,0.6-0.4,0.8-0.6s0.4-0.4,0.5-0.7
		c0.1-0.2,0.2-0.5,0.3-0.8c0.1-0.3,0.1-0.7,0.1-1.1V16.8z"/>
	<path fill="#7596FF" d="M216.7,19.5c-0.3,1.5-0.8,2.6-1.7,3.4s-2.2,1.2-3.7,1.2c-0.9,0-1.8-0.2-2.5-0.5s-1.4-0.8-1.9-1.4
		c-0.5-0.6-0.9-1.3-1.2-2.2c-0.3-0.8-0.4-1.8-0.4-2.9c0-1.1,0.1-2,0.4-2.9c0.3-0.9,0.7-1.6,1.2-2.2s1.2-1.1,1.9-1.4
		c0.8-0.3,1.6-0.5,2.5-0.5c1.4,0,2.6,0.4,3.4,1.1c0.9,0.7,1.4,1.8,1.7,3.1l-1.4,0.4c-0.1-0.5-0.2-0.9-0.4-1.3
		c-0.2-0.4-0.4-0.8-0.7-1c-0.3-0.3-0.6-0.5-1.1-0.7c-0.4-0.2-0.9-0.3-1.5-0.3c-0.8,0-1.5,0.1-2,0.4s-1,0.7-1.4,1.2
		c-0.4,0.5-0.6,1.1-0.8,1.8c-0.2,0.7-0.3,1.4-0.3,2.3c0,0.8,0.1,1.6,0.3,2.3c0.2,0.7,0.4,1.3,0.8,1.8s0.8,0.9,1.4,1.2
		c0.6,0.3,1.2,0.4,2,0.4c1.3,0,2.2-0.3,2.8-0.9c0.6-0.6,1-1.4,1.2-2.5H216.7z"/>
	<path fill="#7596FF" d="M230.4,19.5c-0.3,1.5-0.8,2.6-1.7,3.4s-2.2,1.2-3.7,1.2c-0.9,0-1.8-0.2-2.5-0.5s-1.4-0.8-1.9-1.4
		c-0.5-0.6-0.9-1.3-1.2-2.2c-0.3-0.8-0.4-1.8-0.4-2.9c0-1.1,0.1-2,0.4-2.9c0.3-0.9,0.7-1.6,1.2-2.2s1.2-1.1,1.9-1.4
		c0.8-0.3,1.6-0.5,2.5-0.5c1.4,0,2.6,0.4,3.4,1.1c0.9,0.7,1.4,1.8,1.7,3.1l-1.4,0.4c-0.1-0.5-0.2-0.9-0.4-1.3
		c-0.2-0.4-0.4-0.8-0.7-1c-0.3-0.3-0.6-0.5-1.1-0.7c-0.4-0.2-0.9-0.3-1.5-0.3c-0.8,0-1.5,0.1-2,0.4s-1,0.7-1.4,1.2
		c-0.4,0.5-0.6,1.1-0.8,1.8c-0.2,0.7-0.3,1.4-0.3,2.3c0,0.8,0.1,1.6,0.3,2.3c0.2,0.7,0.4,1.3,0.8,1.8s0.8,0.9,1.4,1.2
		c0.6,0.3,1.2,0.4,2,0.4c1.3,0,2.2-0.3,2.8-0.9c0.6-0.6,1-1.4,1.2-2.5H230.4z"/>
	<path fill="#7596FF" d="M244.1,20.3c-0.2,1.1-0.7,2.1-1.6,2.8c-0.9,0.7-2.1,1.1-3.8,1.1c-1.9,0-3.3-0.6-4.4-1.8
		c-1-1.2-1.6-2.9-1.6-5c0-1.1,0.1-2.2,0.4-3c0.3-0.9,0.7-1.6,1.2-2.2c0.5-0.6,1.2-1.1,1.9-1.4c0.7-0.3,1.5-0.5,2.4-0.5
		c1,0,1.9,0.2,2.6,0.5c0.7,0.3,1.3,0.8,1.7,1.3c0.4,0.6,0.8,1.2,1,2c0.2,0.8,0.3,1.6,0.3,2.5v0.9h-10c0,0.7,0.1,1.4,0.3,2.1
		c0.2,0.6,0.5,1.2,0.8,1.7c0.4,0.5,0.8,0.9,1.4,1.1c0.6,0.3,1.2,0.4,1.9,0.4c0.7,0,1.2-0.1,1.7-0.2c0.5-0.1,0.8-0.3,1.1-0.5
		c0.3-0.2,0.5-0.5,0.7-0.8c0.2-0.3,0.3-0.7,0.4-1H244.1z M242.8,16.3c0-0.7-0.1-1.4-0.2-2c-0.2-0.6-0.4-1.1-0.7-1.5
		c-0.3-0.4-0.7-0.8-1.3-1c-0.5-0.2-1.1-0.4-1.9-0.4c-1.3,0-2.3,0.4-3,1.2c-0.8,0.8-1.2,2-1.4,3.7H242.8z"/>
	<path fill="#7596FF" d="M248.2,20.1c0.2,1,0.6,1.7,1.3,2.2s1.6,0.6,2.9,0.6c1.3,0,2.2-0.2,2.7-0.7c0.5-0.5,0.8-1.1,0.8-1.8
		c0-0.3,0-0.6-0.1-0.8s-0.2-0.5-0.4-0.7c-0.2-0.2-0.5-0.4-0.8-0.6c-0.4-0.2-0.8-0.3-1.4-0.4l-1.6-0.3c-0.7-0.1-1.3-0.3-1.9-0.4
		c-0.6-0.2-1-0.4-1.4-0.7s-0.7-0.6-0.9-1c-0.2-0.4-0.3-0.9-0.3-1.5c0-0.6,0.1-1.1,0.4-1.6c0.3-0.5,0.6-0.9,1-1.2
		c0.4-0.3,1-0.6,1.6-0.7c0.6-0.2,1.2-0.3,1.9-0.3c0.9,0,1.6,0.1,2.2,0.3c0.6,0.2,1.1,0.4,1.5,0.7s0.7,0.7,0.9,1.1
		c0.2,0.4,0.4,0.8,0.5,1.3l-1.3,0.3c-0.1-0.4-0.3-0.7-0.5-1c-0.2-0.3-0.4-0.5-0.7-0.7c-0.3-0.2-0.6-0.3-1-0.4
		c-0.4-0.1-0.9-0.2-1.5-0.2c-0.7,0-1.2,0.1-1.7,0.2c-0.5,0.1-0.8,0.3-1.1,0.5s-0.5,0.5-0.6,0.8c-0.1,0.3-0.2,0.6-0.2,0.9
		s0,0.6,0.1,0.8c0.1,0.2,0.2,0.5,0.4,0.6c0.2,0.2,0.5,0.3,0.8,0.5c0.4,0.1,0.8,0.3,1.4,0.4l2,0.3c1.4,0.2,2.4,0.6,3.1,1.2
		c0.7,0.6,1,1.5,1,2.7c0,0.5-0.1,1-0.3,1.4c-0.2,0.5-0.5,0.8-0.9,1.2c-0.4,0.3-0.9,0.6-1.6,0.8c-0.6,0.2-1.3,0.3-2.2,0.3
		c-0.8,0-1.5-0.1-2.2-0.2c-0.7-0.2-1.2-0.4-1.7-0.7c-0.5-0.3-0.9-0.7-1.2-1.2c-0.3-0.5-0.5-1.1-0.6-1.9H248.2z"/>
	<path fill="#7596FF" d="M261.2,20.1c0.2,1,0.6,1.7,1.3,2.2s1.6,0.6,2.9,0.6c1.3,0,2.2-0.2,2.7-0.7c0.5-0.5,0.8-1.1,0.8-1.8
		c0-0.3,0-0.6-0.1-0.8s-0.2-0.5-0.4-0.7c-0.2-0.2-0.5-0.4-0.8-0.6c-0.4-0.2-0.8-0.3-1.4-0.4l-1.6-0.3c-0.7-0.1-1.3-0.3-1.9-0.4
		c-0.6-0.2-1-0.4-1.4-0.7s-0.7-0.6-0.9-1c-0.2-0.4-0.3-0.9-0.3-1.5c0-0.6,0.1-1.1,0.4-1.6c0.3-0.5,0.6-0.9,1-1.2
		c0.4-0.3,1-0.6,1.6-0.7c0.6-0.2,1.2-0.3,1.9-0.3c0.9,0,1.6,0.1,2.2,0.3c0.6,0.2,1.1,0.4,1.5,0.7s0.7,0.7,0.9,1.1
		c0.2,0.4,0.4,0.8,0.5,1.3l-1.3,0.3c-0.1-0.4-0.3-0.7-0.5-1c-0.2-0.3-0.4-0.5-0.7-0.7c-0.3-0.2-0.6-0.3-1-0.4
		c-0.4-0.1-0.9-0.2-1.5-0.2c-0.7,0-1.2,0.1-1.7,0.2c-0.5,0.1-0.8,0.3-1.1,0.5s-0.5,0.5-0.6,0.8c-0.1,0.3-0.2,0.6-0.2,0.9
		s0,0.6,0.1,0.8c0.1,0.2,0.2,0.5,0.4,0.6c0.2,0.2,0.5,0.3,0.8,0.5c0.4,0.1,0.8,0.3,1.4,0.4l2,0.3c1.4,0.2,2.4,0.6,3.1,1.2
		c0.7,0.6,1,1.5,1,2.7c0,0.5-0.1,1-0.3,1.4c-0.2,0.5-0.5,0.8-0.9,1.2c-0.4,0.3-0.9,0.6-1.6,0.8c-0.6,0.2-1.3,0.3-2.2,0.3
		c-0.8,0-1.5-0.1-2.2-0.2c-0.7-0.2-1.2-0.4-1.7-0.7c-0.5-0.3-0.9-0.7-1.2-1.2c-0.3-0.5-0.5-1.1-0.6-1.9H261.2z"/>
	<path fill="#7596FF" d="M273.4,5.6h1.7v2.2h-1.7V5.6z M273.5,10.7h1.5v13.1h-1.5V10.7z"/>
	<path fill="#7596FF" d="M278.6,5.6h1.5v7c0.6-0.7,1.2-1.3,2-1.7c0.7-0.4,1.6-0.6,2.6-0.6c0.9,0,1.8,0.2,2.5,0.5
		c0.7,0.3,1.3,0.8,1.8,1.4c0.5,0.6,0.8,1.3,1,2.2s0.3,1.7,0.3,2.7c0,1.1-0.1,2.1-0.4,3c-0.3,0.9-0.7,1.6-1.2,2.2
		c-0.5,0.6-1.1,1.1-1.8,1.4s-1.5,0.5-2.4,0.5c-0.8,0-1.6-0.2-2.3-0.5c-0.7-0.3-1.4-0.9-2-1.7v1.8h-1.5V5.6z M280,17.7
		c0,0.6,0,1.1,0.1,1.5c0.1,0.4,0.2,0.8,0.3,1.2c0.1,0.3,0.3,0.6,0.5,0.9c0.2,0.3,0.5,0.5,0.8,0.7c0.4,0.3,0.8,0.5,1.2,0.7
		c0.4,0.1,0.9,0.2,1.4,0.2c0.6,0,1.2-0.1,1.7-0.3c0.5-0.2,1-0.5,1.4-1c0.4-0.5,0.7-1.1,0.9-1.8s0.3-1.6,0.3-2.7c0-1.1-0.1-2-0.4-2.7
		c-0.2-0.7-0.6-1.3-1-1.7c-0.4-0.4-0.8-0.7-1.3-0.9c-0.5-0.2-1-0.3-1.4-0.3c-0.5,0-1,0.1-1.4,0.2c-0.4,0.1-0.8,0.3-1.3,0.7
		c-0.6,0.4-1.1,1-1.4,1.7c-0.3,0.7-0.5,1.5-0.5,2.5V17.7z"/>
	<path fill="#7596FF" d="M293.5,5.6h1.5v18.1h-1.5V5.6z"/>
	<path fill="#7596FF" d="M309.5,20.3c-0.2,1.1-0.7,2.1-1.6,2.8c-0.9,0.7-2.1,1.1-3.8,1.1c-1.9,0-3.3-0.6-4.4-1.8
		c-1-1.2-1.6-2.9-1.6-5c0-1.1,0.1-2.2,0.4-3c0.3-0.9,0.7-1.6,1.2-2.2c0.5-0.6,1.2-1.1,1.9-1.4c0.7-0.3,1.5-0.5,2.4-0.5
		c1,0,1.9,0.2,2.6,0.5c0.7,0.3,1.3,0.8,1.7,1.3c0.4,0.6,0.8,1.2,1,2c0.2,0.8,0.3,1.6,0.3,2.5v0.9h-10c0,0.7,0.1,1.4,0.3,2.1
		c0.2,0.6,0.5,1.2,0.8,1.7c0.4,0.5,0.8,0.9,1.4,1.1c0.6,0.3,1.2,0.4,1.9,0.4c0.7,0,1.2-0.1,1.7-0.2c0.5-0.1,0.8-0.3,1.1-0.5
		c0.3-0.2,0.5-0.5,0.7-0.8c0.2-0.3,0.3-0.7,0.4-1H309.5z M308.2,16.3c0-0.7-0.1-1.4-0.2-2c-0.2-0.6-0.4-1.1-0.7-1.5
		c-0.3-0.4-0.7-0.8-1.3-1c-0.5-0.2-1.1-0.4-1.9-0.4c-1.3,0-2.3,0.4-3,1.2c-0.8,0.8-1.2,2-1.4,3.7H308.2z"/>
	<path fill="#7596FF" d="M326.7,21.9c-0.2,0.3-0.5,0.5-0.8,0.8c-0.3,0.3-0.7,0.5-1,0.7c-0.4,0.2-0.8,0.4-1.3,0.5
		c-0.5,0.1-1,0.2-1.5,0.2c-1.4,0-2.5-0.3-3.3-1c-0.8-0.7-1.2-1.6-1.2-2.9c0-0.9,0.2-1.6,0.6-2.2c0.4-0.6,0.9-1,1.5-1.3
		c0.6-0.3,1.3-0.5,2.1-0.7c0.8-0.1,1.6-0.2,2.4-0.2l2.5-0.1v-0.4c0-1.3-0.2-2.2-0.7-2.8c-0.5-0.6-1.4-0.9-2.7-0.9
		c-0.6,0-1.2,0.1-1.6,0.2c-0.4,0.1-0.8,0.2-1.1,0.4c-0.3,0.2-0.5,0.4-0.7,0.7c-0.2,0.3-0.3,0.6-0.4,0.9l-1.3-0.2
		c0.5-2.1,2.2-3.2,5.1-3.2c0.9,0,1.7,0.1,2.3,0.3c0.6,0.2,1.1,0.5,1.5,1c0.4,0.4,0.7,0.9,0.8,1.5c0.2,0.6,0.3,1.3,0.3,2.1v8.6h-1.5
		V21.9z M326.7,16.8l-2.4,0.1c-1,0-1.8,0.1-2.5,0.3c-0.7,0.1-1.2,0.3-1.6,0.6c-0.4,0.3-0.7,0.6-0.9,1c-0.2,0.4-0.3,0.8-0.3,1.4
		c0,0.8,0.2,1.4,0.7,1.9c0.4,0.5,1.2,0.7,2.4,0.7c0.6,0,1.1-0.1,1.7-0.2s1-0.3,1.4-0.6c0.3-0.2,0.6-0.4,0.8-0.6s0.4-0.4,0.5-0.7
		c0.1-0.2,0.2-0.5,0.3-0.8c0.1-0.3,0.1-0.7,0.1-1.1V16.8z"/>
	<path fill="#7596FF" d="M331.7,10.7h1.5v2.1c0.7-0.9,1.5-1.5,2.3-1.9c0.8-0.4,1.7-0.6,2.6-0.6c1.5,0,2.6,0.4,3.3,1.2
		c0.7,0.8,1.1,2,1.1,3.5v8.7h-1.5v-8.3c0-1.4-0.2-2.4-0.7-3c-0.5-0.6-1.3-0.9-2.3-0.9c-0.5,0-1,0.1-1.6,0.3s-1.1,0.5-1.5,0.9
		c-0.5,0.4-0.9,0.9-1.1,1.4c-0.3,0.5-0.4,1.1-0.4,1.9v7.7h-1.5V10.7z"/>
	<path fill="#7596FF" d="M355.6,21.8c-0.6,0.7-1.2,1.3-1.9,1.7c-0.7,0.4-1.6,0.6-2.6,0.6c-1,0-1.8-0.2-2.5-0.6
		c-0.7-0.4-1.3-0.9-1.7-1.5c-0.5-0.6-0.8-1.3-1-2.2s-0.3-1.7-0.3-2.6c0-2.2,0.5-4,1.6-5.2c1-1.2,2.5-1.9,4.3-1.9
		c0.7,0,1.4,0.2,2.2,0.5s1.4,0.9,2.1,1.7V5.6h1.5v18.1h-1.5V21.8z M355.7,16.7c0-0.6,0-1.1-0.1-1.5c-0.1-0.4-0.2-0.8-0.3-1.1
		s-0.3-0.6-0.5-0.9s-0.5-0.5-0.8-0.7c-0.4-0.3-0.8-0.5-1.2-0.7c-0.4-0.1-0.8-0.2-1.4-0.2c-0.6,0-1.2,0.1-1.7,0.3
		c-0.5,0.2-1,0.5-1.4,1c-0.4,0.5-0.7,1-0.9,1.8s-0.3,1.6-0.3,2.7c0,1.1,0.1,2,0.4,2.7c0.2,0.7,0.6,1.3,1,1.7
		c0.4,0.4,0.8,0.7,1.3,0.9c0.5,0.2,1,0.3,1.5,0.3c0.5,0,1-0.1,1.4-0.2c0.4-0.1,0.8-0.3,1.3-0.7c0.6-0.4,1-1,1.4-1.7
		c0.3-0.7,0.5-1.5,0.5-2.5V16.7z"/>
	<path fill="#7596FF" d="M367.1,20.1c0.2,1,0.6,1.7,1.3,2.2s1.6,0.6,2.9,0.6c1.3,0,2.2-0.2,2.7-0.7c0.5-0.5,0.8-1.1,0.8-1.8
		c0-0.3,0-0.6-0.1-0.8s-0.2-0.5-0.4-0.7c-0.2-0.2-0.5-0.4-0.8-0.6c-0.4-0.2-0.8-0.3-1.4-0.4l-1.6-0.3c-0.7-0.1-1.3-0.3-1.9-0.4
		c-0.6-0.2-1-0.4-1.4-0.7s-0.7-0.6-0.9-1c-0.2-0.4-0.3-0.9-0.3-1.5c0-0.6,0.1-1.1,0.4-1.6c0.3-0.5,0.6-0.9,1-1.2
		c0.4-0.3,1-0.6,1.6-0.7c0.6-0.2,1.2-0.3,1.9-0.3c0.9,0,1.6,0.1,2.2,0.3c0.6,0.2,1.1,0.4,1.5,0.7s0.7,0.7,0.9,1.1
		c0.2,0.4,0.4,0.8,0.5,1.3l-1.3,0.3c-0.1-0.4-0.3-0.7-0.5-1c-0.2-0.3-0.4-0.5-0.7-0.7c-0.3-0.2-0.6-0.3-1-0.4
		c-0.4-0.1-0.9-0.2-1.5-0.2c-0.7,0-1.2,0.1-1.7,0.2c-0.5,0.1-0.8,0.3-1.1,0.5s-0.5,0.5-0.6,0.8c-0.1,0.3-0.2,0.6-0.2,0.9
		s0,0.6,0.1,0.8c0.1,0.2,0.2,0.5,0.4,0.6c0.2,0.2,0.5,0.3,0.8,0.5c0.4,0.1,0.8,0.3,1.4,0.4l2,0.3c1.4,0.2,2.4,0.6,3.1,1.2
		c0.7,0.6,1,1.5,1,2.7c0,0.5-0.1,1-0.3,1.4c-0.2,0.5-0.5,0.8-0.9,1.2c-0.4,0.3-0.9,0.6-1.6,0.8c-0.6,0.2-1.3,0.3-2.2,0.3
		c-0.8,0-1.5-0.1-2.2-0.2c-0.7-0.2-1.2-0.4-1.7-0.7c-0.5-0.3-0.9-0.7-1.2-1.2c-0.3-0.5-0.5-1.1-0.6-1.9H367.1z"/>
	<path fill="#7596FF" d="M390.4,19.5c-0.3,1.5-0.8,2.6-1.7,3.4c-0.9,0.8-2.2,1.2-3.7,1.2c-0.9,0-1.8-0.2-2.5-0.5
		c-0.7-0.3-1.4-0.8-1.9-1.4c-0.5-0.6-0.9-1.3-1.2-2.2c-0.3-0.8-0.4-1.8-0.4-2.9c0-1.1,0.1-2,0.4-2.9c0.3-0.9,0.7-1.6,1.2-2.2
		s1.2-1.1,1.9-1.4c0.8-0.3,1.6-0.5,2.5-0.5c1.4,0,2.6,0.4,3.4,1.1c0.9,0.7,1.4,1.8,1.7,3.1l-1.4,0.4c-0.1-0.5-0.2-0.9-0.4-1.3
		c-0.2-0.4-0.4-0.8-0.7-1c-0.3-0.3-0.6-0.5-1.1-0.7c-0.4-0.2-0.9-0.3-1.5-0.3c-0.8,0-1.5,0.1-2,0.4c-0.6,0.3-1,0.7-1.4,1.2
		c-0.4,0.5-0.6,1.1-0.8,1.8c-0.2,0.7-0.3,1.4-0.3,2.3c0,0.8,0.1,1.6,0.3,2.3c0.2,0.7,0.4,1.3,0.8,1.8c0.4,0.5,0.8,0.9,1.4,1.2
		c0.6,0.3,1.2,0.4,2,0.4c1.3,0,2.2-0.3,2.8-0.9c0.6-0.6,1-1.4,1.2-2.5H390.4z"/>
	<path fill="#7596FF" d="M401.7,21.9c-0.2,0.3-0.5,0.5-0.8,0.8c-0.3,0.3-0.7,0.5-1,0.7s-0.8,0.4-1.3,0.5c-0.5,0.1-1,0.2-1.5,0.2
		c-1.4,0-2.5-0.3-3.3-1s-1.2-1.6-1.2-2.9c0-0.9,0.2-1.6,0.6-2.2c0.4-0.6,0.9-1,1.5-1.3c0.6-0.3,1.3-0.5,2.1-0.7
		c0.8-0.1,1.6-0.2,2.4-0.2l2.5-0.1v-0.4c0-1.3-0.2-2.2-0.7-2.8c-0.5-0.6-1.4-0.9-2.7-0.9c-0.6,0-1.2,0.1-1.6,0.2
		c-0.4,0.1-0.8,0.2-1.1,0.4c-0.3,0.2-0.5,0.4-0.7,0.7c-0.2,0.3-0.3,0.6-0.4,0.9l-1.3-0.2c0.5-2.1,2.2-3.2,5.1-3.2
		c0.9,0,1.7,0.1,2.3,0.3c0.6,0.2,1.1,0.5,1.5,1c0.4,0.4,0.7,0.9,0.8,1.5c0.2,0.6,0.3,1.3,0.3,2.1v8.6h-1.5V21.9z M401.7,16.8
		l-2.4,0.1c-1,0-1.8,0.1-2.5,0.3c-0.7,0.1-1.2,0.3-1.6,0.6s-0.7,0.6-0.9,1c-0.2,0.4-0.3,0.8-0.3,1.4c0,0.8,0.2,1.4,0.7,1.9
		c0.4,0.5,1.2,0.7,2.4,0.7c0.6,0,1.1-0.1,1.7-0.2s1-0.3,1.4-0.6c0.3-0.2,0.6-0.4,0.8-0.6s0.4-0.4,0.5-0.7c0.1-0.2,0.2-0.5,0.3-0.8
		s0.1-0.7,0.1-1.1V16.8z"/>
	<path fill="#7596FF" d="M406.7,5.6h1.5v18.1h-1.5V5.6z"/>
	<path fill="#7596FF" d="M420.2,21.9c-0.2,0.3-0.5,0.5-0.8,0.8c-0.3,0.3-0.7,0.5-1,0.7s-0.8,0.4-1.3,0.5c-0.5,0.1-1,0.2-1.5,0.2
		c-1.4,0-2.5-0.3-3.3-1s-1.2-1.6-1.2-2.9c0-0.9,0.2-1.6,0.6-2.2c0.4-0.6,0.9-1,1.5-1.3c0.6-0.3,1.3-0.5,2.1-0.7
		c0.8-0.1,1.6-0.2,2.4-0.2l2.5-0.1v-0.4c0-1.3-0.2-2.2-0.7-2.8c-0.5-0.6-1.4-0.9-2.7-0.9c-0.6,0-1.2,0.1-1.6,0.2
		c-0.4,0.1-0.8,0.2-1.1,0.4c-0.3,0.2-0.5,0.4-0.7,0.7c-0.2,0.3-0.3,0.6-0.4,0.9l-1.3-0.2c0.5-2.1,2.2-3.2,5.1-3.2
		c0.9,0,1.7,0.1,2.3,0.3c0.6,0.2,1.1,0.5,1.5,1c0.4,0.4,0.7,0.9,0.8,1.5c0.2,0.6,0.3,1.3,0.3,2.1v8.6h-1.5V21.9z M420.1,16.8
		l-2.4,0.1c-1,0-1.8,0.1-2.5,0.3c-0.7,0.1-1.2,0.3-1.6,0.6s-0.7,0.6-0.9,1c-0.2,0.4-0.3,0.8-0.3,1.4c0,0.8,0.2,1.4,0.7,1.9
		c0.4,0.5,1.2,0.7,2.4,0.7c0.6,0,1.1-0.1,1.7-0.2s1-0.3,1.4-0.6c0.3-0.2,0.6-0.4,0.8-0.6s0.4-0.4,0.5-0.7c0.1-0.2,0.2-0.5,0.3-0.8
		s0.1-0.7,0.1-1.1V16.8z"/>
	<path fill="#7596FF" d="M425.2,5.6h1.5v7c0.6-0.7,1.2-1.3,2-1.7c0.7-0.4,1.6-0.6,2.6-0.6c0.9,0,1.8,0.2,2.5,0.5
		c0.7,0.3,1.3,0.8,1.8,1.4s0.8,1.3,1,2.2c0.2,0.8,0.3,1.7,0.3,2.7c0,1.1-0.1,2.1-0.4,3c-0.3,0.9-0.7,1.6-1.2,2.2
		c-0.5,0.6-1.1,1.1-1.8,1.4c-0.7,0.3-1.5,0.5-2.4,0.5c-0.8,0-1.6-0.2-2.3-0.5c-0.7-0.3-1.4-0.9-2-1.7v1.8h-1.5V5.6z M426.6,17.7
		c0,0.6,0,1.1,0.1,1.5c0.1,0.4,0.2,0.8,0.3,1.2c0.1,0.3,0.3,0.6,0.5,0.9c0.2,0.3,0.5,0.5,0.8,0.7c0.4,0.3,0.8,0.5,1.2,0.7
		c0.4,0.1,0.9,0.2,1.4,0.2c0.6,0,1.2-0.1,1.7-0.3c0.5-0.2,1-0.5,1.4-1c0.4-0.5,0.7-1.1,0.9-1.8s0.3-1.6,0.3-2.7c0-1.1-0.1-2-0.4-2.7
		c-0.2-0.7-0.6-1.3-1-1.7c-0.4-0.4-0.8-0.7-1.3-0.9c-0.5-0.2-1-0.3-1.4-0.3c-0.5,0-1,0.1-1.4,0.2c-0.4,0.1-0.8,0.3-1.3,0.7
		c-0.6,0.4-1.1,1-1.4,1.7c-0.3,0.7-0.5,1.5-0.5,2.5V17.7z"/>
	<path fill="#7596FF" d="M440,5.6h1.5v18.1H440V5.6z"/>
	<path fill="#7596FF" d="M456,20.3c-0.2,1.1-0.7,2.1-1.6,2.8c-0.9,0.7-2.1,1.1-3.8,1.1c-1.9,0-3.3-0.6-4.4-1.8s-1.6-2.9-1.6-5
		c0-1.1,0.1-2.2,0.4-3c0.3-0.9,0.7-1.6,1.2-2.2c0.5-0.6,1.2-1.1,1.9-1.4c0.7-0.3,1.5-0.5,2.4-0.5c1,0,1.9,0.2,2.6,0.5
		c0.7,0.3,1.3,0.8,1.7,1.3c0.4,0.6,0.8,1.2,1,2c0.2,0.8,0.3,1.6,0.3,2.5v0.9h-10c0,0.7,0.1,1.4,0.3,2.1c0.2,0.6,0.5,1.2,0.8,1.7
		c0.4,0.5,0.8,0.9,1.4,1.1c0.6,0.3,1.2,0.4,1.9,0.4c0.7,0,1.2-0.1,1.7-0.2c0.5-0.1,0.8-0.3,1.1-0.5c0.3-0.2,0.5-0.5,0.7-0.8
		c0.2-0.3,0.3-0.7,0.4-1H456z M454.7,16.3c0-0.7-0.1-1.4-0.2-2c-0.2-0.6-0.4-1.1-0.7-1.5c-0.3-0.4-0.7-0.8-1.3-1
		c-0.5-0.2-1.1-0.4-1.9-0.4c-1.3,0-2.3,0.4-3,1.2c-0.8,0.8-1.2,2-1.4,3.7H454.7z"/>
	<path fill="#7596FF" d="M475.9,20.3c-0.2,1.1-0.7,2.1-1.6,2.8c-0.9,0.7-2.1,1.1-3.8,1.1c-1.9,0-3.3-0.6-4.4-1.8s-1.6-2.9-1.6-5
		c0-1.1,0.1-2.2,0.4-3c0.3-0.9,0.7-1.6,1.2-2.2c0.5-0.6,1.2-1.1,1.9-1.4c0.7-0.3,1.5-0.5,2.4-0.5c1,0,1.9,0.2,2.6,0.5
		c0.7,0.3,1.3,0.8,1.7,1.3c0.4,0.6,0.8,1.2,1,2c0.2,0.8,0.3,1.6,0.3,2.5v0.9h-10c0,0.7,0.1,1.4,0.3,2.1c0.2,0.6,0.5,1.2,0.8,1.7
		c0.4,0.5,0.8,0.9,1.4,1.1c0.6,0.3,1.2,0.4,1.9,0.4c0.7,0,1.2-0.1,1.7-0.2c0.5-0.1,0.8-0.3,1.1-0.5c0.3-0.2,0.5-0.5,0.7-0.8
		c0.2-0.3,0.3-0.7,0.4-1H475.9z M474.6,16.3c0-0.7-0.1-1.4-0.2-2c-0.2-0.6-0.4-1.1-0.7-1.5c-0.3-0.4-0.7-0.8-1.3-1
		c-0.5-0.2-1.1-0.4-1.9-0.4c-1.3,0-2.3,0.4-3,1.2c-0.8,0.8-1.2,2-1.4,3.7H474.6z"/>
	<path fill="#7596FF" d="M479.2,10.7h1.5v2.1c0.7-0.9,1.5-1.5,2.3-1.9c0.8-0.4,1.7-0.6,2.6-0.6c1.5,0,2.6,0.4,3.3,1.2
		c0.7,0.8,1.1,2,1.1,3.5v8.7h-1.5v-8.3c0-1.4-0.2-2.4-0.7-3c-0.5-0.6-1.3-0.9-2.3-0.9c-0.5,0-1,0.1-1.6,0.3
		c-0.6,0.2-1.1,0.5-1.5,0.9c-0.5,0.4-0.9,0.9-1.1,1.4c-0.3,0.5-0.4,1.1-0.4,1.9v7.7h-1.5V10.7z"/>
	<path fill="#7596FF" d="M503,21.8c-0.6,0.7-1.2,1.3-1.9,1.7c-0.7,0.4-1.6,0.6-2.6,0.6c-1,0-1.8-0.2-2.5-0.6
		c-0.7-0.4-1.3-0.9-1.7-1.5c-0.5-0.6-0.8-1.3-1-2.2s-0.3-1.7-0.3-2.6c0-2.2,0.5-4,1.6-5.2s2.5-1.9,4.3-1.9c0.7,0,1.4,0.2,2.2,0.5
		c0.7,0.3,1.4,0.9,2.1,1.7V5.6h1.5v18.1H503V21.8z M503.1,16.7c0-0.6,0-1.1-0.1-1.5c-0.1-0.4-0.2-0.8-0.3-1.1
		c-0.1-0.3-0.3-0.6-0.5-0.9c-0.2-0.3-0.5-0.5-0.8-0.7c-0.4-0.3-0.8-0.5-1.2-0.7c-0.4-0.1-0.8-0.2-1.4-0.2c-0.6,0-1.2,0.1-1.7,0.3
		c-0.5,0.2-1,0.5-1.4,1c-0.4,0.5-0.7,1-0.9,1.8c-0.2,0.7-0.3,1.6-0.3,2.7c0,1.1,0.1,2,0.4,2.7c0.2,0.7,0.6,1.3,1,1.7
		c0.4,0.4,0.8,0.7,1.3,0.9c0.5,0.2,1,0.3,1.5,0.3c0.5,0,1-0.1,1.4-0.2c0.4-0.1,0.8-0.3,1.3-0.7c0.6-0.4,1-1,1.4-1.7
		c0.3-0.7,0.5-1.5,0.5-2.5V16.7z"/>
	<path fill="#7596FF" d="M507.5,15.6h7.4v1.5h-7.4V15.6z"/>
	<path fill="#7596FF" d="M518.7,11.9h-2v-1.2h2V7.1h1.5v3.6h3.7v1.2h-3.7v8.5c0,0.6,0.1,1.2,0.4,1.6c0.3,0.4,0.7,0.7,1.4,0.7
		c0.4,0,0.8,0,1.1-0.1c0.3-0.1,0.6-0.1,0.8-0.2l0.3,1.2c-0.3,0.1-0.6,0.2-0.9,0.3c-0.4,0.1-0.8,0.1-1.4,0.1c-0.7,0-1.3-0.1-1.7-0.4
		c-0.4-0.3-0.7-0.6-1-1s-0.3-0.9-0.4-1.4c-0.1-0.5-0.1-1.1-0.1-1.7V11.9z"/>
	<path fill="#7596FF" d="M531.5,24.1c-1,0-1.8-0.2-2.6-0.5s-1.4-0.8-1.9-1.4c-0.5-0.6-0.9-1.3-1.2-2.2c-0.3-0.8-0.4-1.8-0.4-2.8
		c0-1.1,0.1-2,0.4-2.9s0.7-1.6,1.2-2.2s1.2-1.1,1.9-1.4c0.8-0.3,1.6-0.5,2.6-0.5c0.9,0,1.8,0.2,2.6,0.5c0.8,0.3,1.4,0.8,1.9,1.4
		c0.5,0.6,0.9,1.3,1.2,2.2c0.3,0.8,0.4,1.8,0.4,2.8c0,1.1-0.1,2-0.4,2.9s-0.7,1.6-1.2,2.2c-0.5,0.6-1.2,1.1-2,1.4
		C533.3,24,532.5,24.1,531.5,24.1z M531.5,22.9c0.8,0,1.5-0.1,2.1-0.4c0.6-0.3,1-0.7,1.4-1.2c0.4-0.5,0.6-1.1,0.8-1.8
		c0.2-0.7,0.3-1.4,0.3-2.3c0-0.8-0.1-1.5-0.3-2.2c-0.2-0.7-0.4-1.3-0.8-1.8c-0.4-0.5-0.8-0.9-1.4-1.2s-1.3-0.4-2.1-0.4
		c-0.8,0-1.5,0.1-2.1,0.4s-1.1,0.7-1.4,1.2c-0.4,0.5-0.6,1.1-0.8,1.8c-0.2,0.7-0.3,1.4-0.3,2.2c0,0.8,0.1,1.5,0.3,2.2
		c0.2,0.7,0.4,1.3,0.8,1.8c0.4,0.5,0.8,0.9,1.4,1.2C530,22.7,530.7,22.9,531.5,22.9z"/>
	<path fill="#7596FF" d="M540.3,15.6h7.4v1.5h-7.4V15.6z"/>
	<path fill="#7596FF" d="M561.7,20.3c-0.2,1.1-0.7,2.1-1.6,2.8c-0.9,0.7-2.1,1.1-3.8,1.1c-1.9,0-3.3-0.6-4.4-1.8s-1.6-2.9-1.6-5
		c0-1.1,0.1-2.2,0.4-3c0.3-0.9,0.7-1.6,1.2-2.2c0.5-0.6,1.2-1.1,1.9-1.4c0.7-0.3,1.5-0.5,2.4-0.5c1,0,1.9,0.2,2.6,0.5
		c0.7,0.3,1.3,0.8,1.7,1.3c0.4,0.6,0.8,1.2,1,2c0.2,0.8,0.3,1.6,0.3,2.5v0.9h-10c0,0.7,0.1,1.4,0.3,2.1c0.2,0.6,0.5,1.2,0.8,1.7
		c0.4,0.5,0.8,0.9,1.4,1.1c0.6,0.3,1.2,0.4,1.9,0.4c0.7,0,1.2-0.1,1.7-0.2c0.5-0.1,0.8-0.3,1.1-0.5c0.3-0.2,0.5-0.5,0.7-0.8
		c0.2-0.3,0.3-0.7,0.4-1H561.7z M560.4,16.3c0-0.7-0.1-1.4-0.2-2c-0.2-0.6-0.4-1.1-0.7-1.5c-0.3-0.4-0.7-0.8-1.3-1
		c-0.5-0.2-1.1-0.4-1.9-0.4c-1.3,0-2.3,0.4-3,1.2c-0.8,0.8-1.2,2-1.4,3.7H560.4z"/>
	<path fill="#7596FF" d="M565,10.7h1.5v2.1c0.7-0.9,1.5-1.5,2.3-1.9c0.8-0.4,1.7-0.6,2.6-0.6c1.5,0,2.6,0.4,3.3,1.2
		c0.7,0.8,1.1,2,1.1,3.5v8.7h-1.5v-8.3c0-1.4-0.2-2.4-0.7-3c-0.5-0.6-1.3-0.9-2.3-0.9c-0.5,0-1,0.1-1.6,0.3
		c-0.6,0.2-1.1,0.5-1.5,0.9c-0.5,0.4-0.9,0.9-1.1,1.4c-0.3,0.5-0.4,1.1-0.4,1.9v7.7H565V10.7z"/>
	<path fill="#7596FF" d="M588.8,21.8c-0.6,0.7-1.2,1.3-1.9,1.7c-0.7,0.4-1.6,0.6-2.6,0.6c-1,0-1.8-0.2-2.5-0.6
		c-0.7-0.4-1.3-0.9-1.7-1.5c-0.5-0.6-0.8-1.3-1-2.2s-0.3-1.7-0.3-2.6c0-2.2,0.5-4,1.6-5.2s2.5-1.9,4.3-1.9c0.7,0,1.4,0.2,2.2,0.5
		c0.7,0.3,1.4,0.9,2.1,1.7V5.6h1.5v18.1h-1.5V21.8z M588.9,16.7c0-0.6,0-1.1-0.1-1.5c-0.1-0.4-0.2-0.8-0.3-1.1
		c-0.1-0.3-0.3-0.6-0.5-0.9c-0.2-0.3-0.5-0.5-0.8-0.7c-0.4-0.3-0.8-0.5-1.2-0.7c-0.4-0.1-0.8-0.2-1.4-0.2c-0.6,0-1.2,0.1-1.7,0.3
		c-0.5,0.2-1,0.5-1.4,1c-0.4,0.5-0.7,1-0.9,1.8c-0.2,0.7-0.3,1.6-0.3,2.7c0,1.1,0.1,2,0.4,2.7c0.2,0.7,0.6,1.3,1,1.7
		c0.4,0.4,0.8,0.7,1.3,0.9c0.5,0.2,1,0.3,1.5,0.3c0.5,0,1-0.1,1.4-0.2c0.4-0.1,0.8-0.3,1.3-0.7c0.6-0.4,1-1,1.4-1.7
		c0.3-0.7,0.5-1.5,0.5-2.5V16.7z"/>
	<path fill="#7596FF" d="M154.2,36.7h1.6l3,11.4l3.3-11.3h1.7l3.2,11.3l3-11.4h1.6l-3.8,13.1h-1.7l-3.3-11.4l-3.3,11.4h-1.7
		L154.2,36.7z"/>
	<path fill="#7596FF" d="M184.6,46.3c-0.2,1.1-0.7,2.1-1.6,2.8c-0.9,0.7-2.1,1.1-3.8,1.1c-1.9,0-3.3-0.6-4.4-1.8
		c-1-1.2-1.6-2.9-1.6-5c0-1.1,0.1-2.2,0.4-3c0.3-0.9,0.7-1.6,1.2-2.2c0.5-0.6,1.2-1.1,1.9-1.4c0.7-0.3,1.5-0.5,2.4-0.5
		c1,0,1.9,0.2,2.6,0.5c0.7,0.3,1.3,0.8,1.7,1.3c0.4,0.6,0.8,1.2,1,2c0.2,0.8,0.3,1.6,0.3,2.5v0.9h-10c0,0.7,0.1,1.4,0.3,2.1
		s0.5,1.2,0.8,1.7c0.4,0.5,0.8,0.9,1.4,1.1s1.2,0.4,1.9,0.4c0.7,0,1.2-0.1,1.7-0.2c0.5-0.1,0.8-0.3,1.1-0.5c0.3-0.2,0.5-0.5,0.7-0.8
		c0.2-0.3,0.3-0.7,0.4-1H184.6z M183.3,42.3c0-0.7-0.1-1.4-0.2-2c-0.2-0.6-0.4-1.1-0.7-1.5c-0.3-0.4-0.7-0.8-1.3-1
		c-0.5-0.2-1.1-0.4-1.9-0.4c-1.3,0-2.3,0.4-3,1.2c-0.8,0.8-1.2,2-1.4,3.7H183.3z"/>
	<path fill="#7596FF" d="M187.9,31.6h1.5v7c0.6-0.7,1.2-1.3,2-1.7c0.7-0.4,1.6-0.6,2.6-0.6c0.9,0,1.8,0.2,2.5,0.5
		c0.7,0.3,1.3,0.8,1.8,1.4c0.5,0.6,0.8,1.3,1,2.2c0.2,0.8,0.3,1.7,0.3,2.7c0,1.1-0.1,2.1-0.4,3c-0.3,0.9-0.7,1.6-1.2,2.2
		c-0.5,0.6-1.1,1.1-1.8,1.4c-0.7,0.3-1.5,0.5-2.4,0.5c-0.8,0-1.6-0.2-2.3-0.5c-0.7-0.3-1.4-0.9-2-1.7v1.8h-1.5V31.6z M189.4,43.7
		c0,0.6,0,1.1,0.1,1.5c0.1,0.4,0.2,0.8,0.3,1.2c0.1,0.3,0.3,0.6,0.5,0.9c0.2,0.3,0.5,0.5,0.8,0.7c0.4,0.3,0.8,0.5,1.2,0.7
		c0.4,0.1,0.9,0.2,1.4,0.2c0.6,0,1.2-0.1,1.7-0.3c0.5-0.2,1-0.5,1.4-1c0.4-0.5,0.7-1.1,0.9-1.8c0.2-0.7,0.3-1.6,0.3-2.7
		c0-1.1-0.1-2-0.4-2.7c-0.2-0.7-0.6-1.3-1-1.7c-0.4-0.4-0.8-0.7-1.3-0.9c-0.5-0.2-1-0.3-1.4-0.3c-0.5,0-1,0.1-1.4,0.2
		c-0.4,0.1-0.8,0.3-1.3,0.7c-0.6,0.4-1.1,1-1.4,1.7c-0.3,0.7-0.5,1.5-0.5,2.5V43.7z"/>
	<path fill="#7596FF" d="M216.7,47.9c-0.2,0.3-0.5,0.5-0.8,0.8s-0.7,0.5-1,0.7c-0.4,0.2-0.8,0.4-1.3,0.5s-1,0.2-1.5,0.2
		c-1.4,0-2.5-0.3-3.3-1c-0.8-0.7-1.2-1.6-1.2-2.9c0-0.9,0.2-1.6,0.6-2.2c0.4-0.6,0.9-1,1.5-1.3c0.6-0.3,1.3-0.5,2.1-0.7
		c0.8-0.1,1.6-0.2,2.4-0.2l2.5-0.1v-0.4c0-1.3-0.2-2.2-0.7-2.8c-0.5-0.6-1.4-0.9-2.7-0.9c-0.6,0-1.2,0.1-1.6,0.2
		c-0.4,0.1-0.8,0.2-1.1,0.4c-0.3,0.2-0.5,0.4-0.7,0.7c-0.2,0.3-0.3,0.6-0.4,0.9l-1.3-0.2c0.5-2.1,2.2-3.2,5.1-3.2
		c0.9,0,1.7,0.1,2.3,0.3c0.6,0.2,1.1,0.5,1.5,1c0.4,0.4,0.7,0.9,0.8,1.5c0.2,0.6,0.3,1.3,0.3,2.1v8.6h-1.5V47.9z M216.7,42.8
		l-2.4,0.1c-1,0-1.8,0.1-2.5,0.3c-0.7,0.1-1.2,0.3-1.6,0.6c-0.4,0.3-0.7,0.6-0.9,1c-0.2,0.4-0.3,0.8-0.3,1.4c0,0.8,0.2,1.4,0.7,1.9
		s1.2,0.7,2.4,0.7c0.6,0,1.1-0.1,1.7-0.2s1-0.3,1.4-0.6c0.3-0.2,0.6-0.4,0.8-0.6s0.4-0.4,0.5-0.7c0.1-0.2,0.2-0.5,0.3-0.8
		c0.1-0.3,0.1-0.7,0.1-1.1V42.8z"/>
	<path fill="#7596FF" d="M221.7,36.7h1.5v2c0.6-0.7,1.2-1.3,2-1.7c0.7-0.4,1.6-0.6,2.6-0.6c1,0,1.8,0.2,2.5,0.5
		c0.7,0.3,1.3,0.8,1.7,1.4c0.5,0.6,0.8,1.3,1,2.2c0.2,0.8,0.3,1.7,0.3,2.7c0,1.1-0.1,2.1-0.4,3c-0.3,0.9-0.7,1.6-1.2,2.2
		c-0.5,0.6-1.1,1.1-1.8,1.4c-0.7,0.3-1.5,0.5-2.4,0.5c-0.8,0-1.6-0.2-2.3-0.5c-0.7-0.3-1.4-0.9-2-1.7v6.7h-1.5V36.7z M223.1,43.7
		c0,0.6,0,1.1,0.1,1.5c0.1,0.4,0.2,0.8,0.3,1.2c0.1,0.3,0.3,0.6,0.5,0.9c0.2,0.3,0.5,0.5,0.8,0.7c0.4,0.3,0.8,0.5,1.2,0.7
		c0.4,0.1,0.9,0.2,1.4,0.2c0.6,0,1.2-0.1,1.7-0.3c0.5-0.2,1-0.5,1.4-1c0.4-0.5,0.7-1.1,0.9-1.8c0.2-0.7,0.3-1.6,0.3-2.7
		c0-1.1-0.1-2-0.4-2.7c-0.2-0.7-0.6-1.3-1-1.7c-0.4-0.4-0.8-0.7-1.3-0.9c-0.5-0.2-1-0.3-1.4-0.3c-0.5,0-1,0.1-1.4,0.2
		c-0.4,0.1-0.8,0.3-1.3,0.7c-0.6,0.4-1.1,1-1.4,1.7c-0.3,0.7-0.5,1.5-0.5,2.5V43.7z"/>
	<path fill="#7596FF" d="M236.5,36.7h1.5v2c0.6-0.7,1.2-1.3,2-1.7c0.7-0.4,1.6-0.6,2.6-0.6c1,0,1.8,0.2,2.5,0.5
		c0.7,0.3,1.3,0.8,1.7,1.4c0.5,0.6,0.8,1.3,1,2.2c0.2,0.8,0.3,1.7,0.3,2.7c0,1.1-0.1,2.1-0.4,3c-0.3,0.9-0.7,1.6-1.2,2.2
		c-0.5,0.6-1.1,1.1-1.8,1.4c-0.7,0.3-1.5,0.5-2.4,0.5c-0.8,0-1.6-0.2-2.3-0.5c-0.7-0.3-1.4-0.9-2-1.7v6.7h-1.5V36.7z M237.9,43.7
		c0,0.6,0,1.1,0.1,1.5c0.1,0.4,0.2,0.8,0.3,1.2c0.1,0.3,0.3,0.6,0.5,0.9c0.2,0.3,0.5,0.5,0.8,0.7c0.4,0.3,0.8,0.5,1.2,0.7
		c0.4,0.1,0.9,0.2,1.4,0.2c0.6,0,1.2-0.1,1.7-0.3c0.5-0.2,1-0.5,1.4-1c0.4-0.5,0.7-1.1,0.9-1.8c0.2-0.7,0.3-1.6,0.3-2.7
		c0-1.1-0.1-2-0.4-2.7c-0.2-0.7-0.6-1.3-1-1.7c-0.4-0.4-0.8-0.7-1.3-0.9c-0.5-0.2-1-0.3-1.4-0.3c-0.5,0-1,0.1-1.4,0.2
		c-0.4,0.1-0.8,0.3-1.3,0.7c-0.6,0.4-1.1,1-1.4,1.7c-0.3,0.7-0.5,1.5-0.5,2.5V43.7z"/>
	<path fill="#7596FF" d="M257.7,37.9h-2v-1.2h2v-1.5c0-0.6,0.1-1.2,0.3-1.7c0.2-0.5,0.5-0.9,0.8-1.2s0.7-0.5,1.2-0.7
		c0.4-0.2,0.9-0.2,1.4-0.2c0.4,0,0.7,0,1,0.1c0.3,0,0.6,0.1,1,0.2l-0.3,1.2c-0.3-0.1-0.5-0.1-0.7-0.2c-0.2,0-0.5-0.1-0.7-0.1
		c-0.7,0-1.2,0.2-1.7,0.5c-0.4,0.3-0.7,1-0.7,1.9v1.6h3.5v1.2h-3.5v11.8h-1.5V37.9z"/>
	<path fill="#7596FF" d="M264.8,36.7h1.5v2.1c0.5-0.7,1.1-1.3,1.8-1.7c0.7-0.4,1.4-0.6,2.2-0.6c0.2,0,0.4,0,0.5,0
		c0.2,0,0.3,0,0.5,0.1l-0.2,1.4c-0.3-0.1-0.6-0.1-0.8-0.1c-0.4,0-0.9,0.1-1.3,0.2c-0.5,0.2-0.9,0.4-1.3,0.8c-0.4,0.3-0.7,0.7-1,1.2
		c-0.3,0.5-0.4,1.1-0.4,1.7v7.9h-1.5V36.7z"/>
	<path fill="#7596FF" d="M281.4,47.9c-0.2,0.3-0.5,0.5-0.8,0.8s-0.7,0.5-1,0.7c-0.4,0.2-0.8,0.4-1.3,0.5s-1,0.2-1.5,0.2
		c-1.4,0-2.5-0.3-3.3-1c-0.8-0.7-1.2-1.6-1.2-2.9c0-0.9,0.2-1.6,0.6-2.2c0.4-0.6,0.9-1,1.5-1.3c0.6-0.3,1.3-0.5,2.1-0.7
		c0.8-0.1,1.6-0.2,2.4-0.2l2.5-0.1v-0.4c0-1.3-0.2-2.2-0.7-2.8c-0.5-0.6-1.4-0.9-2.7-0.9c-0.6,0-1.2,0.1-1.6,0.2
		c-0.4,0.1-0.8,0.2-1.1,0.4c-0.3,0.2-0.5,0.4-0.7,0.7c-0.2,0.3-0.3,0.6-0.4,0.9l-1.3-0.2c0.5-2.1,2.2-3.2,5.1-3.2
		c0.9,0,1.7,0.1,2.3,0.3c0.6,0.2,1.1,0.5,1.5,1c0.4,0.4,0.7,0.9,0.8,1.5c0.2,0.6,0.3,1.3,0.3,2.1v8.6h-1.5V47.9z M281.3,42.8
		l-2.4,0.1c-1,0-1.8,0.1-2.5,0.3c-0.7,0.1-1.2,0.3-1.6,0.6c-0.4,0.3-0.7,0.6-0.9,1c-0.2,0.4-0.3,0.8-0.3,1.4c0,0.8,0.2,1.4,0.7,1.9
		s1.2,0.7,2.4,0.7c0.6,0,1.1-0.1,1.7-0.2s1-0.3,1.4-0.6c0.3-0.2,0.6-0.4,0.8-0.6s0.4-0.4,0.5-0.7c0.1-0.2,0.2-0.5,0.3-0.8
		c0.1-0.3,0.1-0.7,0.1-1.1V42.8z"/>
	<path fill="#7596FF" d="M286.4,36.7h1.5v2.2c0.6-0.9,1.3-1.5,2.1-1.9c0.7-0.4,1.5-0.6,2.2-0.6c1,0,1.8,0.2,2.4,0.7s1,1.1,1.3,1.9
		c0.6-0.8,1.3-1.4,2.1-1.9s1.6-0.7,2.6-0.7c1.3,0,2.2,0.3,2.9,1c0.7,0.7,1.1,1.8,1.1,3.2v9.2H303v-8.7c0-0.7-0.1-1.2-0.2-1.7
		c-0.1-0.4-0.3-0.8-0.5-1.1c-0.2-0.3-0.5-0.5-0.8-0.6c-0.3-0.1-0.7-0.2-1.2-0.2c-0.4,0-0.8,0.1-1.3,0.2c-0.5,0.1-1,0.4-1.4,0.8
		c-0.4,0.3-0.7,0.7-1,1.2c-0.3,0.5-0.4,1-0.4,1.6v8.4h-1.5v-8.6c0-1.3-0.2-2.2-0.7-2.7s-1.1-0.8-2-0.8c-0.5,0-1,0.1-1.4,0.3
		s-0.9,0.5-1.3,0.9c-0.2,0.1-0.3,0.3-0.5,0.5c-0.2,0.2-0.3,0.4-0.5,0.7c-0.1,0.3-0.2,0.5-0.3,0.9c-0.1,0.3-0.1,0.7-0.1,1.2v7.7h-1.5
		V36.7z"/>
	<path fill="#7596FF" d="M318.9,46.3c-0.2,1.1-0.7,2.1-1.6,2.8c-0.9,0.7-2.1,1.1-3.8,1.1c-1.9,0-3.3-0.6-4.4-1.8
		c-1-1.2-1.6-2.9-1.6-5c0-1.1,0.1-2.2,0.4-3c0.3-0.9,0.7-1.6,1.2-2.2c0.5-0.6,1.2-1.1,1.9-1.4c0.7-0.3,1.5-0.5,2.4-0.5
		c1,0,1.9,0.2,2.6,0.5c0.7,0.3,1.3,0.8,1.7,1.3c0.4,0.6,0.8,1.2,1,2c0.2,0.8,0.3,1.6,0.3,2.5v0.9h-10c0,0.7,0.1,1.4,0.3,2.1
		s0.5,1.2,0.8,1.7c0.4,0.5,0.8,0.9,1.4,1.1s1.2,0.4,1.9,0.4c0.7,0,1.2-0.1,1.7-0.2c0.5-0.1,0.8-0.3,1.1-0.5c0.3-0.2,0.5-0.5,0.7-0.8
		c0.2-0.3,0.3-0.7,0.4-1H318.9z M317.6,42.3c0-0.7-0.1-1.4-0.2-2c-0.2-0.6-0.4-1.1-0.7-1.5c-0.3-0.4-0.7-0.8-1.3-1
		c-0.5-0.2-1.1-0.4-1.9-0.4c-1.3,0-2.3,0.4-3,1.2c-0.8,0.8-1.2,2-1.4,3.7H317.6z"/>
	<path fill="#7596FF" d="M320.6,36.7h1.6l3,11.4l3.3-11.3h1.7l3.2,11.3l3-11.4h1.6l-3.8,13.1h-1.7l-3.3-11.4l-3.3,11.4h-1.7
		L320.6,36.7z"/>
	<path fill="#7596FF" d="M345.9,50.1c-1,0-1.8-0.2-2.6-0.5c-0.8-0.3-1.4-0.8-1.9-1.4c-0.5-0.6-0.9-1.3-1.2-2.2s-0.4-1.8-0.4-2.8
		c0-1.1,0.1-2,0.4-2.9c0.3-0.9,0.7-1.6,1.2-2.2s1.2-1.1,1.9-1.4c0.8-0.3,1.6-0.5,2.6-0.5c0.9,0,1.8,0.2,2.6,0.5
		c0.8,0.3,1.4,0.8,1.9,1.4c0.5,0.6,0.9,1.3,1.2,2.2c0.3,0.8,0.4,1.8,0.4,2.8c0,1.1-0.1,2-0.4,2.9c-0.3,0.9-0.7,1.6-1.2,2.2
		c-0.5,0.6-1.2,1.1-2,1.4C347.7,50,346.8,50.1,345.9,50.1z M345.9,48.9c0.8,0,1.5-0.1,2.1-0.4c0.6-0.3,1-0.7,1.4-1.2
		c0.4-0.5,0.6-1.1,0.8-1.8c0.2-0.7,0.3-1.4,0.3-2.3c0-0.8-0.1-1.5-0.3-2.2s-0.4-1.3-0.8-1.8c-0.4-0.5-0.8-0.9-1.4-1.2
		s-1.3-0.4-2.1-0.4c-0.8,0-1.5,0.1-2.1,0.4s-1.1,0.7-1.4,1.2c-0.4,0.5-0.6,1.1-0.8,1.8c-0.2,0.7-0.3,1.4-0.3,2.2s0.1,1.5,0.3,2.2
		c0.2,0.7,0.4,1.3,0.8,1.8c0.4,0.5,0.8,0.9,1.4,1.2C344.4,48.7,345.1,48.9,345.9,48.9z"/>
	<path fill="#7596FF" d="M355.2,36.7h1.5v2.1c0.5-0.7,1.1-1.3,1.8-1.7c0.7-0.4,1.4-0.6,2.2-0.6c0.2,0,0.4,0,0.5,0
		c0.2,0,0.3,0,0.5,0.1l-0.2,1.4c-0.3-0.1-0.6-0.1-0.8-0.1c-0.4,0-0.9,0.1-1.3,0.2c-0.5,0.2-0.9,0.4-1.3,0.8c-0.4,0.3-0.7,0.7-1,1.2
		c-0.3,0.5-0.4,1.1-0.4,1.7v7.9h-1.5V36.7z"/>
	<path fill="#7596FF" d="M363.8,31.6h1.5v11.1l6.7-6.1h1.8l-4.6,4.3l5.2,8.7h-1.8l-4.6-7.8l-2.8,2.5v5.3h-1.5V31.6z"/>
	<path fill="#7596FF" d="M382.7,37.9h-2v-1.2h2v-1.5c0-0.6,0.1-1.2,0.3-1.7c0.2-0.5,0.5-0.9,0.8-1.2c0.3-0.3,0.7-0.5,1.2-0.7
		c0.4-0.2,0.9-0.2,1.4-0.2c0.4,0,0.7,0,1,0.1c0.3,0,0.6,0.1,1,0.2l-0.3,1.2c-0.3-0.1-0.5-0.1-0.7-0.2c-0.2,0-0.5-0.1-0.7-0.1
		c-0.7,0-1.2,0.2-1.7,0.5c-0.4,0.3-0.7,1-0.7,1.9v1.6h3.5v1.2h-3.5v11.8h-1.5V37.9z"/>
	<path fill="#7596FF" d="M394.8,50.1c-1,0-1.8-0.2-2.6-0.5c-0.8-0.3-1.4-0.8-1.9-1.4c-0.5-0.6-0.9-1.3-1.2-2.2
		c-0.3-0.8-0.4-1.8-0.4-2.8c0-1.1,0.1-2,0.4-2.9c0.3-0.9,0.7-1.6,1.2-2.2s1.2-1.1,1.9-1.4c0.8-0.3,1.6-0.5,2.6-0.5
		c0.9,0,1.8,0.2,2.6,0.5c0.8,0.3,1.4,0.8,1.9,1.4c0.5,0.6,0.9,1.3,1.2,2.2c0.3,0.8,0.4,1.8,0.4,2.8c0,1.1-0.1,2-0.4,2.9
		c-0.3,0.9-0.7,1.6-1.2,2.2c-0.5,0.6-1.2,1.1-2,1.4C396.7,50,395.8,50.1,394.8,50.1z M394.9,48.9c0.8,0,1.5-0.1,2.1-0.4
		c0.6-0.3,1-0.7,1.4-1.2c0.4-0.5,0.6-1.1,0.8-1.8c0.2-0.7,0.3-1.4,0.3-2.3c0-0.8-0.1-1.5-0.3-2.2c-0.2-0.7-0.4-1.3-0.8-1.8
		c-0.4-0.5-0.8-0.9-1.4-1.2s-1.3-0.4-2.1-0.4c-0.8,0-1.5,0.1-2.1,0.4s-1.1,0.7-1.4,1.2s-0.6,1.1-0.8,1.8s-0.3,1.4-0.3,2.2
		s0.1,1.5,0.3,2.2c0.2,0.7,0.4,1.3,0.8,1.8s0.8,0.9,1.4,1.2C393.4,48.7,394.1,48.9,394.9,48.9z"/>
	<path fill="#7596FF" d="M404.2,36.7h1.5v2.1c0.5-0.7,1.1-1.3,1.8-1.7c0.7-0.4,1.4-0.6,2.2-0.6c0.2,0,0.4,0,0.5,0
		c0.2,0,0.3,0,0.5,0.1l-0.2,1.4c-0.3-0.1-0.6-0.1-0.8-0.1c-0.4,0-0.9,0.1-1.3,0.2c-0.5,0.2-0.9,0.4-1.3,0.8c-0.4,0.3-0.7,0.7-1,1.2
		c-0.3,0.5-0.4,1.1-0.4,1.7v7.9h-1.5V36.7z"/>
	<path fill="#7596FF" d="M418.7,31.6h6.1c1.3,0,2.4,0.2,3.4,0.5s1.9,0.9,2.6,1.6c0.7,0.7,1.2,1.7,1.6,2.8s0.6,2.4,0.6,4
		c0,1.5-0.2,2.9-0.6,4c-0.4,1.1-1,2.1-1.7,2.9c-0.8,0.8-1.7,1.3-2.8,1.7c-1.1,0.4-2.3,0.6-3.6,0.6h-5.6V31.6z M424.4,48.4
		c2.4,0,4.2-0.7,5.3-2c1.1-1.3,1.7-3.3,1.7-5.7c0-2.4-0.5-4.3-1.6-5.6c-1.1-1.3-2.7-2-5-2h-4.6v15.4H424.4z"/>
	<path fill="#7596FF" d="M444.5,47.9c-0.2,0.3-0.5,0.5-0.8,0.8c-0.3,0.3-0.7,0.5-1,0.7c-0.4,0.2-0.8,0.4-1.3,0.5
		c-0.5,0.1-1,0.2-1.5,0.2c-1.4,0-2.5-0.3-3.3-1s-1.2-1.6-1.2-2.9c0-0.9,0.2-1.6,0.6-2.2c0.4-0.6,0.9-1,1.5-1.3s1.3-0.5,2.1-0.7
		c0.8-0.1,1.6-0.2,2.4-0.2l2.5-0.1v-0.4c0-1.3-0.2-2.2-0.7-2.8c-0.5-0.6-1.4-0.9-2.7-0.9c-0.6,0-1.2,0.1-1.6,0.2
		c-0.4,0.1-0.8,0.2-1.1,0.4c-0.3,0.2-0.5,0.4-0.7,0.7c-0.2,0.3-0.3,0.6-0.4,0.9l-1.3-0.2c0.5-2.1,2.2-3.2,5.1-3.2
		c0.9,0,1.7,0.1,2.3,0.3c0.6,0.2,1.1,0.5,1.5,1c0.4,0.4,0.7,0.9,0.8,1.5c0.2,0.6,0.3,1.3,0.3,2.1v8.6h-1.5V47.9z M444.5,42.8
		l-2.4,0.1c-1,0-1.8,0.1-2.5,0.3c-0.7,0.1-1.2,0.3-1.6,0.6s-0.7,0.6-0.9,1c-0.2,0.4-0.3,0.8-0.3,1.4c0,0.8,0.2,1.4,0.7,1.9
		s1.2,0.7,2.4,0.7c0.6,0,1.1-0.1,1.7-0.2s1-0.3,1.4-0.6c0.3-0.2,0.6-0.4,0.8-0.6s0.4-0.4,0.5-0.7s0.2-0.5,0.3-0.8
		c0.1-0.3,0.1-0.7,0.1-1.1V42.8z"/>
	<path fill="#7596FF" d="M449.5,36.7h1.5v2.1c0.5-0.7,1.1-1.3,1.8-1.7c0.7-0.4,1.4-0.6,2.2-0.6c0.2,0,0.4,0,0.5,0
		c0.2,0,0.3,0,0.5,0.1l-0.2,1.4c-0.3-0.1-0.6-0.1-0.8-0.1c-0.4,0-0.9,0.1-1.3,0.2c-0.5,0.2-0.9,0.4-1.3,0.8c-0.4,0.3-0.7,0.7-1,1.2
		c-0.3,0.5-0.4,1.1-0.4,1.7v7.9h-1.5V36.7z"/>
	<path fill="#7596FF" d="M459.4,37.9h-2v-1.2h2v-3.6h1.5v3.6h3.7v1.2h-3.7v8.5c0,0.6,0.1,1.2,0.4,1.6c0.3,0.4,0.7,0.7,1.4,0.7
		c0.4,0,0.8,0,1.1-0.1c0.3-0.1,0.6-0.1,0.8-0.2l0.3,1.2c-0.3,0.1-0.6,0.2-0.9,0.3c-0.4,0.1-0.8,0.1-1.4,0.1c-0.7,0-1.3-0.1-1.7-0.4
		c-0.4-0.3-0.7-0.6-1-1s-0.3-0.9-0.4-1.4c-0.1-0.5-0.1-1.1-0.1-1.7V37.9z"/>
</g>
<g>
</g>
<g>
</g>
<g>
</g>
<g>
</g>
<g>
</g>
<g>
</g>
<g>
</g>
<g>
</g>
<g>
</g>
<g>
</g>
<g>
</g>
<g>
</g>
<g>
</g>
<g>
</g>
<g>
</g>
</svg>
