<?xml version="1.0" encoding="utf-8"?>
<!-- Generator: Adobe Illustrator 19.0.0, SVG Export Plug-In . SVG Version: 6.00 Build 0)  -->
<svg version="1.0" id="Layer_1" xmlns="http://www.w3.org/2000/svg" xmlns:xlink="http://www.w3.org/1999/xlink" x="0px" y="0px"
	 viewBox="0 0 728 51" style="enable-background:new 0 0 728 51;" xml:space="preserve">
<style type="text/css">
	.st0{fill:#7596FF;}
	.st1{clip-path:url(#XMLID_143_);}
	.st2{clip-path:url(#XMLID_157_);fill:#FF0050;}
</style>
<g id="XMLID_3_">
	<path id="XMLID_7_" class="st0" d="M158,1.5h1.9l7.6,19.3h-1.8l-2.3-5.9h-9.1l-2.3,5.9h-1.7L158,1.5z M162.8,13.4l-4-10.1
		l-3.9,10.1H162.8z"/>
	<path id="XMLID_10_" class="st0" d="M169.7,6.9h1.6v2.3c0.8-1,1.6-1.6,2.4-2.1c0.9-0.4,1.8-0.6,2.7-0.6c1.6,0,2.8,0.4,3.5,1.3
		c0.8,0.9,1.1,2.1,1.1,3.8v9.3h-1.6v-8.8c0-1.5-0.3-2.5-0.8-3.1c-0.5-0.6-1.4-1-2.5-1c-0.5,0-1.1,0.1-1.7,0.3
		c-0.6,0.2-1.1,0.5-1.6,1c-0.5,0.5-0.9,0.9-1.2,1.4c-0.3,0.5-0.4,1.2-0.4,2v8.2h-1.6V6.9z"/>
	<path id="XMLID_12_" class="st0" d="M199.7,18.8c-0.2,0.3-0.5,0.6-0.8,0.9c-0.3,0.3-0.7,0.5-1.1,0.7c-0.4,0.2-0.9,0.4-1.4,0.5
		s-1,0.2-1.6,0.2c-1.5,0-2.6-0.4-3.5-1.1s-1.3-1.7-1.3-3.1c0-0.9,0.2-1.7,0.6-2.3c0.4-0.6,0.9-1.1,1.6-1.4c0.7-0.3,1.4-0.6,2.2-0.7
		c0.8-0.1,1.7-0.2,2.6-0.3l2.7-0.1v-0.4c0-1.4-0.3-2.4-0.8-3c-0.5-0.6-1.5-0.9-2.8-0.9c-0.7,0-1.2,0.1-1.7,0.2s-0.8,0.3-1.1,0.5
		c-0.3,0.2-0.5,0.5-0.7,0.7c-0.2,0.3-0.3,0.6-0.4,0.9l-1.4-0.2c0.5-2.3,2.3-3.4,5.5-3.4c1,0,1.8,0.1,2.5,0.4s1.2,0.6,1.6,1
		c0.4,0.4,0.7,1,0.9,1.6c0.2,0.6,0.3,1.4,0.3,2.2v9.2h-1.6V18.8z M199.7,13.4l-2.6,0.1c-1,0-1.9,0.1-2.6,0.3s-1.3,0.4-1.7,0.6
		c-0.4,0.3-0.7,0.6-0.9,1s-0.3,0.9-0.3,1.4c0,0.8,0.2,1.5,0.7,2c0.5,0.5,1.3,0.8,2.5,0.8c0.6,0,1.2-0.1,1.8-0.2
		c0.6-0.1,1.1-0.4,1.4-0.7c0.3-0.2,0.6-0.5,0.8-0.7c0.2-0.2,0.4-0.5,0.5-0.7c0.1-0.3,0.2-0.6,0.3-0.9c0.1-0.3,0.1-0.7,0.1-1.1V13.4z
		"/>
	<path id="XMLID_15_" class="st0" d="M216.8,16.2c-0.3,1.6-0.9,2.8-1.9,3.7c-1,0.9-2.3,1.3-4,1.3c-1,0-1.9-0.2-2.7-0.5
		c-0.8-0.3-1.5-0.8-2-1.5c-0.5-0.6-1-1.4-1.2-2.3c-0.3-0.9-0.4-1.9-0.4-3.1c0-1.1,0.2-2.2,0.5-3.1c0.3-0.9,0.7-1.7,1.3-2.3
		s1.2-1.1,2-1.5c0.8-0.4,1.7-0.5,2.7-0.5c1.5,0,2.8,0.4,3.7,1.2c0.9,0.8,1.5,1.9,1.8,3.3l-1.5,0.4c-0.1-0.5-0.3-1-0.5-1.4
		c-0.2-0.4-0.5-0.8-0.8-1.1c-0.3-0.3-0.7-0.5-1.1-0.7c-0.5-0.2-1-0.3-1.6-0.3c-0.8,0-1.6,0.2-2.2,0.5s-1.1,0.7-1.5,1.3
		c-0.4,0.5-0.7,1.2-0.9,1.9c-0.2,0.7-0.3,1.5-0.3,2.4c0,0.9,0.1,1.7,0.3,2.4c0.2,0.7,0.5,1.4,0.8,1.9s0.9,1,1.5,1.3
		c0.6,0.3,1.3,0.5,2.2,0.5c1.4,0,2.3-0.3,3-1s1-1.5,1.3-2.6H216.8z"/>
	<path id="XMLID_17_" class="st0" d="M231.5,16.2c-0.3,1.6-0.9,2.8-1.9,3.7c-1,0.9-2.3,1.3-4,1.3c-1,0-1.9-0.2-2.7-0.5
		c-0.8-0.3-1.5-0.8-2-1.5c-0.5-0.6-1-1.4-1.2-2.3c-0.3-0.9-0.4-1.9-0.4-3.1c0-1.1,0.2-2.2,0.5-3.1c0.3-0.9,0.7-1.7,1.3-2.3
		s1.2-1.1,2-1.5c0.8-0.4,1.7-0.5,2.7-0.5c1.5,0,2.8,0.4,3.7,1.2c0.9,0.8,1.5,1.9,1.8,3.3l-1.5,0.4c-0.1-0.5-0.3-1-0.5-1.4
		c-0.2-0.4-0.5-0.8-0.8-1.1c-0.3-0.3-0.7-0.5-1.1-0.7c-0.5-0.2-1-0.3-1.6-0.3c-0.8,0-1.6,0.2-2.2,0.5s-1.1,0.7-1.5,1.3
		c-0.4,0.5-0.7,1.2-0.9,1.9c-0.2,0.7-0.3,1.5-0.3,2.4c0,0.9,0.1,1.7,0.3,2.4c0.2,0.7,0.5,1.4,0.8,1.9s0.9,1,1.5,1.3
		c0.6,0.3,1.3,0.5,2.2,0.5c1.4,0,2.3-0.3,3-1s1-1.5,1.3-2.6H231.5z"/>
	<path id="XMLID_19_" class="st0" d="M246,17.1c-0.2,1.2-0.8,2.2-1.7,2.9c-0.9,0.8-2.3,1.1-4,1.1c-2,0-3.6-0.6-4.7-1.9
		c-1.1-1.3-1.7-3.1-1.7-5.3c0-1.2,0.2-2.3,0.5-3.2c0.3-0.9,0.8-1.7,1.3-2.4c0.6-0.6,1.2-1.1,2-1.4c0.8-0.3,1.6-0.5,2.5-0.5
		c1.1,0,2,0.2,2.8,0.5s1.4,0.8,1.8,1.4c0.5,0.6,0.8,1.3,1,2.1c0.2,0.8,0.3,1.7,0.3,2.7v1h-10.7c0,0.8,0.1,1.5,0.3,2.2
		c0.2,0.7,0.5,1.3,0.9,1.8c0.4,0.5,0.9,0.9,1.5,1.2c0.6,0.3,1.3,0.4,2,0.4c0.7,0,1.3-0.1,1.8-0.2s0.9-0.3,1.2-0.6
		c0.3-0.2,0.6-0.5,0.8-0.9c0.2-0.3,0.3-0.7,0.4-1.1H246z M244.6,12.9c0-0.8-0.1-1.4-0.2-2.1c-0.2-0.6-0.4-1.2-0.8-1.6
		s-0.8-0.8-1.3-1.1c-0.6-0.3-1.2-0.4-2-0.4c-1.3,0-2.4,0.4-3.2,1.3s-1.3,2.1-1.5,3.9H244.6z"/>
	<path id="XMLID_22_" class="st0" d="M250.4,16.9c0.2,1.1,0.7,1.8,1.4,2.3c0.7,0.5,1.7,0.7,3.1,0.7c1.3,0,2.3-0.3,2.9-0.8
		c0.6-0.5,0.8-1.1,0.8-1.9c0-0.3,0-0.6-0.1-0.9c-0.1-0.3-0.2-0.5-0.4-0.8c-0.2-0.2-0.5-0.4-0.9-0.6c-0.4-0.2-0.9-0.3-1.5-0.4
		l-1.7-0.3c-0.7-0.1-1.4-0.3-2-0.5c-0.6-0.2-1.1-0.4-1.5-0.7c-0.4-0.3-0.7-0.7-0.9-1.1c-0.2-0.4-0.3-1-0.3-1.6
		c0-0.6,0.1-1.2,0.4-1.7c0.3-0.5,0.6-0.9,1.1-1.2c0.5-0.3,1-0.6,1.7-0.8c0.6-0.2,1.3-0.3,2.1-0.3c1,0,1.8,0.1,2.4,0.3
		c0.6,0.2,1.2,0.4,1.6,0.8c0.4,0.3,0.7,0.7,0.9,1.1c0.2,0.4,0.4,0.9,0.5,1.4l-1.4,0.3c-0.1-0.4-0.3-0.8-0.5-1.1
		c-0.2-0.3-0.4-0.6-0.7-0.8c-0.3-0.2-0.6-0.4-1.1-0.5c-0.4-0.1-1-0.2-1.6-0.2c-0.7,0-1.3,0.1-1.8,0.2c-0.5,0.1-0.9,0.3-1.2,0.6
		s-0.5,0.5-0.6,0.8s-0.2,0.6-0.2,0.9c0,0.3,0,0.6,0.1,0.9c0.1,0.3,0.2,0.5,0.4,0.7c0.2,0.2,0.5,0.4,0.9,0.5c0.4,0.1,0.9,0.3,1.5,0.4
		l2.1,0.4c1.5,0.3,2.5,0.7,3.3,1.3c0.7,0.6,1.1,1.6,1.1,2.8c0,0.5-0.1,1.1-0.3,1.5c-0.2,0.5-0.6,0.9-1,1.3s-1,0.6-1.7,0.8
		c-0.7,0.2-1.4,0.3-2.3,0.3c-0.8,0-1.6-0.1-2.3-0.2s-1.3-0.4-1.8-0.8s-0.9-0.8-1.3-1.3s-0.5-1.2-0.6-2H250.4z"/>
	<path id="XMLID_24_" class="st0" d="M264.3,16.9c0.2,1.1,0.7,1.8,1.4,2.3c0.7,0.5,1.7,0.7,3.1,0.7c1.3,0,2.3-0.3,2.9-0.8
		c0.6-0.5,0.8-1.1,0.8-1.9c0-0.3,0-0.6-0.1-0.9c-0.1-0.3-0.2-0.5-0.4-0.8c-0.2-0.2-0.5-0.4-0.9-0.6c-0.4-0.2-0.9-0.3-1.5-0.4
		l-1.7-0.3c-0.7-0.1-1.4-0.3-2-0.5c-0.6-0.2-1.1-0.4-1.5-0.7c-0.4-0.3-0.7-0.7-0.9-1.1c-0.2-0.4-0.3-1-0.3-1.6
		c0-0.6,0.1-1.2,0.4-1.7c0.3-0.5,0.6-0.9,1.1-1.2c0.5-0.3,1-0.6,1.7-0.8c0.6-0.2,1.3-0.3,2.1-0.3c1,0,1.8,0.1,2.4,0.3
		c0.6,0.2,1.2,0.4,1.6,0.8c0.4,0.3,0.7,0.7,0.9,1.1c0.2,0.4,0.4,0.9,0.5,1.4l-1.4,0.3c-0.1-0.4-0.3-0.8-0.5-1.1
		c-0.2-0.3-0.4-0.6-0.7-0.8c-0.3-0.2-0.6-0.4-1.1-0.5c-0.4-0.1-1-0.2-1.6-0.2c-0.7,0-1.3,0.1-1.8,0.2c-0.5,0.1-0.9,0.3-1.2,0.6
		s-0.5,0.5-0.6,0.8s-0.2,0.6-0.2,0.9c0,0.3,0,0.6,0.1,0.9c0.1,0.3,0.2,0.5,0.4,0.7c0.2,0.2,0.5,0.4,0.9,0.5c0.4,0.1,0.9,0.3,1.5,0.4
		l2.1,0.4c1.5,0.3,2.5,0.7,3.3,1.3c0.7,0.6,1.1,1.6,1.1,2.8c0,0.5-0.1,1.1-0.3,1.5c-0.2,0.5-0.6,0.9-1,1.3s-1,0.6-1.7,0.8
		c-0.7,0.2-1.4,0.3-2.3,0.3c-0.8,0-1.6-0.1-2.3-0.2s-1.3-0.4-1.8-0.8s-0.9-0.8-1.3-1.3s-0.5-1.2-0.6-2H264.3z"/>
	<path id="XMLID_26_" class="st0" d="M277.3,1.5h1.8v2.3h-1.8V1.5z M277.4,6.9h1.6v13.9h-1.6V6.9z"/>
	<path id="XMLID_29_" class="st0" d="M282.8,1.5h1.6V9c0.6-0.8,1.3-1.4,2.1-1.8s1.7-0.7,2.8-0.7c1,0,1.9,0.2,2.6,0.6
		c0.8,0.4,1.4,0.9,1.9,1.5s0.9,1.4,1.1,2.3c0.2,0.9,0.4,1.8,0.4,2.9c0,1.2-0.1,2.2-0.4,3.2c-0.3,0.9-0.7,1.7-1.3,2.4s-1.2,1.1-2,1.5
		c-0.8,0.3-1.6,0.5-2.6,0.5c-0.8,0-1.7-0.2-2.4-0.5s-1.5-0.9-2.1-1.8v1.9h-1.6V1.5z M284.3,14.4c0,0.6,0,1.1,0.1,1.6
		c0.1,0.5,0.2,0.9,0.3,1.2c0.2,0.4,0.3,0.7,0.6,1c0.2,0.3,0.5,0.5,0.9,0.8c0.4,0.3,0.8,0.6,1.3,0.7c0.4,0.1,0.9,0.2,1.5,0.2
		c0.7,0,1.3-0.1,1.8-0.3c0.6-0.2,1-0.6,1.4-1.1c0.4-0.5,0.7-1.1,1-1.9c0.2-0.8,0.4-1.7,0.4-2.8c0-1.1-0.1-2.1-0.4-2.8
		c-0.3-0.8-0.6-1.4-1-1.8s-0.9-0.8-1.4-1s-1-0.3-1.5-0.3c-0.6,0-1.1,0.1-1.5,0.2s-0.9,0.4-1.3,0.7c-0.6,0.5-1.1,1.1-1.5,1.8
		c-0.4,0.7-0.5,1.6-0.5,2.7V14.4z"/>
	<path id="XMLID_32_" class="st0" d="M298.6,1.5h1.6v19.3h-1.6V1.5z"/>
	<path id="XMLID_34_" class="st0" d="M315.6,17.1c-0.2,1.2-0.8,2.2-1.7,2.9c-0.9,0.8-2.3,1.1-4,1.1c-2,0-3.6-0.6-4.7-1.9
		c-1.1-1.3-1.7-3.1-1.7-5.3c0-1.2,0.2-2.3,0.5-3.2c0.3-0.9,0.8-1.7,1.3-2.4c0.6-0.6,1.2-1.1,2-1.4c0.8-0.3,1.6-0.5,2.5-0.5
		c1.1,0,2,0.2,2.8,0.5s1.4,0.8,1.8,1.4c0.5,0.6,0.8,1.3,1,2.1c0.2,0.8,0.3,1.7,0.3,2.7v1h-10.7c0,0.8,0.1,1.5,0.3,2.2
		c0.2,0.7,0.5,1.3,0.9,1.8c0.4,0.5,0.9,0.9,1.5,1.2c0.6,0.3,1.3,0.4,2,0.4c0.7,0,1.3-0.1,1.8-0.2s0.9-0.3,1.2-0.6
		c0.3-0.2,0.6-0.5,0.8-0.9c0.2-0.3,0.3-0.7,0.4-1.1H315.6z M314.3,12.9c0-0.8-0.1-1.4-0.2-2.1c-0.2-0.6-0.4-1.2-0.8-1.6
		s-0.8-0.8-1.3-1.1c-0.6-0.3-1.2-0.4-2-0.4c-1.3,0-2.4,0.4-3.2,1.3s-1.3,2.1-1.5,3.9H314.3z"/>
	<path id="XMLID_37_" class="st0" d="M334.1,18.8c-0.2,0.3-0.5,0.6-0.8,0.9c-0.3,0.3-0.7,0.5-1.1,0.7c-0.4,0.2-0.9,0.4-1.4,0.5
		s-1,0.2-1.6,0.2c-1.5,0-2.6-0.4-3.5-1.1s-1.3-1.7-1.3-3.1c0-0.9,0.2-1.7,0.6-2.3c0.4-0.6,0.9-1.1,1.6-1.4c0.7-0.3,1.4-0.6,2.2-0.7
		c0.8-0.1,1.7-0.2,2.6-0.3l2.7-0.1v-0.4c0-1.4-0.3-2.4-0.8-3c-0.5-0.6-1.5-0.9-2.8-0.9c-0.7,0-1.2,0.1-1.7,0.2s-0.8,0.3-1.1,0.5
		c-0.3,0.2-0.5,0.5-0.7,0.7c-0.2,0.3-0.3,0.6-0.4,0.9L325,9.8c0.5-2.3,2.3-3.4,5.5-3.4c1,0,1.8,0.1,2.5,0.4s1.2,0.6,1.6,1
		c0.4,0.4,0.7,1,0.9,1.6c0.2,0.6,0.3,1.4,0.3,2.2v9.2h-1.6V18.8z M334,13.4l-2.6,0.1c-1,0-1.9,0.1-2.6,0.3s-1.3,0.4-1.7,0.6
		c-0.4,0.3-0.7,0.6-0.9,1s-0.3,0.9-0.3,1.4c0,0.8,0.2,1.5,0.7,2c0.5,0.5,1.3,0.8,2.5,0.8c0.6,0,1.2-0.1,1.8-0.2
		c0.6-0.1,1.1-0.4,1.4-0.7c0.3-0.2,0.6-0.5,0.8-0.7c0.2-0.2,0.4-0.5,0.5-0.7c0.1-0.3,0.2-0.6,0.3-0.9c0.1-0.3,0.1-0.7,0.1-1.1V13.4z
		"/>
	<path id="XMLID_40_" class="st0" d="M339.4,6.9h1.6v2.3c0.8-1,1.6-1.6,2.4-2.1c0.9-0.4,1.8-0.6,2.7-0.6c1.6,0,2.8,0.4,3.5,1.3
		c0.8,0.9,1.1,2.1,1.1,3.8v9.3h-1.6v-8.8c0-1.5-0.3-2.5-0.8-3.1c-0.5-0.6-1.4-1-2.5-1c-0.5,0-1.1,0.1-1.7,0.3
		c-0.6,0.2-1.1,0.5-1.6,1c-0.5,0.5-0.9,0.9-1.2,1.4c-0.3,0.5-0.4,1.2-0.4,2v8.2h-1.6V6.9z"/>
	<path id="XMLID_42_" class="st0" d="M364.8,18.7c-0.6,0.8-1.3,1.4-2,1.8c-0.8,0.4-1.7,0.7-2.8,0.7c-1,0-1.9-0.2-2.7-0.6
		c-0.7-0.4-1.4-0.9-1.8-1.6c-0.5-0.7-0.8-1.4-1.1-2.3c-0.2-0.9-0.4-1.8-0.4-2.7c0-2.4,0.6-4.2,1.7-5.5c1.1-1.3,2.6-2,4.6-2
		c0.8,0,1.5,0.2,2.3,0.5c0.8,0.3,1.5,0.9,2.2,1.8V1.5h1.6v19.3h-1.6V18.7z M364.9,13.3c0-0.6,0-1.2-0.1-1.6
		c-0.1-0.5-0.2-0.9-0.3-1.2c-0.1-0.4-0.3-0.7-0.6-0.9S363.3,9,363,8.7c-0.4-0.3-0.9-0.6-1.3-0.7s-0.9-0.2-1.4-0.2
		c-0.7,0-1.3,0.1-1.8,0.3s-1,0.6-1.4,1.1s-0.7,1.1-1,1.9c-0.2,0.8-0.4,1.7-0.4,2.8c0,1.1,0.1,2.1,0.4,2.8s0.6,1.4,1,1.8
		s0.9,0.8,1.4,1c0.5,0.2,1,0.3,1.6,0.3c0.6,0,1.1-0.1,1.5-0.2c0.4-0.1,0.9-0.4,1.4-0.7c0.6-0.5,1.1-1.1,1.5-1.8s0.5-1.6,0.5-2.7
		V13.3z"/>
	<path id="XMLID_45_" class="st0" d="M377,16.9c0.2,1.1,0.7,1.8,1.4,2.3c0.7,0.5,1.7,0.7,3.1,0.7c1.3,0,2.3-0.3,2.9-0.8
		c0.6-0.5,0.8-1.1,0.8-1.9c0-0.3,0-0.6-0.1-0.9c-0.1-0.3-0.2-0.5-0.4-0.8c-0.2-0.2-0.5-0.4-0.9-0.6c-0.4-0.2-0.9-0.3-1.5-0.4
		l-1.7-0.3c-0.7-0.1-1.4-0.3-2-0.5c-0.6-0.2-1.1-0.4-1.5-0.7c-0.4-0.3-0.7-0.7-0.9-1.1c-0.2-0.4-0.3-1-0.3-1.6
		c0-0.6,0.1-1.2,0.4-1.7c0.3-0.5,0.6-0.9,1.1-1.2c0.5-0.3,1-0.6,1.7-0.8c0.6-0.2,1.3-0.3,2.1-0.3c1,0,1.8,0.1,2.4,0.3
		c0.6,0.2,1.2,0.4,1.6,0.8c0.4,0.3,0.7,0.7,0.9,1.1c0.2,0.4,0.4,0.9,0.5,1.4l-1.4,0.3c-0.1-0.4-0.3-0.8-0.5-1.1
		c-0.2-0.3-0.4-0.6-0.7-0.8c-0.3-0.2-0.6-0.4-1.1-0.5c-0.4-0.1-1-0.2-1.6-0.2c-0.7,0-1.3,0.1-1.8,0.2c-0.5,0.1-0.9,0.3-1.2,0.6
		s-0.5,0.5-0.6,0.8s-0.2,0.6-0.2,0.9c0,0.3,0,0.6,0.1,0.9c0.1,0.3,0.2,0.5,0.4,0.7c0.2,0.2,0.5,0.4,0.9,0.5c0.4,0.1,0.9,0.3,1.5,0.4
		l2.1,0.4c1.5,0.3,2.5,0.7,3.3,1.3c0.7,0.6,1.1,1.6,1.1,2.8c0,0.5-0.1,1.1-0.3,1.5c-0.2,0.5-0.6,0.9-1,1.3s-1,0.6-1.7,0.8
		c-0.7,0.2-1.4,0.3-2.3,0.3c-0.8,0-1.6-0.1-2.3-0.2s-1.3-0.4-1.8-0.8s-0.9-0.8-1.3-1.3s-0.5-1.2-0.6-2H377z"/>
	<path id="XMLID_47_" class="st0" d="M401.8,16.2c-0.3,1.6-0.9,2.8-1.9,3.7c-1,0.9-2.3,1.3-4,1.3c-1,0-1.9-0.2-2.7-0.5
		c-0.8-0.3-1.5-0.8-2-1.5c-0.5-0.6-1-1.4-1.2-2.3c-0.3-0.9-0.4-1.9-0.4-3.1c0-1.1,0.2-2.2,0.5-3.1c0.3-0.9,0.7-1.7,1.3-2.3
		s1.2-1.1,2-1.5c0.8-0.4,1.7-0.5,2.7-0.5c1.5,0,2.8,0.4,3.7,1.2c0.9,0.8,1.5,1.9,1.8,3.3l-1.5,0.4c-0.1-0.5-0.3-1-0.5-1.4
		c-0.2-0.4-0.5-0.8-0.8-1.1c-0.3-0.3-0.7-0.5-1.1-0.7c-0.5-0.2-1-0.3-1.6-0.3c-0.8,0-1.6,0.2-2.2,0.5s-1.1,0.7-1.5,1.3
		c-0.4,0.5-0.7,1.2-0.9,1.9c-0.2,0.7-0.3,1.5-0.3,2.4c0,0.9,0.1,1.7,0.3,2.4c0.2,0.7,0.5,1.4,0.8,1.9s0.9,1,1.5,1.3
		c0.6,0.3,1.3,0.5,2.2,0.5c1.4,0,2.3-0.3,3-1s1-1.5,1.3-2.6H401.8z"/>
	<path id="XMLID_49_" class="st0" d="M413.9,18.8c-0.2,0.3-0.5,0.6-0.8,0.9c-0.3,0.3-0.7,0.5-1.1,0.7c-0.4,0.2-0.9,0.4-1.4,0.5
		s-1,0.2-1.6,0.2c-1.5,0-2.6-0.4-3.5-1.1s-1.3-1.7-1.3-3.1c0-0.9,0.2-1.7,0.6-2.3c0.4-0.6,0.9-1.1,1.6-1.4c0.7-0.3,1.4-0.6,2.2-0.7
		c0.8-0.1,1.7-0.2,2.6-0.3l2.7-0.1v-0.4c0-1.4-0.3-2.4-0.8-3c-0.5-0.6-1.5-0.9-2.8-0.9c-0.7,0-1.2,0.1-1.7,0.2s-0.8,0.3-1.1,0.5
		c-0.3,0.2-0.5,0.5-0.7,0.7c-0.2,0.3-0.3,0.6-0.4,0.9l-1.4-0.2c0.5-2.3,2.3-3.4,5.5-3.4c1,0,1.8,0.1,2.5,0.4s1.2,0.6,1.6,1
		c0.4,0.4,0.7,1,0.9,1.6c0.2,0.6,0.3,1.4,0.3,2.2v9.2h-1.6V18.8z M413.8,13.4l-2.6,0.1c-1,0-1.9,0.1-2.6,0.3s-1.3,0.4-1.7,0.6
		c-0.4,0.3-0.7,0.6-0.9,1s-0.3,0.9-0.3,1.4c0,0.8,0.2,1.5,0.7,2c0.5,0.5,1.3,0.8,2.5,0.8c0.6,0,1.2-0.1,1.8-0.2
		c0.6-0.1,1.1-0.4,1.4-0.7c0.3-0.2,0.6-0.5,0.8-0.7c0.2-0.2,0.4-0.5,0.5-0.7c0.1-0.3,0.2-0.6,0.3-0.9c0.1-0.3,0.1-0.7,0.1-1.1V13.4z
		"/>
	<path id="XMLID_52_" class="st0" d="M419.3,1.5h1.6v19.3h-1.6V1.5z"/>
	<path id="XMLID_54_" class="st0" d="M433.6,18.8c-0.2,0.3-0.5,0.6-0.8,0.9c-0.3,0.3-0.7,0.5-1.1,0.7c-0.4,0.2-0.9,0.4-1.4,0.5
		s-1,0.2-1.6,0.2c-1.5,0-2.6-0.4-3.5-1.1s-1.3-1.7-1.3-3.1c0-0.9,0.2-1.7,0.6-2.3c0.4-0.6,0.9-1.1,1.6-1.4c0.7-0.3,1.4-0.6,2.2-0.7
		c0.8-0.1,1.7-0.2,2.6-0.3l2.7-0.1v-0.4c0-1.4-0.3-2.4-0.8-3c-0.5-0.6-1.5-0.9-2.8-0.9c-0.7,0-1.2,0.1-1.7,0.2s-0.8,0.3-1.1,0.5
		c-0.3,0.2-0.5,0.5-0.7,0.7c-0.2,0.3-0.3,0.6-0.4,0.9l-1.4-0.2c0.5-2.3,2.3-3.4,5.5-3.4c1,0,1.8,0.1,2.5,0.4s1.2,0.6,1.6,1
		c0.4,0.4,0.7,1,0.9,1.6c0.2,0.6,0.3,1.4,0.3,2.2v9.2h-1.6V18.8z M433.5,13.4l-2.6,0.1c-1,0-1.9,0.1-2.6,0.3s-1.3,0.4-1.7,0.6
		c-0.4,0.3-0.7,0.6-0.9,1s-0.3,0.9-0.3,1.4c0,0.8,0.2,1.5,0.7,2c0.5,0.5,1.3,0.8,2.5,0.8c0.6,0,1.2-0.1,1.8-0.2
		c0.6-0.1,1.1-0.4,1.4-0.7c0.3-0.2,0.6-0.5,0.8-0.7c0.2-0.2,0.4-0.5,0.5-0.7c0.1-0.3,0.2-0.6,0.3-0.9c0.1-0.3,0.1-0.7,0.1-1.1V13.4z
		"/>
	<path id="XMLID_57_" class="st0" d="M438.9,1.5h1.6V9c0.6-0.8,1.3-1.4,2.1-1.8s1.7-0.7,2.8-0.7c1,0,1.9,0.2,2.6,0.6
		c0.8,0.4,1.4,0.9,1.9,1.5s0.9,1.4,1.1,2.3c0.2,0.9,0.4,1.8,0.4,2.9c0,1.2-0.1,2.2-0.4,3.2c-0.3,0.9-0.7,1.7-1.3,2.4s-1.2,1.1-2,1.5
		c-0.8,0.3-1.6,0.5-2.6,0.5c-0.8,0-1.7-0.2-2.4-0.5s-1.5-0.9-2.1-1.8v1.9h-1.6V1.5z M440.4,14.4c0,0.6,0,1.1,0.1,1.6
		c0.1,0.5,0.2,0.9,0.3,1.2c0.2,0.4,0.3,0.7,0.6,1c0.2,0.3,0.5,0.5,0.9,0.8c0.4,0.3,0.8,0.6,1.3,0.7c0.4,0.1,0.9,0.2,1.5,0.2
		c0.7,0,1.3-0.1,1.8-0.3c0.6-0.2,1-0.6,1.4-1.1c0.4-0.5,0.7-1.1,1-1.9c0.2-0.8,0.4-1.7,0.4-2.8c0-1.1-0.1-2.1-0.4-2.8
		c-0.3-0.8-0.6-1.4-1-1.8s-0.9-0.8-1.4-1s-1-0.3-1.5-0.3c-0.6,0-1.1,0.1-1.5,0.2s-0.9,0.4-1.3,0.7c-0.6,0.5-1.1,1.1-1.5,1.8
		c-0.4,0.7-0.5,1.6-0.5,2.7V14.4z"/>
	<path id="XMLID_60_" class="st0" d="M454.7,1.5h1.6v19.3h-1.6V1.5z"/>
	<path id="XMLID_62_" class="st0" d="M471.7,17.1c-0.2,1.2-0.8,2.2-1.7,2.9c-0.9,0.8-2.3,1.1-4,1.1c-2,0-3.6-0.6-4.7-1.9
		c-1.1-1.3-1.7-3.1-1.7-5.3c0-1.2,0.2-2.3,0.5-3.2c0.3-0.9,0.8-1.7,1.3-2.4c0.6-0.6,1.2-1.1,2-1.4c0.8-0.3,1.6-0.5,2.5-0.5
		c1.1,0,2,0.2,2.8,0.5s1.4,0.8,1.8,1.4c0.5,0.6,0.8,1.3,1,2.1c0.2,0.8,0.3,1.7,0.3,2.7v1h-10.7c0,0.8,0.1,1.5,0.3,2.2
		c0.2,0.7,0.5,1.3,0.9,1.8c0.4,0.5,0.9,0.9,1.5,1.2c0.6,0.3,1.3,0.4,2,0.4c0.7,0,1.3-0.1,1.8-0.2s0.9-0.3,1.2-0.6
		c0.3-0.2,0.6-0.5,0.8-0.9c0.2-0.3,0.3-0.7,0.4-1.1H471.7z M470.4,12.9c0-0.8-0.1-1.4-0.2-2.1c-0.2-0.6-0.4-1.2-0.8-1.6
		s-0.8-0.8-1.3-1.1c-0.6-0.3-1.2-0.4-2-0.4c-1.3,0-2.4,0.4-3.2,1.3s-1.3,2.1-1.5,3.9H470.4z"/>
	<path id="XMLID_65_" class="st0" d="M492.9,17.1c-0.2,1.2-0.8,2.2-1.7,2.9c-0.9,0.8-2.3,1.1-4,1.1c-2,0-3.6-0.6-4.7-1.9
		c-1.1-1.3-1.7-3.1-1.7-5.3c0-1.2,0.2-2.3,0.5-3.2c0.3-0.9,0.8-1.7,1.3-2.4c0.6-0.6,1.2-1.1,2-1.4c0.8-0.3,1.6-0.5,2.5-0.5
		c1.1,0,2,0.2,2.8,0.5s1.4,0.8,1.8,1.4c0.5,0.6,0.8,1.3,1,2.1c0.2,0.8,0.3,1.7,0.3,2.7v1h-10.7c0,0.8,0.1,1.5,0.3,2.2
		c0.2,0.7,0.5,1.3,0.9,1.8c0.4,0.5,0.9,0.9,1.5,1.2c0.6,0.3,1.3,0.4,2,0.4c0.7,0,1.3-0.1,1.8-0.2s0.9-0.3,1.2-0.6
		c0.3-0.2,0.6-0.5,0.8-0.9c0.2-0.3,0.3-0.7,0.4-1.1H492.9z M491.5,12.9c0-0.8-0.1-1.4-0.2-2.1c-0.2-0.6-0.4-1.2-0.8-1.6
		s-0.8-0.8-1.3-1.1c-0.6-0.3-1.2-0.4-2-0.4c-1.3,0-2.4,0.4-3.2,1.3s-1.3,2.1-1.5,3.9H491.5z"/>
	<path id="XMLID_68_" class="st0" d="M496.4,6.9h1.6v2.3c0.8-1,1.6-1.6,2.4-2.1c0.9-0.4,1.8-0.6,2.7-0.6c1.6,0,2.8,0.4,3.5,1.3
		c0.8,0.9,1.1,2.1,1.1,3.8v9.3h-1.6v-8.8c0-1.5-0.3-2.5-0.8-3.1c-0.5-0.6-1.4-1-2.5-1c-0.5,0-1.1,0.1-1.7,0.3
		c-0.6,0.2-1.1,0.5-1.6,1c-0.5,0.5-0.9,0.9-1.2,1.4c-0.3,0.5-0.4,1.2-0.4,2v8.2h-1.6V6.9z"/>
	<path id="XMLID_70_" class="st0" d="M521.8,18.7c-0.6,0.8-1.3,1.4-2,1.8c-0.8,0.4-1.7,0.7-2.8,0.7c-1,0-1.9-0.2-2.7-0.6
		c-0.7-0.4-1.4-0.9-1.8-1.6c-0.5-0.7-0.8-1.4-1.1-2.3c-0.2-0.9-0.4-1.8-0.4-2.7c0-2.4,0.6-4.2,1.7-5.5c1.1-1.3,2.6-2,4.6-2
		c0.8,0,1.5,0.2,2.3,0.5c0.8,0.3,1.5,0.9,2.2,1.8V1.5h1.6v19.3h-1.6V18.7z M521.9,13.3c0-0.6,0-1.2-0.1-1.6
		c-0.1-0.5-0.2-0.9-0.3-1.2c-0.1-0.4-0.3-0.7-0.6-0.9S520.4,9,520,8.7c-0.4-0.3-0.9-0.6-1.3-0.7s-0.9-0.2-1.4-0.2
		c-0.7,0-1.3,0.1-1.8,0.3s-1,0.6-1.4,1.1s-0.7,1.1-1,1.9c-0.2,0.8-0.4,1.7-0.4,2.8c0,1.1,0.1,2.1,0.4,2.8s0.6,1.4,1,1.8
		s0.9,0.8,1.4,1c0.5,0.2,1,0.3,1.6,0.3c0.6,0,1.1-0.1,1.5-0.2c0.4-0.1,0.9-0.4,1.4-0.7c0.6-0.5,1.1-1.1,1.5-1.8s0.5-1.6,0.5-2.7
		V13.3z"/>
	<path id="XMLID_73_" class="st0" d="M526.6,12.2h7.9v1.6h-7.9V12.2z"/>
	<path id="XMLID_75_" class="st0" d="M538.5,8.2h-2.2V6.9h2.2V3h1.6v3.8h3.9v1.3h-3.9v9.1c0,0.7,0.1,1.3,0.4,1.7
		c0.3,0.5,0.8,0.7,1.5,0.7c0.5,0,0.9,0,1.2-0.1c0.3-0.1,0.6-0.2,0.9-0.2l0.3,1.3c-0.3,0.1-0.6,0.2-1,0.3c-0.4,0.1-0.9,0.1-1.5,0.1
		c-0.8,0-1.4-0.1-1.9-0.4c-0.5-0.3-0.8-0.6-1-1.1c-0.2-0.4-0.4-0.9-0.4-1.5c-0.1-0.6-0.1-1.2-0.1-1.8V8.2z"/>
	<path id="XMLID_77_" class="st0" d="M552.1,21.2c-1,0-1.9-0.2-2.7-0.5s-1.5-0.8-2-1.5c-0.5-0.6-1-1.4-1.3-2.3s-0.4-1.9-0.4-3
		c0-1.1,0.2-2.2,0.5-3.1c0.3-0.9,0.8-1.7,1.3-2.3c0.6-0.6,1.3-1.1,2.1-1.5c0.8-0.4,1.7-0.5,2.7-0.5s1.9,0.2,2.7,0.5
		c0.8,0.3,1.5,0.8,2.1,1.5c0.6,0.6,1,1.4,1.3,2.3c0.3,0.9,0.4,1.9,0.4,3c0,1.1-0.2,2.2-0.5,3.1c-0.3,0.9-0.7,1.7-1.3,2.4
		c-0.6,0.7-1.3,1.2-2.1,1.5C554.1,21,553.2,21.2,552.1,21.2z M552.2,19.9c0.9,0,1.6-0.2,2.2-0.5c0.6-0.3,1.1-0.7,1.5-1.3
		c0.4-0.5,0.7-1.2,0.9-1.9c0.2-0.7,0.3-1.5,0.3-2.4c0-0.8-0.1-1.6-0.3-2.3c-0.2-0.7-0.5-1.4-0.9-1.9c-0.4-0.5-0.9-1-1.5-1.3
		c-0.6-0.3-1.4-0.5-2.2-0.5c-0.9,0-1.6,0.2-2.2,0.5c-0.6,0.3-1.1,0.7-1.5,1.3c-0.4,0.5-0.7,1.2-0.9,1.9c-0.2,0.7-0.3,1.5-0.3,2.4
		s0.1,1.6,0.3,2.4c0.2,0.7,0.5,1.4,0.9,1.9c0.4,0.5,0.9,1,1.5,1.3C550.6,19.7,551.3,19.9,552.2,19.9z"/>
	<path id="XMLID_80_" class="st0" d="M561.6,12.2h7.9v1.6h-7.9V12.2z"/>
	<path id="XMLID_82_" class="st0" d="M584.3,17.1c-0.2,1.2-0.8,2.2-1.7,2.9c-0.9,0.8-2.3,1.1-4,1.1c-2,0-3.6-0.6-4.7-1.9
		c-1.1-1.3-1.7-3.1-1.7-5.3c0-1.2,0.2-2.3,0.5-3.2c0.3-0.9,0.8-1.7,1.3-2.4c0.6-0.6,1.2-1.1,2-1.4c0.8-0.3,1.6-0.5,2.5-0.5
		c1.1,0,2,0.2,2.8,0.5s1.4,0.8,1.8,1.4c0.5,0.6,0.8,1.3,1,2.1c0.2,0.8,0.3,1.7,0.3,2.7v1h-10.7c0,0.8,0.1,1.5,0.3,2.2
		c0.2,0.7,0.5,1.3,0.9,1.8c0.4,0.5,0.9,0.9,1.5,1.2c0.6,0.3,1.3,0.4,2,0.4c0.7,0,1.3-0.1,1.8-0.2s0.9-0.3,1.2-0.6
		c0.3-0.2,0.6-0.5,0.8-0.9c0.2-0.3,0.3-0.7,0.4-1.1H584.3z M582.9,12.9c0-0.8-0.1-1.4-0.2-2.1c-0.2-0.6-0.4-1.2-0.8-1.6
		s-0.8-0.8-1.3-1.1c-0.6-0.3-1.2-0.4-2-0.4c-1.3,0-2.4,0.4-3.2,1.3s-1.3,2.1-1.5,3.9H582.9z"/>
	<path id="XMLID_85_" class="st0" d="M587.8,6.9h1.6v2.3c0.8-1,1.6-1.6,2.4-2.1c0.9-0.4,1.8-0.6,2.7-0.6c1.6,0,2.8,0.4,3.5,1.3
		c0.8,0.9,1.1,2.1,1.1,3.8v9.3h-1.6v-8.8c0-1.5-0.3-2.5-0.8-3.1c-0.5-0.6-1.4-1-2.5-1c-0.5,0-1.1,0.1-1.7,0.3
		c-0.6,0.2-1.1,0.5-1.6,1c-0.5,0.5-0.9,0.9-1.2,1.4c-0.3,0.5-0.4,1.2-0.4,2v8.2h-1.6V6.9z"/>
	<path id="XMLID_87_" class="st0" d="M613.2,18.7c-0.6,0.8-1.3,1.4-2,1.8c-0.8,0.4-1.7,0.7-2.8,0.7c-1,0-1.9-0.2-2.7-0.6
		c-0.7-0.4-1.4-0.9-1.8-1.6c-0.5-0.7-0.8-1.4-1.1-2.3c-0.2-0.9-0.4-1.8-0.4-2.7c0-2.4,0.6-4.2,1.7-5.5c1.1-1.3,2.6-2,4.6-2
		c0.8,0,1.5,0.2,2.3,0.5c0.8,0.3,1.5,0.9,2.2,1.8V1.5h1.6v19.3h-1.6V18.7z M613.3,13.3c0-0.6,0-1.2-0.1-1.6
		c-0.1-0.5-0.2-0.9-0.3-1.2c-0.1-0.4-0.3-0.7-0.6-0.9s-0.5-0.5-0.9-0.8c-0.4-0.3-0.9-0.6-1.3-0.7s-0.9-0.2-1.4-0.2
		c-0.7,0-1.3,0.1-1.8,0.3s-1,0.6-1.4,1.1s-0.7,1.1-1,1.9c-0.2,0.8-0.4,1.7-0.4,2.8c0,1.1,0.1,2.1,0.4,2.8s0.6,1.4,1,1.8
		s0.9,0.8,1.4,1c0.5,0.2,1,0.3,1.6,0.3c0.6,0,1.1-0.1,1.5-0.2c0.4-0.1,0.9-0.4,1.4-0.7c0.6-0.5,1.1-1.1,1.5-1.8s0.5-1.6,0.5-2.7
		V13.3z"/>
	<path id="XMLID_90_" class="st0" d="M152.7,34.2h-2.2v-1.3h2.2v-1.6c0-0.7,0.1-1.3,0.3-1.8c0.2-0.5,0.5-0.9,0.9-1.2
		c0.4-0.3,0.8-0.6,1.2-0.7c0.5-0.2,1-0.2,1.5-0.2c0.4,0,0.7,0,1,0.1c0.3,0,0.7,0.1,1,0.2l-0.3,1.3c-0.3-0.1-0.6-0.2-0.8-0.2
		s-0.5-0.1-0.8-0.1c-0.7,0-1.3,0.2-1.8,0.6c-0.5,0.4-0.7,1-0.7,2v1.7h3.7v1.3h-3.7v12.6h-1.6V34.2z"/>
	<path id="XMLID_92_" class="st0" d="M160.2,32.9h1.6v2.3c0.6-0.8,1.2-1.4,1.9-1.8c0.7-0.4,1.5-0.6,2.3-0.6c0.2,0,0.4,0,0.6,0
		c0.2,0,0.4,0,0.6,0.1l-0.2,1.5c-0.3-0.1-0.6-0.1-0.9-0.1c-0.5,0-0.9,0.1-1.4,0.3c-0.5,0.2-0.9,0.5-1.4,0.9c-0.4,0.4-0.8,0.8-1,1.3
		c-0.3,0.5-0.4,1.1-0.4,1.8v8.4h-1.6V32.9z"/>
	<path id="XMLID_94_" class="st0" d="M177.9,44.8c-0.2,0.3-0.5,0.6-0.8,0.9s-0.7,0.5-1.1,0.7s-0.9,0.4-1.4,0.5s-1,0.2-1.6,0.2
		c-1.5,0-2.6-0.4-3.5-1.1c-0.9-0.7-1.3-1.7-1.3-3.1c0-0.9,0.2-1.7,0.6-2.3c0.4-0.6,0.9-1.1,1.6-1.4s1.4-0.6,2.2-0.7s1.7-0.2,2.6-0.3
		l2.7-0.1v-0.4c0-1.4-0.3-2.4-0.8-3c-0.5-0.6-1.5-0.9-2.8-0.9c-0.7,0-1.2,0.1-1.7,0.2c-0.5,0.1-0.8,0.3-1.1,0.5
		c-0.3,0.2-0.5,0.5-0.7,0.7c-0.2,0.3-0.3,0.6-0.4,0.9l-1.4-0.2c0.5-2.3,2.3-3.4,5.5-3.4c1,0,1.8,0.1,2.5,0.4c0.7,0.2,1.2,0.6,1.6,1
		c0.4,0.4,0.7,1,0.9,1.6s0.3,1.4,0.3,2.2v9.2h-1.6V44.8z M177.9,39.4l-2.6,0.1c-1,0-1.9,0.1-2.6,0.3c-0.7,0.2-1.3,0.4-1.7,0.6
		s-0.7,0.6-0.9,1c-0.2,0.4-0.3,0.9-0.3,1.4c0,0.8,0.2,1.5,0.7,2s1.3,0.8,2.5,0.8c0.6,0,1.2-0.1,1.8-0.2c0.6-0.1,1.1-0.4,1.4-0.7
		c0.3-0.2,0.6-0.5,0.8-0.7c0.2-0.2,0.4-0.5,0.5-0.7c0.1-0.3,0.2-0.6,0.3-0.9s0.1-0.7,0.1-1.1V39.4z"/>
	<path id="XMLID_97_" class="st0" d="M183.2,32.9h1.6v2.3c0.7-0.9,1.4-1.6,2.2-2.1c0.8-0.4,1.6-0.7,2.4-0.7c1.1,0,1.9,0.2,2.6,0.7
		c0.6,0.5,1.1,1.1,1.4,2c0.6-0.9,1.4-1.5,2.2-2c0.8-0.5,1.8-0.7,2.7-0.7c1.3,0,2.4,0.4,3.1,1.1s1.1,1.9,1.1,3.5v9.8H201v-9.2
		c0-0.7-0.1-1.3-0.2-1.8s-0.3-0.8-0.5-1.1c-0.2-0.3-0.5-0.5-0.9-0.6c-0.4-0.1-0.8-0.2-1.3-0.2c-0.4,0-0.9,0.1-1.4,0.2
		c-0.5,0.2-1,0.4-1.5,0.9c-0.4,0.3-0.8,0.8-1.1,1.2c-0.3,0.5-0.4,1.1-0.4,1.7v8.9h-1.6v-9.2c0-1.3-0.2-2.3-0.7-2.9
		c-0.5-0.6-1.2-0.9-2.1-0.9c-0.5,0-1,0.1-1.5,0.3c-0.5,0.2-0.9,0.5-1.4,1c-0.2,0.1-0.3,0.3-0.5,0.5c-0.2,0.2-0.4,0.4-0.5,0.7
		c-0.1,0.3-0.3,0.6-0.4,0.9c-0.1,0.4-0.1,0.8-0.1,1.2v8.2h-1.6V32.9z"/>
	<path id="XMLID_99_" class="st0" d="M217.9,43.1c-0.2,1.2-0.8,2.2-1.7,2.9c-0.9,0.8-2.3,1.1-4,1.1c-2,0-3.6-0.6-4.7-1.9
		c-1.1-1.3-1.7-3.1-1.7-5.3c0-1.2,0.2-2.3,0.5-3.2c0.3-0.9,0.8-1.7,1.3-2.4c0.6-0.6,1.2-1.1,2-1.4c0.8-0.3,1.6-0.5,2.5-0.5
		c1.1,0,2,0.2,2.8,0.5s1.4,0.8,1.8,1.4c0.5,0.6,0.8,1.3,1,2.1c0.2,0.8,0.3,1.7,0.3,2.7v1h-10.7c0,0.8,0.1,1.5,0.3,2.2
		s0.5,1.3,0.9,1.8c0.4,0.5,0.9,0.9,1.5,1.2c0.6,0.3,1.3,0.4,2,0.4c0.7,0,1.3-0.1,1.8-0.2s0.9-0.3,1.2-0.6c0.3-0.2,0.6-0.5,0.8-0.9
		c0.2-0.3,0.3-0.7,0.4-1.1H217.9z M216.5,38.9c0-0.8-0.1-1.4-0.2-2.1c-0.2-0.6-0.4-1.2-0.8-1.6s-0.8-0.8-1.3-1.1
		c-0.6-0.3-1.2-0.4-2-0.4c-1.3,0-2.4,0.4-3.2,1.3s-1.3,2.1-1.5,3.9H216.5z"/>
	<path id="XMLID_102_" class="st0" d="M219.7,32.9h1.7l3.2,12.2l3.5-12.1h1.8l3.5,12.1l3.2-12.2h1.7l-4.1,13.9h-1.8l-3.5-12.2
		l-3.5,12.2h-1.8L219.7,32.9z"/>
	<path id="XMLID_104_" class="st0" d="M246.6,47.2c-1,0-1.9-0.2-2.7-0.5s-1.5-0.8-2-1.5c-0.5-0.6-1-1.4-1.3-2.3
		c-0.3-0.9-0.4-1.9-0.4-3c0-1.1,0.2-2.2,0.5-3.1c0.3-0.9,0.8-1.7,1.3-2.3c0.6-0.6,1.3-1.1,2.1-1.5c0.8-0.4,1.7-0.5,2.7-0.5
		s1.9,0.2,2.7,0.5c0.8,0.3,1.5,0.8,2.1,1.5c0.6,0.6,1,1.4,1.3,2.3s0.4,1.9,0.4,3c0,1.1-0.2,2.2-0.5,3.1s-0.7,1.7-1.3,2.4
		c-0.6,0.7-1.3,1.2-2.1,1.5C248.6,47,247.7,47.2,246.6,47.2z M246.7,45.9c0.9,0,1.6-0.2,2.2-0.5c0.6-0.3,1.1-0.7,1.5-1.3
		c0.4-0.5,0.7-1.2,0.9-1.9c0.2-0.7,0.3-1.5,0.3-2.4c0-0.8-0.1-1.6-0.3-2.3c-0.2-0.7-0.5-1.4-0.9-1.9c-0.4-0.5-0.9-1-1.5-1.3
		c-0.6-0.3-1.4-0.5-2.2-0.5c-0.9,0-1.6,0.2-2.2,0.5c-0.6,0.3-1.1,0.7-1.5,1.3c-0.4,0.5-0.7,1.2-0.9,1.9c-0.2,0.7-0.3,1.5-0.3,2.4
		s0.1,1.6,0.3,2.4c0.2,0.7,0.5,1.4,0.9,1.9c0.4,0.5,0.9,1,1.5,1.3C245.1,45.7,245.8,45.9,246.7,45.9z"/>
	<path id="XMLID_107_" class="st0" d="M256.6,32.9h1.6v2.3c0.6-0.8,1.2-1.4,1.9-1.8c0.7-0.4,1.5-0.6,2.3-0.6c0.2,0,0.4,0,0.6,0
		c0.2,0,0.4,0,0.6,0.1l-0.2,1.5c-0.3-0.1-0.6-0.1-0.9-0.1c-0.5,0-0.9,0.1-1.4,0.3c-0.5,0.2-0.9,0.5-1.4,0.9c-0.4,0.4-0.8,0.8-1,1.3
		c-0.3,0.5-0.4,1.1-0.4,1.8v8.4h-1.6V32.9z"/>
	<path id="XMLID_109_" class="st0" d="M265.7,27.5h1.6v11.9l7.2-6.5h1.9l-4.9,4.6l5.5,9.3h-1.9l-4.9-8.3l-3,2.7v5.7h-1.6V27.5z"/>
	<path id="XMLID_111_" class="st0" d="M285.8,34.2h-2.2v-1.3h2.2v-1.6c0-0.7,0.1-1.3,0.3-1.8c0.2-0.5,0.5-0.9,0.9-1.2
		c0.4-0.3,0.8-0.6,1.2-0.7c0.5-0.2,1-0.2,1.5-0.2c0.4,0,0.7,0,1,0.1c0.3,0,0.7,0.1,1,0.2l-0.3,1.3c-0.3-0.1-0.6-0.2-0.8-0.2
		s-0.5-0.1-0.8-0.1c-0.7,0-1.3,0.2-1.8,0.6c-0.5,0.4-0.7,1-0.7,2v1.7h3.7v1.3h-3.7v12.6h-1.6V34.2z"/>
	<path id="XMLID_113_" class="st0" d="M298.8,47.2c-1,0-1.9-0.2-2.7-0.5s-1.5-0.8-2-1.5c-0.5-0.6-1-1.4-1.3-2.3
		c-0.3-0.9-0.4-1.9-0.4-3c0-1.1,0.2-2.2,0.5-3.1c0.3-0.9,0.8-1.7,1.3-2.3c0.6-0.6,1.3-1.1,2.1-1.5c0.8-0.4,1.7-0.5,2.7-0.5
		s1.9,0.2,2.7,0.5c0.8,0.3,1.5,0.8,2.1,1.5c0.6,0.6,1,1.4,1.3,2.3s0.4,1.9,0.4,3c0,1.1-0.2,2.2-0.5,3.1s-0.7,1.7-1.3,2.4
		c-0.6,0.7-1.3,1.2-2.1,1.5C300.7,47,299.8,47.2,298.8,47.2z M298.8,45.9c0.9,0,1.6-0.2,2.2-0.5c0.6-0.3,1.1-0.7,1.5-1.3
		c0.4-0.5,0.7-1.2,0.9-1.9c0.2-0.7,0.3-1.5,0.3-2.4c0-0.8-0.1-1.6-0.3-2.3c-0.2-0.7-0.5-1.4-0.9-1.9c-0.4-0.5-0.9-1-1.5-1.3
		c-0.6-0.3-1.4-0.5-2.2-0.5c-0.9,0-1.6,0.2-2.2,0.5c-0.6,0.3-1.1,0.7-1.5,1.3c-0.4,0.5-0.7,1.2-0.9,1.9c-0.2,0.7-0.3,1.5-0.3,2.4
		s0.1,1.6,0.3,2.4c0.2,0.7,0.5,1.4,0.9,1.9c0.4,0.5,0.9,1,1.5,1.3C297.2,45.7,298,45.9,298.8,45.9z"/>
	<path id="XMLID_116_" class="st0" d="M308.7,32.9h1.6v2.3c0.6-0.8,1.2-1.4,1.9-1.8c0.7-0.4,1.5-0.6,2.3-0.6c0.2,0,0.4,0,0.6,0
		c0.2,0,0.4,0,0.6,0.1l-0.2,1.5c-0.3-0.1-0.6-0.1-0.9-0.1c-0.5,0-0.9,0.1-1.4,0.3c-0.5,0.2-0.9,0.5-1.4,0.9c-0.4,0.4-0.8,0.8-1,1.3
		c-0.3,0.5-0.4,1.1-0.4,1.8v8.4h-1.6V32.9z"/>
	<path id="XMLID_118_" class="st0" d="M324.2,27.5h6.5c1.4,0,2.6,0.2,3.6,0.6s2,1,2.7,1.8s1.3,1.8,1.7,3c0.4,1.2,0.6,2.6,0.6,4.2
		c0,1.6-0.2,3.1-0.6,4.3c-0.4,1.2-1.1,2.2-1.9,3.1c-0.8,0.8-1.8,1.4-2.9,1.8c-1.2,0.4-2.4,0.6-3.9,0.6h-5.9V27.5z M330.2,45.3
		c2.6,0,4.5-0.7,5.7-2.1s1.8-3.5,1.8-6.1c0-2.6-0.6-4.6-1.7-6c-1.1-1.4-2.9-2.1-5.3-2.1h-4.9v16.4H330.2z"/>
	<path id="XMLID_121_" class="st0" d="M351.7,44.8c-0.2,0.3-0.5,0.6-0.8,0.9s-0.7,0.5-1.1,0.7s-0.9,0.4-1.4,0.5s-1,0.2-1.6,0.2
		c-1.5,0-2.6-0.4-3.5-1.1c-0.9-0.7-1.3-1.7-1.3-3.1c0-0.9,0.2-1.7,0.6-2.3c0.4-0.6,0.9-1.1,1.6-1.4s1.4-0.6,2.2-0.7s1.7-0.2,2.6-0.3
		l2.7-0.1v-0.4c0-1.4-0.3-2.4-0.8-3c-0.5-0.6-1.5-0.9-2.8-0.9c-0.7,0-1.2,0.1-1.7,0.2c-0.5,0.1-0.8,0.3-1.1,0.5
		c-0.3,0.2-0.5,0.5-0.7,0.7c-0.2,0.3-0.3,0.6-0.4,0.9l-1.4-0.2c0.5-2.3,2.3-3.4,5.5-3.4c1,0,1.8,0.1,2.5,0.4c0.7,0.2,1.2,0.6,1.6,1
		c0.4,0.4,0.7,1,0.9,1.6s0.3,1.4,0.3,2.2v9.2h-1.6V44.8z M351.7,39.4l-2.6,0.1c-1,0-1.9,0.1-2.6,0.3c-0.7,0.2-1.3,0.4-1.7,0.6
		s-0.7,0.6-0.9,1c-0.2,0.4-0.3,0.9-0.3,1.4c0,0.8,0.2,1.5,0.7,2s1.3,0.8,2.5,0.8c0.6,0,1.2-0.1,1.8-0.2c0.6-0.1,1.1-0.4,1.4-0.7
		c0.3-0.2,0.6-0.5,0.8-0.7c0.2-0.2,0.4-0.5,0.5-0.7c0.1-0.3,0.2-0.6,0.3-0.9s0.1-0.7,0.1-1.1V39.4z"/>
	<path id="XMLID_124_" class="st0" d="M357,32.9h1.6v2.3c0.6-0.8,1.2-1.4,1.9-1.8c0.7-0.4,1.5-0.6,2.3-0.6c0.2,0,0.4,0,0.6,0
		c0.2,0,0.4,0,0.6,0.1l-0.2,1.5c-0.3-0.1-0.6-0.1-0.9-0.1c-0.5,0-0.9,0.1-1.4,0.3c-0.5,0.2-0.9,0.5-1.4,0.9c-0.4,0.4-0.8,0.8-1,1.3
		c-0.3,0.5-0.4,1.1-0.4,1.8v8.4H357V32.9z"/>
	<path id="XMLID_126_" class="st0" d="M367.6,34.2h-2.2v-1.3h2.2V29h1.6v3.8h3.9v1.3h-3.9v9.1c0,0.7,0.1,1.3,0.4,1.7
		c0.3,0.5,0.8,0.7,1.5,0.7c0.5,0,0.9,0,1.2-0.1c0.3-0.1,0.6-0.2,0.9-0.2l0.3,1.3c-0.3,0.1-0.6,0.2-1,0.3c-0.4,0.1-0.9,0.1-1.5,0.1
		c-0.8,0-1.4-0.1-1.9-0.4c-0.5-0.3-0.8-0.6-1-1.1c-0.2-0.4-0.4-0.9-0.4-1.5c-0.1-0.6-0.1-1.2-0.1-1.8V34.2z"/>
</g>
<g id="XMLID_4_">
	<g>
		<defs>
			<rect id="XMLID_144_" x="0.7" y="-1.4" width="119.3" height="48.4"/>
		</defs>
		<clipPath id="XMLID_143_">
			<use xlink:href="#XMLID_144_"  style="overflow:visible;"/>
		</clipPath>
		<g class="st1">
			<defs>
				<rect id="XMLID_145_" x="0.7" y="-1.4" width="119.3" height="48.4"/>
			</defs>
			<clipPath id="XMLID_157_">
				<use xlink:href="#XMLID_145_"  style="overflow:visible;"/>
			</clipPath>
			<path class="st2" d="M0.7,30.9c0-1.1,0.9-2,2-2h6.3c2,0,3.6,0.6,4.7,1.6c0.8,0.8,1.2,1.8,1.2,3v0.1c0,2-1.1,3.1-2.3,3.8
				c2.1,0.8,3.3,2,3.3,4.4v0.1c0,3.3-2.6,4.9-6.7,4.9H2.6c-1.1,0-2-0.9-2-2V30.9z M8.1,36.1c1.7,0,2.8-0.6,2.8-1.9v-0.1
				c0-1.2-0.9-1.8-2.6-1.8H4.5v3.8H8.1z M9.1,43.3c1.7,0,2.8-0.6,2.8-1.9v-0.1c0-1.2-0.9-1.9-2.9-1.9H4.5v3.9H9.1z"/>
			<path class="st2" d="M23.2,30.9c0-1.1,0.9-2,2-2h6.2c2.3,0,4,0.6,5.2,1.8c1,1,1.5,2.4,1.5,4.1v0.1c0,2.8-1.4,4.5-3.6,5.4l2.7,3.3
				c0.4,0.5,0.6,0.9,0.6,1.5c0,1.1-0.9,1.8-1.9,1.8c-0.9,0-1.5-0.4-1.9-1L30.3,41h-3.1v3.9c0,1.1-0.9,2-2,2c-1.1,0-2-0.9-2-2V30.9z
				 M31.1,37.5c1.9,0,3-1,3-2.5V35c0-1.7-1.2-2.5-3.1-2.5h-3.9v5.1H31.1z"/>
			<path id="XMLID_151_" class="st2" d="M45.9,30.7c0-1.1,0.9-2,2-2c1.1,0,2,0.9,2,2v14.2c0,1.1-0.9,2-2,2c-1.1,0-2-0.9-2-2V30.7z"
				/>
			<path class="st2" d="M58.4,30.9c0-1.1,0.9-2,2-2h5c5.6,0,9.5,3.8,9.5,8.9v0.1c0,5-3.9,8.9-9.5,8.9h-5c-1.1,0-2-0.9-2-2V30.9z
				 M65.3,43.2c3.2,0,5.4-2.2,5.4-5.3v-0.1c0-3.2-2.2-5.4-5.4-5.4h-3v10.7H65.3z"/>
			<path id="XMLID_148_" class="st2" d="M81.4,37.9L81.4,37.9c0-5.1,3.9-9.3,9.3-9.3c2.7,0,4.5,0.6,6.1,1.7c0.4,0.3,0.8,0.8,0.8,1.6
				c0,1.1-0.9,1.9-1.9,1.9c-0.6,0-0.9-0.2-1.2-0.4c-1.1-0.8-2.2-1.2-3.9-1.2c-2.8,0-5.1,2.5-5.1,5.5v0.1c0,3.3,2.2,5.6,5.4,5.6
				c1.4,0,2.7-0.4,3.7-1.1v-2.5h-2.6c-0.9,0-1.7-0.7-1.7-1.7c0-0.9,0.8-1.7,1.7-1.7h4.5c1.1,0,2,0.9,2,2v4.3c0,1.1-0.4,1.9-1.4,2.5
				c-1.5,0.9-3.6,1.8-6.2,1.8C85.2,47,81.4,43.1,81.4,37.9"/>
			<path id="XMLID_147_" class="st2" d="M106.3,44.7V30.9c0-1.1,0.9-2,2-2h9.9c1,0,1.8,0.8,1.8,1.8c0,1-0.8,1.7-1.8,1.7h-7.9V36h6.8
				c1,0,1.8,0.8,1.8,1.8c0,1-0.8,1.7-1.8,1.7h-6.8v3.7h8.1c1,0,1.8,0.8,1.8,1.8c0,1-0.8,1.7-1.8,1.7h-10
				C107.2,46.7,106.3,45.8,106.3,44.7"/>
			<path id="XMLID_146_" class="st2" d="M117.5,18.7C101,5.6,81.1-1.4,60-1.4c-21.1,0-41,6.9-57.5,20.1c-0.9,0.7-1,2-0.3,2.9
				c0.7,0.9,2,1,2.9,0.3c7.9-6.3,16.6-11,25.8-14.3v12.7c0,1.1,0.9,2,2,2c1.1,0,2-0.9,2-2v-14C42.3,4.1,50.1,2.9,58,2.8v17.5
				c0,1.1,0.9,2,2,2c1.1,0,2-0.9,2-2V2.8C70,2.9,77.7,4.1,85.1,6.3v14c0,1.1,0.9,2,2,2c1.1,0,2-0.9,2-2V7.6
				c9.2,3.2,17.9,8,25.8,14.3c0.4,0.3,0.8,0.4,1.3,0.4c0.6,0,1.2-0.3,1.6-0.8C118.6,20.7,118.4,19.4,117.5,18.7"/>
		</g>
	</g>
</g>
<g id="XMLID_1_">
</g>
<g id="XMLID_2_">
</g>
<g id="XMLID_128_">
</g>
<g id="XMLID_129_">
</g>
<g id="XMLID_130_">
</g>
<g id="XMLID_131_">
</g>
<g id="XMLID_132_">
</g>
<g id="XMLID_133_">
</g>
<g id="XMLID_134_">
</g>
<g id="XMLID_135_">
</g>
<g id="XMLID_136_">
</g>
<g id="XMLID_137_">
</g>
<g id="XMLID_138_">
</g>
<g id="XMLID_139_">
</g>
<g id="XMLID_140_">
</g>
</svg>
