<?xml version="1.0" encoding="utf-8"?>
<!-- Generator: Adobe Illustrator 19.0.0, SVG Export Plug-In . SVG Version: 6.00 Build 0)  -->
<svg version="1.0" id="Layer_1" xmlns="http://www.w3.org/2000/svg" xmlns:xlink="http://www.w3.org/1999/xlink" x="0px" y="0px"
	 viewBox="0 0 940.7 850.8" enable-background="new 0 0 940.7 850.8" xml:space="preserve">
<g id="XMLID_55_">
	<g id="XMLID_164_">
		
			<line id="XMLID_176_" fill="none" stroke="#FF0050" stroke-width="6" stroke-linecap="round" stroke-linejoin="round" x1="464.4" y1="100.5" x2="464.4" y2="100.5"/>
		
			<line id="XMLID_175_" fill="none" stroke="#FF0050" stroke-width="6" stroke-linecap="round" stroke-linejoin="round" stroke-dasharray="0,11.9351" x1="464.3" y1="112.4" x2="463.4" y2="321.3"/>
		
			<line id="XMLID_174_" fill="none" stroke="#FF0050" stroke-width="6" stroke-linecap="round" stroke-linejoin="round" x1="463.4" y1="327.2" x2="463.4" y2="327.2"/>
	</g>
</g>
<g id="XMLID_40_">
	<g id="XMLID_154_">
		
			<line id="XMLID_160_" fill="none" stroke="#FF0050" stroke-width="6" stroke-linecap="round" stroke-linejoin="round" x1="689.5" y1="471.9" x2="689.5" y2="471.9"/>
		
			<line id="XMLID_157_" fill="none" stroke="#FF0050" stroke-width="6" stroke-linecap="round" stroke-linejoin="round" stroke-dasharray="0,12.2051" x1="679.2" y1="478.6" x2="500" y2="594.7"/>
		
			<line id="XMLID_155_" fill="none" stroke="#FF0050" stroke-width="6" stroke-linecap="round" stroke-linejoin="round" x1="494.8" y1="598" x2="494.8" y2="598"/>
	</g>
</g>
<g id="XMLID_70_">
	<g id="XMLID_148_">
		
			<line id="XMLID_162_" fill="none" stroke="#FF0050" stroke-width="6" stroke-linecap="round" stroke-linejoin="round" x1="471.8" y1="333.3" x2="471.8" y2="333.3"/>
		
			<line id="XMLID_161_" fill="none" stroke="#FF0050" stroke-width="6" stroke-linecap="round" stroke-linejoin="round" stroke-dasharray="0,12.1408" x1="465.7" y1="343.8" x2="249.1" y2="716.4"/>
		
			<line id="XMLID_149_" fill="none" stroke="#FF0050" stroke-width="6" stroke-linecap="round" stroke-linejoin="round" x1="246" y1="721.6" x2="246" y2="721.6"/>
	</g>
</g>
<g id="XMLID_98_">
	<g id="XMLID_102_">
		
			<line id="XMLID_153_" fill="none" stroke="#FF0050" stroke-width="6" stroke-linecap="round" stroke-linejoin="round" x1="494.8" y1="598" x2="494.8" y2="598"/>
		
			<line id="XMLID_152_" fill="none" stroke="#FF0050" stroke-width="6" stroke-linecap="round" stroke-linejoin="round" stroke-dasharray="0,12.0996" x1="491.5" y1="609.6" x2="459.5" y2="720"/>
		
			<line id="XMLID_115_" fill="none" stroke="#FF0050" stroke-width="6" stroke-linecap="round" stroke-linejoin="round" x1="457.8" y1="725.8" x2="457.8" y2="725.8"/>
	</g>
</g>
<g id="XMLID_179_">
	<g id="XMLID_178_">
		
			<line id="XMLID_182_" fill="none" stroke="#FF0050" stroke-width="6" stroke-linecap="round" stroke-linejoin="round" x1="463.4" y1="327.2" x2="463.4" y2="327.2"/>
		
			<line id="XMLID_181_" fill="none" stroke="#FF0050" stroke-width="6" stroke-linecap="round" stroke-linejoin="round" stroke-dasharray="0,11.963" x1="473.2" y1="334" x2="684.6" y2="480.6"/>
		
			<line id="XMLID_180_" fill="none" stroke="#FF0050" stroke-width="6" stroke-linecap="round" stroke-linejoin="round" x1="689.5" y1="484" x2="689.5" y2="484"/>
	</g>
</g>
<g id="XMLID_165_">
	<g id="XMLID_126_">
		
			<line id="XMLID_130_" fill="none" stroke="#FF0050" stroke-width="6" stroke-linecap="round" stroke-linejoin="round" x1="689.5" y1="484" x2="689.5" y2="484"/>
		
			<line id="XMLID_129_" fill="none" stroke="#FF0050" stroke-width="6" stroke-linecap="round" stroke-linejoin="round" stroke-dasharray="0,12.1197" x1="690" y1="496.1" x2="701.2" y2="744.3"/>
		
			<line id="XMLID_128_" fill="none" stroke="#FF0050" stroke-width="6" stroke-linecap="round" stroke-linejoin="round" x1="701.5" y1="750.4" x2="701.5" y2="750.4"/>
	</g>
</g>
<g id="XMLID_71_">
	<g id="XMLID_134_">
		
			<line id="XMLID_156_" fill="none" stroke="#FF0050" stroke-width="6" stroke-linecap="round" stroke-linejoin="round" x1="410.5" y1="751" x2="410.5" y2="751"/>
		
			<line id="XMLID_150_" fill="none" stroke="#FF0050" stroke-width="6" stroke-linecap="round" stroke-linejoin="round" stroke-dasharray="0,11.8972" x1="398.6" y1="751" x2="285.6" y2="751"/>
		
			<line id="XMLID_135_" fill="none" stroke="#FF0050" stroke-width="6" stroke-linecap="round" stroke-linejoin="round" x1="279.6" y1="751" x2="279.6" y2="751"/>
	</g>
</g>
<g id="XMLID_123_">
	<g id="XMLID_151_">
		
			<line id="XMLID_166_" fill="none" stroke="#FF0050" stroke-width="6" stroke-linecap="round" stroke-linejoin="round" x1="679.3" y1="751" x2="679.3" y2="751"/>
		
			<line id="XMLID_159_" fill="none" stroke="#FF0050" stroke-width="6" stroke-linecap="round" stroke-linejoin="round" stroke-dasharray="0,12.2864" x1="667" y1="751" x2="501.2" y2="751"/>
		
			<line id="XMLID_158_" fill="none" stroke="#FF0050" stroke-width="6" stroke-linecap="round" stroke-linejoin="round" x1="495" y1="751" x2="495" y2="751"/>
	</g>
</g>
<g id="XMLID_45_">
	<g id="XMLID_184_">
		<linearGradient id="XMLID_448_" gradientUnits="userSpaceOnUse" x1="226.4586" y1="100.4572" x2="367.6927" y2="100.4572">
			<stop  offset="0" style="stop-color:#FF0050;stop-opacity:0"/>
			<stop  offset="1" style="stop-color:#FF0050"/>
		</linearGradient>
		
			<line id="XMLID_190_" fill="none" stroke="url(#XMLID_448_)" stroke-width="6" stroke-linecap="round" stroke-linejoin="round" x1="229.5" y1="100.5" x2="229.5" y2="100.5"/>
		<linearGradient id="XMLID_449_" gradientUnits="userSpaceOnUse" x1="226.4586" y1="100.4572" x2="367.6927" y2="100.4572">
			<stop  offset="0" style="stop-color:#FF0050;stop-opacity:0"/>
			<stop  offset="1" style="stop-color:#FF0050"/>
		</linearGradient>
		
			<line id="XMLID_189_" fill="none" stroke="url(#XMLID_449_)" stroke-width="6" stroke-linecap="round" stroke-linejoin="round" stroke-dasharray="0,12.294" x1="241.8" y1="100.5" x2="358.5" y2="100.5"/>
		<linearGradient id="XMLID_450_" gradientUnits="userSpaceOnUse" x1="226.4586" y1="100.4572" x2="367.6927" y2="100.4572">
			<stop  offset="0" style="stop-color:#FF0050;stop-opacity:0"/>
			<stop  offset="1" style="stop-color:#FF0050"/>
		</linearGradient>
		
			<line id="XMLID_188_" fill="none" stroke="url(#XMLID_450_)" stroke-width="6" stroke-linecap="round" stroke-linejoin="round" x1="364.7" y1="100.5" x2="364.7" y2="100.5"/>
	</g>
</g>
<g id="XMLID_50_">
	<g id="XMLID_41_">
		<circle id="XMLID_43_" fill="#FF0050" cx="464.4" cy="100.5" r="100.5"/>
	</g>
	<g id="XMLID_100_">
		<g id="XMLID_101_">
			<path id="XMLID_418_" fill="#FFFFFF" d="M415.8,104.6c0.1,1.5,0.6,2.6,1.4,3.3s2.1,1,3.8,1c0.8,0,1.5-0.1,2-0.3
				c0.5-0.2,1-0.4,1.3-0.7c0.3-0.3,0.6-0.6,0.7-1c0.1-0.4,0.2-0.8,0.2-1.3c0-0.6-0.2-1.2-0.7-1.8c-0.5-0.6-1.3-1-2.6-1.2l-3.2-0.6
				c-1.2-0.2-2.3-0.5-3.3-0.9c-1-0.4-1.7-0.8-2.4-1.4c-0.6-0.6-1.1-1.3-1.5-2.1c-0.3-0.8-0.5-1.8-0.5-3c0-1.2,0.2-2.2,0.7-3.1
				s1.1-1.6,1.9-2.2s1.8-1,3-1.3c1.2-0.3,2.4-0.5,3.8-0.5c1.8,0,3.2,0.2,4.4,0.6s2.1,0.9,2.9,1.6c0.7,0.7,1.3,1.4,1.6,2.3
				c0.4,0.9,0.6,1.8,0.7,2.7l-4.8,0.6c-0.2-1.3-0.7-2.3-1.4-2.9c-0.7-0.6-1.8-0.9-3.2-0.9c-0.9,0-1.6,0.1-2.1,0.2
				c-0.6,0.1-1,0.3-1.3,0.6c-0.3,0.2-0.6,0.5-0.7,0.8c-0.1,0.3-0.2,0.6-0.2,1c0,0.9,0.3,1.6,0.8,2c0.5,0.5,1.4,0.8,2.6,1.1l3.3,0.6
				c2.6,0.5,4.5,1.4,5.8,2.5c1.2,1.2,1.8,2.8,1.8,5c0,1.1-0.2,2-0.6,2.9c-0.4,0.9-1,1.7-1.8,2.3c-0.8,0.7-1.8,1.2-2.9,1.6
				c-1.2,0.4-2.6,0.6-4.1,0.6c-3.3,0-5.8-0.7-7.6-2.1c-1.8-1.4-2.7-3.5-2.8-6.4H415.8z"/>
			<path id="XMLID_420_" fill="#FFFFFF" d="M449.9,107c-0.3,2-1.1,3.5-2.4,4.5c-1.3,1-3.1,1.5-5.6,1.5c-2.9,0-5.2-0.8-6.6-2.4
				c-1.5-1.6-2.2-3.9-2.2-6.9c0-1.5,0.2-2.8,0.6-4c0.4-1.2,1-2.2,1.8-3c0.8-0.8,1.7-1.4,2.8-1.8c1.1-0.4,2.3-0.6,3.6-0.6
				c2.7,0,4.8,0.8,6.1,2.3c1.4,1.6,2.1,3.7,2.1,6.3v1.9h-12.3c0,1.4,0.4,2.5,1.1,3.3s1.7,1.2,3.1,1.2c1.9,0,3-0.8,3.3-2.4H449.9z
				 M445.6,101.7c0-1.2-0.3-2.2-0.9-2.9s-1.5-1-2.8-1c-0.6,0-1.2,0.1-1.7,0.3s-0.9,0.5-1.2,0.8c-0.3,0.4-0.6,0.8-0.8,1.2
				c-0.2,0.5-0.3,1-0.3,1.5H445.6z"/>
			<path id="XMLID_423_" fill="#FFFFFF" d="M453.7,94.8h4.6v2.5c0.6-0.9,1.3-1.6,2.1-2.1c0.8-0.5,1.7-0.7,2.6-0.7
				c0.5,0,0.8,0,1.1,0.1c0.3,0,0.6,0.1,0.8,0.1l-0.6,4.3c-0.5-0.1-1.2-0.2-2-0.2c-0.5,0-1,0.1-1.5,0.2c-0.5,0.1-0.9,0.4-1.3,0.7
				c-0.4,0.4-0.7,0.8-0.9,1.2c-0.2,0.5-0.3,0.9-0.3,1.4v10.3h-4.8V94.8z"/>
			<path id="XMLID_425_" fill="#FFFFFF" d="M466.8,94.8h5.5l4,12.3l4-12.3h5.3l-7,17.7h-4.8L466.8,94.8z"/>
			<path id="XMLID_427_" fill="#FFFFFF" d="M503.1,107c-0.3,2-1.1,3.5-2.4,4.5c-1.3,1-3.1,1.5-5.6,1.5c-2.9,0-5.2-0.8-6.6-2.4
				c-1.5-1.6-2.2-3.9-2.2-6.9c0-1.5,0.2-2.8,0.6-4c0.4-1.2,1-2.2,1.8-3s1.7-1.4,2.8-1.8c1.1-0.4,2.3-0.6,3.6-0.6
				c2.7,0,4.8,0.8,6.1,2.3s2.1,3.7,2.1,6.3v1.9H491c0,1.4,0.4,2.5,1.1,3.3s1.7,1.2,3.1,1.2c1.9,0,3-0.8,3.3-2.4H503.1z M498.7,101.7
				c0-1.2-0.3-2.2-0.9-2.9c-0.6-0.7-1.5-1-2.8-1c-0.6,0-1.2,0.1-1.7,0.3c-0.5,0.2-0.9,0.5-1.2,0.8c-0.3,0.4-0.6,0.8-0.8,1.2
				c-0.2,0.5-0.3,1-0.3,1.5H498.7z"/>
			<path id="XMLID_430_" fill="#FFFFFF" d="M506.9,94.8h4.6v2.5c0.6-0.9,1.3-1.6,2.1-2.1c0.8-0.5,1.7-0.7,2.6-0.7
				c0.5,0,0.8,0,1.1,0.1c0.3,0,0.6,0.1,0.8,0.1l-0.6,4.3c-0.5-0.1-1.2-0.2-2-0.2c-0.5,0-1,0.1-1.5,0.2c-0.5,0.1-0.9,0.4-1.3,0.7
				c-0.4,0.4-0.7,0.8-0.9,1.2c-0.2,0.5-0.3,0.9-0.3,1.4v10.3h-4.8V94.8z"/>
		</g>
	</g>
</g>
<g id="XMLID_103_">
	<circle id="XMLID_106_" fill="#FF0050" cx="246" cy="750.4" r="100.5"/>
	<g id="XMLID_105_">
		<path id="XMLID_403_" fill="#FFFFFF" d="M194,738.2h8.6c1.9,0,3.5,0.2,4.7,0.7c1.2,0.4,2.2,1,2.9,1.7s1.2,1.5,1.5,2.4
			s0.4,1.7,0.4,2.6c0,1.6-0.3,2.9-0.8,3.9c-0.6,1.1-1.5,2-2.9,2.7l4.9,10.3h-5.5l-4.1-9.1h-0.8H199v9.1h-5V738.2z M202.9,749.1
			c0.8,0,1.4-0.1,2-0.3c0.5-0.2,0.9-0.4,1.2-0.7s0.5-0.7,0.6-1.1s0.2-0.9,0.2-1.4c0-0.4-0.1-0.8-0.2-1.2c-0.1-0.4-0.4-0.7-0.7-1.1
			c-0.3-0.3-0.8-0.5-1.4-0.7c-0.6-0.2-1.3-0.3-2.2-0.3H199v6.8H202.9z"/>
		<path id="XMLID_406_" fill="#FFFFFF" d="M223.4,763c-2.9,0-5.1-0.8-6.6-2.4s-2.3-4-2.3-7c0-1.4,0.2-2.8,0.6-3.9
			c0.4-1.2,1-2.2,1.8-3s1.7-1.4,2.8-1.8s2.3-0.6,3.7-0.6c1.4,0,2.6,0.2,3.7,0.6c1.1,0.4,2.1,1,2.8,1.8c0.8,0.8,1.4,1.8,1.8,3
			c0.4,1.2,0.6,2.5,0.6,3.9c0,1.5-0.2,2.8-0.6,4s-1,2.2-1.8,3s-1.7,1.4-2.8,1.9C226,762.8,224.8,763,223.4,763z M223.4,759.2
			c1.4,0,2.4-0.5,3-1.5c0.7-1,1-2.4,1-4.2s-0.3-3.2-1-4.1c-0.7-1-1.7-1.4-3-1.4c-1.4,0-2.4,0.5-3,1.4c-0.7,1-1,2.3-1,4.1
			c0,1.8,0.3,3.2,1,4.2C221,758.7,222.1,759.2,223.4,759.2z"/>
		<path id="XMLID_409_" fill="#FFFFFF" d="M235.8,744.7h4.8v11.1c0,1.3,0.2,2.1,0.7,2.6c0.5,0.4,1.1,0.7,1.9,0.7
			c0.6,0,1.1-0.1,1.5-0.3c0.4-0.2,0.8-0.4,1.1-0.8c0.4-0.3,0.7-0.7,0.9-1.1s0.3-0.9,0.3-1.4v-10.7h4.8v17.7h-4.6V760
			c-0.7,1-1.5,1.8-2.5,2.3c-0.9,0.5-1.9,0.7-2.9,0.7c-2,0-3.5-0.5-4.4-1.6s-1.4-2.7-1.4-5V744.7z"/>
		<path id="XMLID_411_" fill="#FFFFFF" d="M257,748.4h-2.8v-3.7h2.8V740h4.8v4.7h4.1v3.7h-4.1v8.2c0,0.9,0.2,1.6,0.6,1.9
			c0.4,0.3,0.9,0.5,1.5,0.5c0.3,0,0.6,0,1-0.1c0.3,0,0.6-0.1,1-0.2l0.7,3.5c-0.7,0.2-1.3,0.3-1.9,0.4c-0.6,0.1-1.2,0.1-1.8,0.1
			c-1.9,0-3.4-0.5-4.3-1.4c-0.9-0.9-1.4-2.5-1.4-4.7V748.4z"/>
		<path id="XMLID_413_" fill="#FFFFFF" d="M284.7,756.9c-0.3,2-1.1,3.5-2.4,4.5c-1.3,1-3.1,1.5-5.6,1.5c-2.9,0-5.2-0.8-6.6-2.4
			c-1.5-1.6-2.2-3.9-2.2-6.9c0-1.5,0.2-2.8,0.6-4c0.4-1.2,1-2.2,1.8-3s1.7-1.4,2.8-1.8c1.1-0.4,2.3-0.6,3.6-0.6
			c2.7,0,4.8,0.8,6.1,2.3c1.4,1.6,2.1,3.7,2.1,6.3v1.9h-12.3c0,1.4,0.4,2.5,1.1,3.3s1.7,1.2,3.1,1.2c1.9,0,3-0.8,3.3-2.4H284.7z
			 M280.3,751.6c0-1.2-0.3-2.2-0.9-2.9c-0.6-0.7-1.5-1-2.8-1c-0.6,0-1.2,0.1-1.7,0.3c-0.5,0.2-0.9,0.5-1.2,0.8s-0.6,0.8-0.8,1.2
			c-0.2,0.5-0.3,1-0.3,1.5H280.3z"/>
		<path id="XMLID_416_" fill="#FFFFFF" d="M288.4,744.7h4.6v2.5c0.6-0.9,1.3-1.6,2.1-2.1s1.7-0.7,2.6-0.7c0.5,0,0.8,0,1.1,0.1
			s0.6,0.1,0.8,0.1l-0.6,4.3c-0.5-0.1-1.2-0.2-2-0.2c-0.5,0-1,0.1-1.5,0.2c-0.5,0.1-0.9,0.4-1.3,0.7c-0.4,0.4-0.7,0.8-0.9,1.2
			c-0.2,0.5-0.3,0.9-0.3,1.4v10.2h-4.8V744.7z"/>
	</g>
</g>
<g id="XMLID_120_">
	<circle id="XMLID_122_" fill="#7596FF" cx="701.5" cy="750.4" r="100.5"/>
	<g id="XMLID_121_">
		<path id="XMLID_390_" fill="#FFFFFF" d="M656.5,738.2h8.6c1.9,0,3.5,0.2,4.7,0.7s2.2,1,2.9,1.7c0.7,0.7,1.2,1.5,1.5,2.4
			c0.3,0.9,0.4,1.7,0.4,2.6c0,1.6-0.3,2.9-0.8,3.9c-0.6,1.1-1.5,2-2.9,2.7l4.9,10.3h-5.5l-4.1-9.1h-0.8h-3.9v9.1h-5V738.2z
			 M665.5,749.1c0.8,0,1.4-0.1,2-0.3c0.5-0.2,0.9-0.4,1.2-0.7c0.3-0.3,0.5-0.7,0.6-1.1c0.1-0.4,0.2-0.9,0.2-1.4
			c0-0.4-0.1-0.8-0.2-1.2c-0.1-0.4-0.4-0.7-0.7-1.1c-0.3-0.3-0.8-0.5-1.4-0.7s-1.3-0.3-2.2-0.3h-3.5v6.8H665.5z"/>
		<path id="XMLID_393_" fill="#FFFFFF" d="M686,763c-2.9,0-5.1-0.8-6.6-2.4c-1.6-1.6-2.3-4-2.3-7c0-1.4,0.2-2.8,0.6-3.9s1-2.2,1.8-3
			c0.8-0.8,1.7-1.4,2.8-1.8c1.1-0.4,2.3-0.6,3.7-0.6c1.4,0,2.6,0.2,3.7,0.6s2.1,1,2.8,1.8c0.8,0.8,1.4,1.8,1.8,3s0.6,2.5,0.6,3.9
			c0,1.5-0.2,2.8-0.6,4c-0.4,1.2-1,2.2-1.8,3c-0.8,0.8-1.7,1.4-2.8,1.9S687.4,763,686,763z M686,759.2c1.4,0,2.4-0.5,3-1.5
			c0.7-1,1-2.4,1-4.2s-0.3-3.2-1-4.1c-0.7-1-1.7-1.4-3-1.4s-2.4,0.5-3,1.4c-0.7,1-1,2.3-1,4.1c0,1.8,0.3,3.2,1,4.2
			C683.6,758.7,684.6,759.2,686,759.2z"/>
		<path id="XMLID_396_" fill="#FFFFFF" d="M698.4,744.7h4.8v11.1c0,1.3,0.2,2.1,0.7,2.6s1.1,0.7,1.9,0.7c0.6,0,1.1-0.1,1.5-0.3
			c0.4-0.2,0.8-0.4,1.1-0.8c0.4-0.3,0.6-0.7,0.9-1.1c0.2-0.4,0.3-0.9,0.3-1.4v-10.7h4.8v17.7h-4.6V760c-0.7,1-1.5,1.8-2.5,2.3
			c-0.9,0.5-1.9,0.7-2.9,0.7c-2,0-3.5-0.5-4.4-1.6c-1-1.1-1.4-2.7-1.4-5V744.7z"/>
		<path id="XMLID_398_" fill="#FFFFFF" d="M719.6,748.4h-2.8v-3.7h2.8V740h4.8v4.7h4.1v3.7h-4.1v8.2c0,0.9,0.2,1.6,0.6,1.9
			c0.4,0.3,0.9,0.5,1.5,0.5c0.3,0,0.6,0,1-0.1c0.3,0,0.6-0.1,1-0.2l0.7,3.5c-0.7,0.2-1.3,0.3-1.9,0.4c-0.6,0.1-1.2,0.1-1.8,0.1
			c-1.9,0-3.4-0.5-4.3-1.4c-0.9-0.9-1.4-2.5-1.4-4.7V748.4z"/>
		<path id="XMLID_400_" fill="#FFFFFF" d="M747.2,756.9c-0.3,2-1.1,3.5-2.4,4.5c-1.3,1-3.1,1.5-5.6,1.5c-2.9,0-5.2-0.8-6.6-2.4
			c-1.5-1.6-2.2-3.9-2.2-6.9c0-1.5,0.2-2.8,0.6-4c0.4-1.2,1-2.2,1.8-3s1.7-1.4,2.8-1.8c1.1-0.4,2.3-0.6,3.6-0.6
			c2.7,0,4.8,0.8,6.1,2.3c1.4,1.6,2.1,3.7,2.1,6.3v1.9h-12.3c0,1.4,0.4,2.5,1.1,3.3s1.7,1.2,3.1,1.2c1.9,0,3-0.8,3.3-2.4H747.2z
			 M742.9,751.6c0-1.2-0.3-2.2-0.9-2.9c-0.6-0.7-1.5-1-2.8-1c-0.6,0-1.2,0.1-1.7,0.3c-0.5,0.2-0.9,0.5-1.2,0.8s-0.6,0.8-0.8,1.2
			c-0.2,0.5-0.3,1-0.3,1.5H742.9z"/>
	</g>
</g>
<g id="XMLID_72_">
	<path id="XMLID_384_" d="M437.7,741.4v4.4h5.3v3.1h-5.3v7.4c0,0.7,0.2,1.2,0.5,1.5c0.3,0.3,0.9,0.5,1.7,0.5h3.1v3.1h-3.4
		c-2.3,0-3.9-0.4-4.8-1.1s-1.2-2.1-1.2-4.2v-7.2h-4v-3.1h4v-4.4H437.7z"/>
	<path id="XMLID_386_" d="M461.3,750.1c-0.4-0.4-1-0.7-1.6-0.9c-0.6-0.2-1.3-0.3-2-0.3c-0.9,0-1.6,0.2-2.3,0.5
		c-0.6,0.3-1.1,0.7-1.5,1.3c-0.2,0.4-0.4,0.8-0.5,1.3s-0.1,1.3-0.1,2.3v7.2h-4.1v-15.6h4.1v2.4c0.4-0.9,1-1.6,1.8-2.1
		c0.8-0.5,1.8-0.7,2.9-0.7c0.6,0,1.1,0.1,1.6,0.2c0.5,0.1,1,0.3,1.5,0.6V750.1z"/>
	<path id="XMLID_388_" d="M472.4,763.1c-0.5,1.5-1.2,2.5-2,3.2c-0.8,0.7-1.7,1-2.8,1h-3.4v-3.1h1.7c0.8,0,1.5-0.1,1.8-0.4
		c0.4-0.3,0.8-0.9,1.2-2l0.3-0.8l-5.9-15.2h4.3l3.6,10.1l3.4-10.1h4.3L472.4,763.1z"/>
</g>
<g id="XMLID_44_">
	<path id="XMLID_357_" d="M2.5,88.3h5.1v9.4h9.6v-9.4h5.1v24.2h-5.1v-10.2H7.5v10.2H2.5V88.3z"/>
	<path id="XMLID_359_" d="M32.7,92.7h-7.3v-4.4H45v4.4h-7.3v19.9h-5.1V92.7z"/>
	<path id="XMLID_361_" d="M54.5,92.7h-7.3v-4.4h19.7v4.4h-7.3v19.9h-5.1V92.7z"/>
	<path id="XMLID_363_" d="M70,88.3h8.7c1.9,0,3.4,0.2,4.6,0.6c1.2,0.4,2.2,1,2.9,1.7c0.7,0.7,1.2,1.5,1.5,2.4s0.4,1.9,0.4,2.9
		c0,1.1-0.1,2.1-0.4,3.1c-0.3,1-0.8,1.8-1.5,2.6c-0.7,0.7-1.7,1.3-2.9,1.7c-1.2,0.4-2.7,0.6-4.5,0.6H75v8.7h-5V88.3z M78.6,99.7
		c0.9,0,1.6-0.1,2.2-0.3c0.6-0.2,1-0.4,1.4-0.7c0.3-0.3,0.6-0.7,0.7-1.2c0.1-0.5,0.2-1,0.2-1.5c0-0.6-0.1-1.1-0.2-1.5
		c-0.1-0.4-0.4-0.8-0.7-1.1c-0.3-0.3-0.8-0.5-1.4-0.7c-0.6-0.2-1.3-0.2-2.2-0.2H75v7.2H78.6z"/>
	<path id="XMLID_366_" d="M99.3,88.3h8.6c1.9,0,3.5,0.2,4.7,0.7s2.2,1,2.9,1.7c0.7,0.7,1.2,1.5,1.5,2.4c0.3,0.9,0.4,1.7,0.4,2.6
		c0,1.6-0.3,2.9-0.8,3.9s-1.5,2-2.9,2.7l4.9,10.3h-5.5l-4.1-9.1h-0.8h-3.9v9.1h-5V88.3z M108.2,99.2c0.8,0,1.4-0.1,2-0.3
		c0.5-0.2,0.9-0.4,1.2-0.7c0.3-0.3,0.5-0.7,0.6-1.1c0.1-0.4,0.2-0.9,0.2-1.4c0-0.4-0.1-0.8-0.2-1.2c-0.1-0.4-0.4-0.7-0.7-1.1
		c-0.3-0.3-0.8-0.5-1.4-0.7c-0.6-0.2-1.3-0.3-2.2-0.3h-3.5v6.8H108.2z"/>
	<path id="XMLID_369_" d="M136.6,107c-0.3,2-1.1,3.5-2.4,4.5c-1.3,1-3.1,1.5-5.6,1.5c-2.9,0-5.2-0.8-6.6-2.4
		c-1.5-1.6-2.2-3.9-2.2-6.9c0-1.5,0.2-2.8,0.6-4c0.4-1.2,1-2.2,1.8-3s1.7-1.4,2.8-1.8c1.1-0.4,2.3-0.6,3.6-0.6
		c2.7,0,4.8,0.8,6.1,2.3s2.1,3.7,2.1,6.3v1.9h-12.3c0,1.4,0.4,2.5,1.1,3.3s1.7,1.2,3.1,1.2c1.9,0,3-0.8,3.3-2.4H136.6z M132.2,101.7
		c0-1.2-0.3-2.2-0.9-2.9c-0.6-0.7-1.5-1-2.8-1c-0.6,0-1.2,0.1-1.7,0.3c-0.5,0.2-0.9,0.5-1.2,0.8c-0.3,0.4-0.6,0.8-0.8,1.2
		c-0.2,0.5-0.3,1-0.3,1.5H132.2z"/>
	<path id="XMLID_372_" d="M152.6,110.3c-0.6,0.9-1.4,1.6-2.4,2.1s-2,0.7-3,0.7c-2.5,0-4.4-0.8-5.6-2.5c-1.2-1.7-1.8-4-1.8-7
		c0-1.4,0.2-2.6,0.5-3.8c0.4-1.1,0.9-2.1,1.5-3c0.7-0.8,1.5-1.5,2.4-1.9c1-0.5,2-0.7,3.2-0.7c1,0,1.9,0.2,2.8,0.5
		c0.9,0.4,1.7,1,2.5,2v-2h4.6v24.3h-4.8V110.3z M152.6,103.5c0-1.1-0.1-2-0.3-2.7c-0.2-0.7-0.5-1.2-0.9-1.7
		c-0.4-0.4-0.9-0.7-1.3-0.8c-0.5-0.1-1-0.2-1.4-0.2c-0.5,0-1,0.1-1.5,0.3s-0.9,0.5-1.2,1c-0.4,0.4-0.6,1-0.8,1.7
		c-0.2,0.7-0.3,1.5-0.3,2.5c0,1.1,0.1,2,0.3,2.7c0.2,0.7,0.5,1.3,0.8,1.7c0.3,0.4,0.7,0.8,1.2,1c0.5,0.2,0.9,0.3,1.5,0.3
		c1.1,0,2.1-0.3,2.8-1c0.5-0.5,0.8-1,1-1.6c0.2-0.6,0.3-1.5,0.3-2.5V103.5z"/>
	<path id="XMLID_375_" d="M161.4,94.8h4.8v11.1c0,1.3,0.2,2.1,0.7,2.6c0.5,0.4,1.1,0.7,1.9,0.7c0.6,0,1.1-0.1,1.5-0.3
		c0.4-0.2,0.8-0.4,1.1-0.8c0.4-0.3,0.6-0.7,0.9-1.1c0.2-0.4,0.3-0.9,0.3-1.4V94.8h4.8v17.7h-4.6v-2.4c-0.7,1-1.5,1.8-2.5,2.3
		c-0.9,0.5-1.9,0.7-2.9,0.7c-2,0-3.5-0.5-4.4-1.6s-1.4-2.7-1.4-5V94.8z"/>
	<path id="XMLID_377_" d="M197.7,107c-0.3,2-1.1,3.5-2.4,4.5c-1.3,1-3.1,1.5-5.6,1.5c-2.9,0-5.2-0.8-6.6-2.4
		c-1.5-1.6-2.2-3.9-2.2-6.9c0-1.5,0.2-2.8,0.6-4c0.4-1.2,1-2.2,1.8-3s1.7-1.4,2.8-1.8c1.1-0.4,2.3-0.6,3.6-0.6
		c2.7,0,4.8,0.8,6.1,2.3s2.1,3.7,2.1,6.3v1.9h-12.3c0,1.4,0.4,2.5,1.1,3.3s1.7,1.2,3.1,1.2c1.9,0,3-0.8,3.3-2.4H197.7z M193.3,101.7
		c0-1.2-0.3-2.2-0.9-2.9c-0.6-0.7-1.5-1-2.8-1c-0.6,0-1.2,0.1-1.7,0.3c-0.5,0.2-0.9,0.5-1.2,0.8c-0.3,0.4-0.6,0.8-0.8,1.2
		c-0.2,0.5-0.3,1-0.3,1.5H193.3z"/>
	<path id="XMLID_380_" d="M204.9,106.9c0.2,1,0.6,1.7,1.3,2s1.5,0.5,2.4,0.5c1.1,0,1.9-0.1,2.4-0.4c0.5-0.3,0.7-0.7,0.7-1.4
		c0-0.5-0.2-0.8-0.5-1.2c-0.3-0.3-0.9-0.6-1.7-0.7l-2.4-0.4c-2.1-0.3-3.8-0.9-4.8-1.7c-1.1-0.8-1.6-2.1-1.6-3.8
		c0-0.9,0.2-1.6,0.6-2.3c0.4-0.7,0.9-1.3,1.6-1.7s1.5-0.8,2.4-1.1c0.9-0.3,2-0.4,3.1-0.4c1.4,0,2.6,0.1,3.5,0.4
		c1,0.3,1.7,0.7,2.3,1.1s1.1,1,1.4,1.7c0.3,0.7,0.5,1.4,0.7,2.1l-4.2,0.5c-0.2-0.8-0.6-1.4-1.1-1.8s-1.3-0.6-2.5-0.6
		c-0.6,0-1.2,0.1-1.6,0.2c-0.4,0.1-0.7,0.2-1,0.4c-0.2,0.2-0.4,0.3-0.5,0.5s-0.2,0.4-0.2,0.6c0,0.6,0.2,1,0.5,1.2
		c0.4,0.3,1,0.5,2.1,0.7l2.2,0.4c1.2,0.2,2.3,0.5,3.1,0.8c0.8,0.3,1.5,0.7,2,1.2c0.5,0.5,0.8,1,1,1.6c0.2,0.6,0.3,1.4,0.3,2.2
		c0,1.7-0.6,3-1.9,4c-1.3,1-3.2,1.5-5.9,1.5c-1.1,0-2.1-0.1-3-0.3s-1.8-0.5-2.6-1c-0.8-0.5-1.4-1.1-1.9-1.9c-0.5-0.8-0.8-1.8-0.8-3
		H204.9z"/>
	<path id="XMLID_382_" d="M220.8,98.5H218v-3.7h2.8v-4.7h4.8v4.7h4.1v3.7h-4.1v8.2c0,0.9,0.2,1.6,0.6,1.9c0.4,0.3,0.9,0.5,1.5,0.5
		c0.3,0,0.6,0,1-0.1c0.3,0,0.6-0.1,1-0.2l0.7,3.5c-0.7,0.2-1.3,0.3-1.9,0.4c-0.6,0.1-1.2,0.1-1.8,0.1c-1.9,0-3.4-0.5-4.3-1.4
		c-0.9-0.9-1.4-2.5-1.4-4.7V98.5z"/>
</g>
<g id="XMLID_91_">
	<path id="XMLID_347_" fill="#808080" d="M85.6,65.9c0.1,0.8,0.3,1.4,0.8,1.8c0.5,0.4,1.2,0.6,2.1,0.6c0.4,0,0.8,0,1.1-0.1
		c0.3-0.1,0.6-0.2,0.7-0.4c0.2-0.2,0.3-0.3,0.4-0.6c0.1-0.2,0.1-0.4,0.1-0.7c0-0.4-0.1-0.7-0.4-1S89.8,65,89,64.8l-1.8-0.3
		c-0.7-0.1-1.3-0.3-1.8-0.5c-0.5-0.2-1-0.5-1.3-0.8c-0.4-0.3-0.6-0.7-0.8-1.2c-0.2-0.5-0.3-1-0.3-1.7s0.1-1.2,0.4-1.7
		s0.6-0.9,1.1-1.2c0.5-0.3,1-0.6,1.7-0.8c0.6-0.2,1.4-0.3,2.1-0.3c1,0,1.8,0.1,2.5,0.3c0.7,0.2,1.2,0.5,1.6,0.9
		c0.4,0.4,0.7,0.8,0.9,1.3c0.2,0.5,0.3,1,0.4,1.5l-2.7,0.3c-0.1-0.7-0.4-1.3-0.8-1.6c-0.4-0.3-1-0.5-1.8-0.5c-0.5,0-0.9,0-1.2,0.1
		s-0.6,0.2-0.8,0.3c-0.2,0.1-0.3,0.3-0.4,0.5c-0.1,0.2-0.1,0.4-0.1,0.6c0,0.5,0.1,0.9,0.4,1.1s0.8,0.4,1.5,0.6l1.9,0.4
		c1.5,0.3,2.5,0.8,3.2,1.4c0.7,0.7,1,1.6,1,2.8c0,0.6-0.1,1.1-0.3,1.6c-0.2,0.5-0.6,0.9-1,1.3c-0.4,0.4-1,0.7-1.6,0.9
		s-1.4,0.3-2.3,0.3c-1.8,0-3.3-0.4-4.2-1.2c-1-0.8-1.5-2-1.6-3.6H85.6z"/>
	<path id="XMLID_349_" fill="#808080" d="M97.4,56.8h2.8V62h5.4v-5.2h2.8v13.6h-2.8v-5.7h-5.4v5.7h-2.8V56.8z"/>
	<path id="XMLID_351_" fill="#808080" d="M112.7,56.8h9.3v2.4h-6.4v3h6v2.4h-6v3.3h6.8l-0.3,2.4h-9.4V56.8z"/>
	<path id="XMLID_353_" fill="#808080" d="M125.9,56.8h2.8v11.1h6.4l-0.3,2.4h-8.9V56.8z"/>
	<path id="XMLID_355_" fill="#808080" d="M138.5,56.8h8.9v2.4h-6.1v3.2h5.7v2.4h-5.7v5.5h-2.8V56.8z"/>
</g>
<g id="XMLID_124_">
	<g id="XMLID_169_">
		<linearGradient id="XMLID_451_" gradientUnits="userSpaceOnUse" x1="693.931" y1="100.4572" x2="561.6969" y2="100.4572">
			<stop  offset="0" style="stop-color:#FF0050;stop-opacity:0"/>
			<stop  offset="1" style="stop-color:#FF0050"/>
		</linearGradient>
		
			<line id="XMLID_172_" fill="none" stroke="url(#XMLID_451_)" stroke-width="6" stroke-linecap="round" stroke-linejoin="round" x1="690.9" y1="100.5" x2="690.9" y2="100.5"/>
		<linearGradient id="XMLID_452_" gradientUnits="userSpaceOnUse" x1="693.931" y1="100.4572" x2="561.6969" y2="100.4572">
			<stop  offset="0" style="stop-color:#FF0050;stop-opacity:0"/>
			<stop  offset="1" style="stop-color:#FF0050"/>
		</linearGradient>
		
			<line id="XMLID_171_" fill="none" stroke="url(#XMLID_452_)" stroke-width="6" stroke-linecap="round" stroke-linejoin="round" stroke-dasharray="0,11.4758" x1="679.5" y1="100.5" x2="570.4" y2="100.5"/>
		<linearGradient id="XMLID_453_" gradientUnits="userSpaceOnUse" x1="693.931" y1="100.4572" x2="561.6969" y2="100.4572">
			<stop  offset="0" style="stop-color:#FF0050;stop-opacity:0"/>
			<stop  offset="1" style="stop-color:#FF0050"/>
		</linearGradient>
		
			<line id="XMLID_170_" fill="none" stroke="url(#XMLID_453_)" stroke-width="6" stroke-linecap="round" stroke-linejoin="round" x1="564.7" y1="100.5" x2="564.7" y2="100.5"/>
	</g>
</g>
<g id="XMLID_112_">
	<path id="XMLID_317_" d="M686.3,88.3h5.1v9.4h9.6v-9.4h5.1v24.2H701v-10.2h-9.6v10.2h-5.1V88.3z"/>
	<path id="XMLID_319_" d="M716.5,92.7h-7.3v-4.4h19.7v4.4h-7.3v19.9h-5.1V92.7z"/>
	<path id="XMLID_321_" d="M738.3,92.7H731v-4.4h19.7v4.4h-7.3v19.9h-5.1V92.7z"/>
	<path id="XMLID_323_" d="M753.9,88.3h8.7c1.9,0,3.4,0.2,4.6,0.6c1.2,0.4,2.2,1,2.9,1.7c0.7,0.7,1.2,1.5,1.5,2.4s0.4,1.9,0.4,2.9
		c0,1.1-0.1,2.1-0.4,3.1c-0.3,1-0.8,1.8-1.5,2.6c-0.7,0.7-1.7,1.3-2.9,1.7c-1.2,0.4-2.7,0.6-4.5,0.6h-3.8v8.7h-5V88.3z M762.5,99.7
		c0.9,0,1.6-0.1,2.2-0.3c0.6-0.2,1-0.4,1.4-0.7c0.3-0.3,0.6-0.7,0.7-1.2s0.2-1,0.2-1.5c0-0.6-0.1-1.1-0.2-1.5
		c-0.1-0.4-0.4-0.8-0.7-1.1c-0.3-0.3-0.8-0.5-1.4-0.7c-0.6-0.2-1.3-0.2-2.2-0.2h-3.6v7.2H762.5z"/>
	<path id="XMLID_326_" d="M783.1,88.3h8.6c1.9,0,3.5,0.2,4.7,0.7c1.2,0.4,2.2,1,2.9,1.7s1.2,1.5,1.5,2.4c0.3,0.9,0.4,1.7,0.4,2.6
		c0,1.6-0.3,2.9-0.8,3.9s-1.5,2-2.9,2.7l4.9,10.3H797l-4.1-9.1H792h-3.9v9.1h-5V88.3z M792.1,99.2c0.8,0,1.4-0.1,2-0.3
		c0.5-0.2,0.9-0.4,1.2-0.7c0.3-0.3,0.5-0.7,0.6-1.1c0.1-0.4,0.2-0.9,0.2-1.4c0-0.4-0.1-0.8-0.2-1.2s-0.4-0.7-0.7-1.1
		c-0.3-0.3-0.8-0.5-1.4-0.7c-0.6-0.2-1.3-0.3-2.2-0.3h-3.5v6.8H792.1z"/>
	<path id="XMLID_329_" d="M820.5,107c-0.3,2-1.1,3.5-2.4,4.5c-1.3,1-3.1,1.5-5.6,1.5c-2.9,0-5.2-0.8-6.6-2.4
		c-1.5-1.6-2.2-3.9-2.2-6.9c0-1.5,0.2-2.8,0.6-4c0.4-1.2,1-2.2,1.8-3c0.8-0.8,1.7-1.4,2.8-1.8c1.1-0.4,2.3-0.6,3.6-0.6
		c2.7,0,4.8,0.8,6.1,2.3s2.1,3.7,2.1,6.3v1.9h-12.3c0,1.4,0.4,2.5,1.1,3.3s1.7,1.2,3.1,1.2c1.9,0,3-0.8,3.3-2.4H820.5z M816.1,101.7
		c0-1.2-0.3-2.2-0.9-2.9s-1.5-1-2.8-1c-0.6,0-1.2,0.1-1.7,0.3c-0.5,0.2-0.9,0.5-1.2,0.8c-0.3,0.4-0.6,0.8-0.8,1.2
		c-0.2,0.5-0.3,1-0.3,1.5H816.1z"/>
	<path id="XMLID_332_" d="M827.7,106.9c0.2,1,0.6,1.7,1.3,2s1.5,0.5,2.4,0.5c1.1,0,1.9-0.1,2.4-0.4c0.5-0.3,0.7-0.7,0.7-1.4
		c0-0.5-0.2-0.8-0.5-1.2c-0.3-0.3-0.9-0.6-1.7-0.7l-2.4-0.4c-2.1-0.3-3.8-0.9-4.8-1.7c-1.1-0.8-1.6-2.1-1.6-3.8
		c0-0.9,0.2-1.6,0.6-2.3c0.4-0.7,0.9-1.3,1.6-1.7s1.5-0.8,2.4-1.1c0.9-0.3,2-0.4,3.1-0.4c1.4,0,2.6,0.1,3.5,0.4
		c1,0.3,1.7,0.7,2.3,1.1s1.1,1,1.4,1.7c0.3,0.7,0.5,1.4,0.7,2.1l-4.2,0.5c-0.2-0.8-0.6-1.4-1.1-1.8s-1.3-0.6-2.5-0.6
		c-0.6,0-1.2,0.1-1.6,0.2c-0.4,0.1-0.7,0.2-1,0.4c-0.2,0.2-0.4,0.3-0.5,0.5s-0.2,0.4-0.2,0.6c0,0.6,0.2,1,0.5,1.2
		c0.4,0.3,1,0.5,2.1,0.7l2.2,0.4c1.2,0.2,2.3,0.5,3.1,0.8c0.8,0.3,1.5,0.7,2,1.2c0.5,0.5,0.8,1,1,1.6c0.2,0.6,0.3,1.4,0.3,2.2
		c0,1.7-0.6,3-1.9,4c-1.3,1-3.2,1.5-5.9,1.5c-1.1,0-2.1-0.1-3-0.3s-1.8-0.5-2.6-1c-0.8-0.5-1.4-1.1-1.9-1.9c-0.5-0.8-0.8-1.8-0.8-3
		H827.7z"/>
	<path id="XMLID_334_" d="M842.5,94.8h4.6v2.3c1.4-1.9,3.2-2.9,5.6-2.9c2.5,0,4.3,0.8,5.5,2.5c1.2,1.7,1.8,4,1.8,6.9
		c0,1.4-0.2,2.7-0.5,3.8c-0.4,1.2-0.9,2.1-1.5,3c-0.7,0.8-1.5,1.5-2.4,1.9c-1,0.5-2,0.7-3.2,0.7c-0.9,0-1.8-0.2-2.6-0.5
		s-1.7-1-2.5-1.9v8.4h-4.8V94.8z M847.2,103.8c0,1.2,0.1,2.1,0.3,2.8c0.2,0.7,0.5,1.3,0.9,1.7c0.5,0.4,0.9,0.7,1.4,0.8
		c0.5,0.1,0.9,0.2,1.4,0.2c0.5,0,1-0.1,1.5-0.3c0.5-0.2,0.9-0.5,1.2-1c0.4-0.4,0.6-1,0.8-1.7c0.2-0.7,0.3-1.5,0.3-2.5
		c0-1-0.1-1.9-0.3-2.6c-0.2-0.7-0.5-1.3-0.8-1.7c-0.3-0.4-0.7-0.8-1.2-1c-0.5-0.2-1-0.3-1.5-0.3c-0.6,0-1.1,0.1-1.5,0.2
		s-0.8,0.4-1.3,0.7c-0.5,0.4-0.8,1-1,1.6c-0.2,0.7-0.3,1.5-0.3,2.5V103.8z"/>
	<path id="XMLID_337_" d="M872,113.1c-2.9,0-5.1-0.8-6.6-2.4c-1.6-1.6-2.3-4-2.3-7c0-1.4,0.2-2.8,0.6-3.9c0.4-1.2,1-2.1,1.8-3
		c0.8-0.8,1.7-1.4,2.8-1.9c1.1-0.4,2.3-0.6,3.7-0.6c1.4,0,2.6,0.2,3.7,0.6c1.1,0.4,2.1,1,2.8,1.9s1.4,1.8,1.8,3
		c0.4,1.2,0.6,2.5,0.6,3.9c0,1.5-0.2,2.8-0.6,4c-0.4,1.2-1,2.2-1.8,3c-0.8,0.8-1.7,1.4-2.8,1.9C874.6,112.9,873.3,113.1,872,113.1z
		 M872,109.3c1.4,0,2.4-0.5,3-1.5c0.7-1,1-2.4,1-4.2c0-1.8-0.3-3.2-1-4.1c-0.7-1-1.7-1.4-3-1.4s-2.4,0.5-3,1.4c-0.7,1-1,2.3-1,4.1
		c0,1.8,0.3,3.2,1,4.2C869.6,108.8,870.6,109.3,872,109.3z"/>
	<path id="XMLID_340_" d="M884.5,94.8h4.6v2.4c0.7-1,1.5-1.8,2.5-2.3c1-0.5,2-0.7,3-0.7c2,0,3.5,0.5,4.5,1.6c1,1.1,1.5,2.7,1.5,5
		v11.7h-4.8v-11.1c0-1.2-0.2-2.1-0.7-2.5c-0.5-0.5-1.1-0.7-1.9-0.7c-0.6,0-1.1,0.1-1.6,0.3s-0.9,0.4-1.2,0.8
		c-0.3,0.3-0.6,0.7-0.8,1.1c-0.2,0.4-0.3,0.9-0.3,1.4v10.7h-4.8V94.8z"/>
	<path id="XMLID_342_" d="M908.1,106.9c0.2,1,0.6,1.7,1.3,2s1.5,0.5,2.4,0.5c1.1,0,1.9-0.1,2.4-0.4c0.5-0.3,0.7-0.7,0.7-1.4
		c0-0.5-0.2-0.8-0.5-1.2c-0.3-0.3-0.9-0.6-1.7-0.7l-2.4-0.4c-2.1-0.3-3.8-0.9-4.8-1.7c-1.1-0.8-1.6-2.1-1.6-3.8
		c0-0.9,0.2-1.6,0.6-2.3c0.4-0.7,0.9-1.3,1.6-1.7s1.5-0.8,2.4-1.1c0.9-0.3,2-0.4,3.1-0.4c1.4,0,2.6,0.1,3.5,0.4
		c1,0.3,1.7,0.7,2.3,1.1s1.1,1,1.4,1.7c0.3,0.7,0.5,1.4,0.7,2.1l-4.2,0.5c-0.2-0.8-0.6-1.4-1.1-1.8s-1.3-0.6-2.5-0.6
		c-0.6,0-1.2,0.1-1.6,0.2c-0.4,0.1-0.7,0.2-1,0.4c-0.2,0.2-0.4,0.3-0.5,0.5s-0.2,0.4-0.2,0.6c0,0.6,0.2,1,0.5,1.2
		c0.4,0.3,1,0.5,2.1,0.7l2.2,0.4c1.2,0.2,2.3,0.5,3.1,0.8c0.8,0.3,1.5,0.7,2,1.2c0.5,0.5,0.8,1,1,1.6c0.2,0.6,0.3,1.4,0.3,2.2
		c0,1.7-0.6,3-1.9,4c-1.3,1-3.2,1.5-5.9,1.5c-1.1,0-2.1-0.1-3-0.3s-1.8-0.5-2.6-1c-0.8-0.5-1.4-1.1-1.9-1.9c-0.5-0.8-0.8-1.8-0.8-3
		H908.1z"/>
	<path id="XMLID_344_" d="M939.1,107c-0.3,2-1.1,3.5-2.4,4.5c-1.3,1-3.1,1.5-5.6,1.5c-2.9,0-5.2-0.8-6.6-2.4
		c-1.5-1.6-2.2-3.9-2.2-6.9c0-1.5,0.2-2.8,0.6-4c0.4-1.2,1-2.2,1.8-3s1.7-1.4,2.8-1.8c1.1-0.4,2.3-0.6,3.6-0.6
		c2.7,0,4.8,0.8,6.1,2.3s2.1,3.7,2.1,6.3v1.9H927c0,1.4,0.4,2.5,1.1,3.3s1.7,1.2,3.1,1.2c1.9,0,3-0.8,3.3-2.4H939.1z M934.7,101.7
		c0-1.2-0.3-2.2-0.9-2.9c-0.6-0.7-1.5-1-2.8-1c-0.6,0-1.2,0.1-1.7,0.3c-0.5,0.2-0.9,0.5-1.2,0.8c-0.3,0.4-0.6,0.8-0.8,1.2
		c-0.2,0.5-0.3,1-0.3,1.5H934.7z"/>
</g>
<g id="XMLID_97_">
	<path id="XMLID_307_" fill="#808080" d="M782.7,65.9c0.1,0.8,0.3,1.4,0.8,1.8c0.5,0.4,1.2,0.6,2.1,0.6c0.4,0,0.8,0,1.1-0.1
		c0.3-0.1,0.6-0.2,0.7-0.4c0.2-0.2,0.3-0.3,0.4-0.6c0.1-0.2,0.1-0.4,0.1-0.7c0-0.4-0.1-0.7-0.4-1s-0.8-0.5-1.5-0.7l-1.8-0.3
		c-0.7-0.1-1.3-0.3-1.8-0.5c-0.5-0.2-1-0.5-1.3-0.8c-0.4-0.3-0.6-0.7-0.8-1.2c-0.2-0.5-0.3-1-0.3-1.7s0.1-1.2,0.4-1.7
		s0.6-0.9,1.1-1.2c0.5-0.3,1-0.6,1.7-0.8c0.6-0.2,1.4-0.3,2.1-0.3c1,0,1.8,0.1,2.5,0.3c0.7,0.2,1.2,0.5,1.6,0.9
		c0.4,0.4,0.7,0.8,0.9,1.3c0.2,0.5,0.3,1,0.4,1.5l-2.7,0.3c-0.1-0.7-0.4-1.3-0.8-1.6c-0.4-0.3-1-0.5-1.8-0.5c-0.5,0-0.9,0-1.2,0.1
		s-0.6,0.2-0.8,0.3c-0.2,0.1-0.3,0.3-0.4,0.5c-0.1,0.2-0.1,0.4-0.1,0.6c0,0.5,0.1,0.9,0.4,1.1s0.8,0.4,1.5,0.6l1.9,0.4
		c1.5,0.3,2.5,0.8,3.2,1.4c0.7,0.7,1,1.6,1,2.8c0,0.6-0.1,1.1-0.3,1.6c-0.2,0.5-0.6,0.9-1,1.3c-0.4,0.4-1,0.7-1.6,0.9
		s-1.4,0.3-2.3,0.3c-1.8,0-3.3-0.4-4.2-1.2c-1-0.8-1.5-2-1.6-3.6H782.7z"/>
	<path id="XMLID_309_" fill="#808080" d="M794.5,56.8h2.8V62h5.4v-5.2h2.8v13.6h-2.8v-5.7h-5.4v5.7h-2.8V56.8z"/>
	<path id="XMLID_311_" fill="#808080" d="M809.8,56.8h9.3v2.4h-6.4v3h6v2.4h-6v3.3h6.8l-0.3,2.4h-9.4V56.8z"/>
	<path id="XMLID_313_" fill="#808080" d="M823,56.8h2.8v11.1h6.4l-0.3,2.4H823V56.8z"/>
	<path id="XMLID_315_" fill="#808080" d="M835.6,56.8h8.9v2.4h-6.1v3.2h5.7v2.4h-5.7v5.5h-2.8V56.8z"/>
</g>
<g id="XMLID_42_">
	<g id="XMLID_197_">
		
			<line id="XMLID_202_" fill="none" stroke="#7596FF" stroke-width="3" stroke-linecap="round" stroke-linejoin="round" x1="279.5" y1="70.3" x2="279.5" y2="70.3"/>
		
			<line id="XMLID_201_" fill="none" stroke="#7596FF" stroke-width="3" stroke-linecap="round" stroke-linejoin="round" stroke-dasharray="0,4.9104" x1="284.4" y1="70.3" x2="335.9" y2="70.3"/>
		
			<line id="XMLID_200_" fill="none" stroke="#7596FF" stroke-width="3" stroke-linecap="round" stroke-linejoin="round" x1="338.4" y1="70.3" x2="338.4" y2="70.3"/>
		<g id="XMLID_198_">
			<polygon id="XMLID_199_" fill="#7596FF" points="335.6,79.9 352.2,70.3 335.6,60.7 			"/>
		</g>
	</g>
</g>
<g id="XMLID_51_">
	<g id="XMLID_243_">
		
			<line id="XMLID_248_" fill="none" stroke="#7596FF" stroke-width="3" stroke-linecap="round" stroke-linejoin="round" x1="438.6" y1="197.4" x2="438.6" y2="197.4"/>
		
			<line id="XMLID_247_" fill="none" stroke="#7596FF" stroke-width="3" stroke-linecap="round" stroke-linejoin="round" stroke-dasharray="0,5.2097" x1="438.6" y1="202.6" x2="438.6" y2="210.4"/>
		
			<line id="XMLID_246_" fill="none" stroke="#7596FF" stroke-width="3" stroke-linecap="round" stroke-linejoin="round" x1="438.6" y1="213" x2="438.6" y2="213"/>
		<g id="XMLID_244_">
			<polygon id="XMLID_245_" fill="#7596FF" points="429.1,210.2 438.6,226.8 448.2,210.2 			"/>
		</g>
	</g>
</g>
<g id="XMLID_54_">
	<g id="XMLID_253_">
		
			<line id="XMLID_261_" fill="none" stroke="#7596FF" stroke-width="3" stroke-linecap="round" stroke-linejoin="round" x1="488.6" y1="229.8" x2="488.6" y2="229.8"/>
		
			<line id="XMLID_257_" fill="none" stroke="#7596FF" stroke-width="3" stroke-linecap="round" stroke-linejoin="round" stroke-dasharray="0,5.2097" x1="488.6" y1="224.6" x2="488.6" y2="216.7"/>
		
			<line id="XMLID_256_" fill="none" stroke="#7596FF" stroke-width="3" stroke-linecap="round" stroke-linejoin="round" x1="488.6" y1="214.1" x2="488.6" y2="214.1"/>
		<g id="XMLID_254_">
			<polygon id="XMLID_255_" fill="#7596FF" points="498.2,216.9 488.6,200.4 479.1,216.9 			"/>
		</g>
	</g>
</g>
<g id="XMLID_183_">
	<g id="XMLID_192_">
		
			<line id="XMLID_251_" fill="none" stroke="#7596FF" stroke-width="3" stroke-linecap="round" stroke-linejoin="round" x1="403.5" y1="410" x2="403.5" y2="410"/>
		
			<line id="XMLID_205_" fill="none" stroke="#7596FF" stroke-width="3" stroke-linecap="round" stroke-linejoin="round" stroke-dasharray="0,5.044" x1="401" y1="414.4" x2="276.6" y2="630.8"/>
		
			<line id="XMLID_204_" fill="none" stroke="#7596FF" stroke-width="3" stroke-linecap="round" stroke-linejoin="round" x1="275.3" y1="633" x2="275.3" y2="633"/>
		<g id="XMLID_193_">
			<polygon id="XMLID_203_" fill="#7596FF" points="268.4,625.8 268.5,645 285,635.4 			"/>
		</g>
	</g>
</g>
<g id="XMLID_195_">
	<g id="XMLID_212_">
		
			<line id="XMLID_220_" fill="none" stroke="#7596FF" stroke-width="3" stroke-linecap="round" stroke-linejoin="round" x1="346.5" y1="776.9" x2="346.5" y2="776.9"/>
		
			<line id="XMLID_219_" fill="none" stroke="#7596FF" stroke-width="3" stroke-linecap="round" stroke-linejoin="round" stroke-dasharray="0,4.9732" x1="351.5" y1="776.9" x2="572.8" y2="776.9"/>
		
			<line id="XMLID_218_" fill="none" stroke="#7596FF" stroke-width="3" stroke-linecap="round" stroke-linejoin="round" x1="575.3" y1="776.9" x2="575.3" y2="776.9"/>
		<g id="XMLID_216_">
			<polygon id="XMLID_217_" fill="#7596FF" points="572.5,786.4 589,776.9 572.5,767.3 			"/>
		</g>
	</g>
</g>
<g id="XMLID_221_">
	<g id="XMLID_223_">
		
			<line id="XMLID_228_" fill="none" stroke="#7596FF" stroke-width="3" stroke-linecap="round" stroke-linejoin="round" x1="716.3" y1="652.2" x2="716.3" y2="652.2"/>
		
			<line id="XMLID_227_" fill="none" stroke="#7596FF" stroke-width="3" stroke-linecap="round" stroke-linejoin="round" stroke-dasharray="0,4.8953" x1="716.1" y1="647.3" x2="714" y2="596"/>
		
			<line id="XMLID_226_" fill="none" stroke="#7596FF" stroke-width="3" stroke-linecap="round" stroke-linejoin="round" x1="713.9" y1="593.5" x2="713.9" y2="593.5"/>
		<g id="XMLID_224_">
			<polygon id="XMLID_225_" fill="#7596FF" points="723.6,595.9 713.4,579.8 704.5,596.7 			"/>
		</g>
	</g>
</g>
<g id="XMLID_229_">
	<g id="XMLID_231_">
		
			<line id="XMLID_236_" fill="none" stroke="#7596FF" stroke-width="3" stroke-linecap="round" stroke-linejoin="round" x1="614.5" y1="410.1" x2="614.5" y2="410.1"/>
		
			<line id="XMLID_235_" fill="none" stroke="#7596FF" stroke-width="3" stroke-linecap="round" stroke-linejoin="round" stroke-dasharray="0,5.1058" x1="610.3" y1="407.2" x2="570.1" y2="380.1"/>
		
			<line id="XMLID_234_" fill="none" stroke="#7596FF" stroke-width="3" stroke-linecap="round" stroke-linejoin="round" x1="567.9" y1="378.7" x2="567.9" y2="378.7"/>
		<g id="XMLID_232_">
			<polygon id="XMLID_233_" fill="#7596FF" points="575.6,372.3 556.5,371 564.9,388.2 			"/>
		</g>
	</g>
</g>
<g id="XMLID_127_">
	<g id="XMLID_207_">
		
			<line id="XMLID_241_" fill="none" stroke="#7596FF" stroke-width="3" stroke-linecap="round" stroke-linejoin="round" x1="560.2" y1="70.3" x2="560.2" y2="70.3"/>
		
			<line id="XMLID_240_" fill="none" stroke="#7596FF" stroke-width="3" stroke-linecap="round" stroke-linejoin="round" stroke-dasharray="0,4.9867" x1="565.2" y1="70.3" x2="617.6" y2="70.3"/>
		
			<line id="XMLID_237_" fill="none" stroke="#7596FF" stroke-width="3" stroke-linecap="round" stroke-linejoin="round" x1="620.1" y1="70.3" x2="620.1" y2="70.3"/>
		<g id="XMLID_208_">
			<polygon id="XMLID_209_" fill="#7596FF" points="617.3,79.9 633.8,70.3 617.3,60.7 			"/>
		</g>
	</g>
</g>
<g id="XMLID_46_">
	<g id="XMLID_48_">
		<path id="XMLID_258_" fill="#FFFFFF" d="M463.4,424.2c-53.5,0-97-43.5-97-97s43.5-97,97-97c53.5,0,97,43.5,97,97
			S516.8,424.2,463.4,424.2z"/>
		<path id="XMLID_173_" fill="#FF0050" d="M463.4,233.8c51.5,0,93.5,41.9,93.5,93.5s-41.9,93.5-93.5,93.5s-93.5-41.9-93.5-93.5
			S411.8,233.8,463.4,233.8 M463.4,226.8c-55.5,0-100.5,45-100.5,100.5s45,100.5,100.5,100.5c55.5,0,100.5-45,100.5-100.5
			S518.8,226.8,463.4,226.8L463.4,226.8z"/>
	</g>
	<g id="XMLID_47_">
		<path id="XMLID_281_" fill="#FF0050" d="M378.1,315h6.1l6,18.1l6.2-18.1h5.9v24.2h-4.7v-16.2l-5.5,16.2h-3.9l-5.6-16.1v16.1h-4.5
			V315z"/>
		<path id="XMLID_283_" fill="#FF0050" d="M405.5,315h4.9v4.3h-4.9V315z M405.6,321.6h4.8v17.7h-4.8V321.6z"/>
		<path id="XMLID_286_" fill="#FF0050" d="M425.5,336.9c-1.4,1.9-3.2,2.9-5.5,2.9c-2.5,0-4.3-0.8-5.6-2.5c-1.2-1.7-1.8-4-1.8-7
			c0-1.4,0.2-2.6,0.5-3.8c0.4-1.1,0.9-2.1,1.5-3c0.7-0.8,1.5-1.5,2.4-1.9s2-0.7,3.2-0.7c0.9,0,1.8,0.2,2.6,0.5s1.7,0.9,2.5,1.8V315
			h4.8v24.2h-4.6V336.9z M425.4,330.2c0-1.1-0.1-2-0.3-2.7c-0.2-0.7-0.5-1.2-0.9-1.7c-0.4-0.4-0.9-0.7-1.3-0.8
			c-0.5-0.1-1-0.2-1.4-0.2c-0.5,0-1,0.1-1.5,0.3s-0.9,0.5-1.2,1c-0.4,0.4-0.6,1-0.8,1.7c-0.2,0.7-0.3,1.5-0.3,2.5
			c0,1.1,0.1,2,0.3,2.7c0.2,0.7,0.5,1.3,0.8,1.7c0.3,0.4,0.7,0.8,1.2,1c0.5,0.2,0.9,0.3,1.5,0.3c1.1,0,2.1-0.3,2.8-1
			c0.5-0.5,0.8-1,1-1.6c0.2-0.6,0.3-1.5,0.3-2.5V330.2z"/>
		<path id="XMLID_289_" fill="#FF0050" d="M445.2,336.9c-1.4,1.9-3.2,2.9-5.5,2.9c-2.5,0-4.3-0.8-5.6-2.5c-1.2-1.7-1.8-4-1.8-7
			c0-1.4,0.2-2.6,0.5-3.8s0.9-2.1,1.5-3c0.7-0.8,1.5-1.5,2.4-1.9c1-0.5,2-0.7,3.2-0.7c0.9,0,1.8,0.2,2.6,0.5s1.7,0.9,2.5,1.8V315
			h4.8v24.2h-4.6V336.9z M445.1,330.2c0-1.1-0.1-2-0.3-2.7c-0.2-0.7-0.5-1.2-0.9-1.7c-0.4-0.4-0.9-0.7-1.3-0.8
			c-0.5-0.1-1-0.2-1.4-0.2c-0.5,0-1,0.1-1.5,0.3s-0.9,0.5-1.2,1c-0.4,0.4-0.6,1-0.8,1.7c-0.2,0.7-0.3,1.5-0.3,2.5
			c0,1.1,0.1,2,0.3,2.7c0.2,0.7,0.5,1.3,0.8,1.7c0.3,0.4,0.7,0.8,1.2,1c0.5,0.2,0.9,0.3,1.5,0.3c1.1,0,2.1-0.3,2.8-1
			c0.5-0.5,0.8-1,1-1.6c0.2-0.6,0.3-1.5,0.3-2.5V330.2z"/>
		<path id="XMLID_292_" fill="#FF0050" d="M452.7,315h4.8v24.2h-4.8V315z"/>
		<path id="XMLID_294_" fill="#FF0050" d="M476.6,333.7c-0.3,2-1.1,3.5-2.4,4.5c-1.3,1-3.1,1.5-5.6,1.5c-2.9,0-5.2-0.8-6.6-2.4
			c-1.5-1.6-2.2-3.9-2.2-6.9c0-1.5,0.2-2.8,0.6-4c0.4-1.2,1-2.2,1.8-3c0.8-0.8,1.7-1.4,2.8-1.8c1.1-0.4,2.3-0.6,3.6-0.6
			c2.7,0,4.8,0.8,6.1,2.3s2.1,3.7,2.1,6.3v1.9h-12.3c0,1.4,0.4,2.5,1.1,3.3c0.7,0.8,1.7,1.2,3.1,1.2c1.9,0,3-0.8,3.3-2.4H476.6z
			 M472.2,328.5c0-1.2-0.3-2.2-0.9-2.9s-1.5-1-2.8-1c-0.6,0-1.2,0.1-1.7,0.3s-0.9,0.5-1.2,0.8c-0.3,0.4-0.6,0.8-0.8,1.2
			s-0.3,1-0.3,1.5H472.2z"/>
		<path id="XMLID_297_" fill="#FF0050" d="M476.8,321.6h5.2l2.5,11.7l3.4-11.6h4.1l3.2,11.6l2.5-11.7h5l-5.2,17.7h-4.6l-3.2-11.7
			l-3.2,11.7h-4.5L476.8,321.6z"/>
		<path id="XMLID_299_" fill="#FF0050" d="M514.1,337c-0.7,0.8-1.5,1.4-2.4,1.9c-0.9,0.5-2,0.7-3.4,0.7c-0.8,0-1.5-0.1-2.3-0.3
			s-1.3-0.5-1.9-1c-0.5-0.4-1-1-1.3-1.6c-0.3-0.7-0.5-1.5-0.5-2.4c0-1.2,0.3-2.2,0.8-3c0.5-0.8,1.3-1.4,2.1-1.8
			c0.9-0.4,1.9-0.7,3-0.9c1.1-0.2,2.2-0.3,3.3-0.3l2.3-0.1v-0.9c0-1.1-0.3-1.8-0.9-2.2c-0.6-0.4-1.3-0.6-2.1-0.6
			c-1.9,0-3,0.7-3.2,2.1l-4.3-0.4c0.3-1.9,1.1-3.2,2.4-4c1.3-0.8,3.1-1.2,5.3-1.2c1.4,0,2.5,0.2,3.5,0.5s1.7,0.8,2.3,1.4
			c0.6,0.6,1,1.4,1.3,2.2c0.3,0.9,0.4,1.9,0.4,2.9v11.2h-4.5V337z M514,331.4l-2.1,0.1c-1,0-1.8,0.1-2.4,0.3
			c-0.6,0.2-1.1,0.4-1.4,0.6c-0.3,0.2-0.5,0.5-0.7,0.8c-0.1,0.3-0.2,0.7-0.2,1.1c0,0.6,0.2,1.1,0.6,1.4s1,0.5,1.7,0.5
			c1.2,0,2.2-0.3,3-0.8c0.4-0.3,0.8-0.7,1.1-1.2c0.3-0.5,0.4-1.1,0.4-1.8V331.4z"/>
		<path id="XMLID_302_" fill="#FF0050" d="M521.2,321.6h4.6v2.5c0.6-0.9,1.3-1.6,2.1-2.1c0.8-0.5,1.7-0.7,2.6-0.7
			c0.5,0,0.8,0,1.1,0.1c0.3,0,0.6,0.1,0.8,0.1l-0.6,4.3c-0.5-0.1-1.2-0.2-2-0.2c-0.5,0-1,0.1-1.5,0.2c-0.5,0.1-0.9,0.4-1.3,0.7
			c-0.4,0.4-0.7,0.8-0.9,1.2c-0.2,0.5-0.3,0.9-0.3,1.4v10.3h-4.8V321.6z"/>
		<path id="XMLID_304_" fill="#FF0050" d="M549.5,333.7c-0.3,2-1.1,3.5-2.4,4.5c-1.3,1-3.1,1.5-5.6,1.5c-2.9,0-5.2-0.8-6.6-2.4
			c-1.5-1.6-2.2-3.9-2.2-6.9c0-1.5,0.2-2.8,0.6-4c0.4-1.2,1-2.2,1.8-3s1.7-1.4,2.8-1.8c1.1-0.4,2.3-0.6,3.6-0.6
			c2.7,0,4.8,0.8,6.1,2.3s2.1,3.7,2.1,6.3v1.9h-12.3c0,1.4,0.4,2.5,1.1,3.3s1.7,1.2,3.1,1.2c1.9,0,3-0.8,3.3-2.4H549.5z
			 M545.1,328.5c0-1.2-0.3-2.2-0.9-2.9c-0.6-0.7-1.5-1-2.8-1c-0.6,0-1.2,0.1-1.7,0.3c-0.5,0.2-0.9,0.5-1.2,0.8
			c-0.3,0.4-0.6,0.8-0.8,1.2c-0.2,0.5-0.3,1-0.3,1.5H545.1z"/>
	</g>
	<g id="XMLID_90_">
		<path id="XMLID_271_" fill="#808080" d="M433.8,294.9c0.1,0.8,0.3,1.4,0.8,1.8c0.5,0.4,1.2,0.6,2.1,0.6c0.4,0,0.8,0,1.1-0.1
			c0.3-0.1,0.6-0.2,0.7-0.4c0.2-0.2,0.3-0.3,0.4-0.6c0.1-0.2,0.1-0.4,0.1-0.7c0-0.4-0.1-0.7-0.4-1c-0.3-0.3-0.8-0.5-1.5-0.7
			l-1.8-0.3c-0.7-0.1-1.3-0.3-1.8-0.5c-0.5-0.2-1-0.5-1.3-0.8c-0.4-0.3-0.6-0.7-0.8-1.2c-0.2-0.5-0.3-1-0.3-1.7s0.1-1.2,0.4-1.7
			c0.3-0.5,0.6-0.9,1.1-1.2c0.5-0.3,1-0.6,1.7-0.8c0.6-0.2,1.4-0.3,2.1-0.3c1,0,1.8,0.1,2.5,0.3c0.7,0.2,1.2,0.5,1.6,0.9
			c0.4,0.4,0.7,0.8,0.9,1.3c0.2,0.5,0.3,1,0.4,1.5l-2.7,0.3c-0.1-0.7-0.4-1.3-0.8-1.6c-0.4-0.3-1-0.5-1.8-0.5c-0.5,0-0.9,0-1.2,0.1
			c-0.3,0.1-0.6,0.2-0.8,0.3c-0.2,0.1-0.3,0.3-0.4,0.5c-0.1,0.2-0.1,0.4-0.1,0.6c0,0.5,0.1,0.9,0.4,1.1c0.3,0.3,0.8,0.4,1.5,0.6
			l1.9,0.4c1.5,0.3,2.5,0.8,3.2,1.4c0.7,0.7,1,1.6,1,2.8c0,0.6-0.1,1.1-0.3,1.6c-0.2,0.5-0.6,0.9-1,1.3c-0.4,0.4-1,0.7-1.6,0.9
			c-0.7,0.2-1.4,0.3-2.3,0.3c-1.8,0-3.3-0.4-4.2-1.2c-1-0.8-1.5-2-1.6-3.6H433.8z"/>
		<path id="XMLID_273_" fill="#808080" d="M445.5,285.8h2.8v5.2h5.4v-5.2h2.8v13.6h-2.8v-5.7h-5.4v5.7h-2.8V285.8z"/>
		<path id="XMLID_275_" fill="#808080" d="M460.9,285.8h9.3v2.4h-6.4v3h6v2.4h-6v3.3h6.8l-0.3,2.4h-9.4V285.8z"/>
		<path id="XMLID_277_" fill="#808080" d="M474,285.8h2.8v11.1h6.4l-0.3,2.4H474V285.8z"/>
		<path id="XMLID_279_" fill="#808080" d="M486.7,285.8h8.9v2.4h-6.1v3.2h5.7v2.4h-5.7v5.5h-2.8V285.8z"/>
	</g>
</g>
<g id="XMLID_89_">
	<g id="XMLID_114_">
		<path id="XMLID_260_" fill="#FFFFFF" d="M493.8,682.9c-53.5,0-97-43.5-97-97c0-53.5,43.5-97,97-97s97,43.5,97,97
			C590.7,639.4,547.2,682.9,493.8,682.9z"/>
		<path id="XMLID_249_" fill="#FF0050" d="M493.8,492.5c51.5,0,93.5,41.9,93.5,93.5c0,51.5-41.9,93.5-93.5,93.5
			c-51.5,0-93.5-41.9-93.5-93.5C400.3,534.4,442.2,492.5,493.8,492.5 M493.8,485.5c-55.5,0-100.5,45-100.5,100.5
			c0,55.5,45,100.5,100.5,100.5s100.5-45,100.5-100.5C594.2,530.4,549.2,485.5,493.8,485.5L493.8,485.5z"/>
	</g>
	<g id="XMLID_113_">
		<path id="XMLID_82_" fill="#FF0050" d="M415.5,559.8H432v4.3h-11.5v5.3h10.8v4.3h-10.8v6h12.2l-0.5,4.3h-16.7V559.8z"/>
		<path id="XMLID_84_" fill="#FF0050" d="M440.5,574.9l-5.8-8.6h5.6l3,5.1l3.4-5.1h5l-5.7,8.3l6.2,9.4h-5.5l-3.6-5.8l-3.8,5.8h-5.2
			L440.5,574.9z"/>
		<path id="XMLID_86_" fill="#FF0050" d="M469.2,577.6c-0.2,2.1-0.9,3.8-2.2,5.1s-3.2,1.9-5.8,1.9c-1.5,0-2.8-0.2-3.9-0.7
			c-1.1-0.5-2-1.1-2.7-1.9c-0.7-0.8-1.2-1.8-1.5-3c-0.3-1.2-0.5-2.4-0.5-3.8c0-1.4,0.2-2.7,0.6-3.9c0.4-1.2,1-2.2,1.7-3
			s1.7-1.5,2.7-1.9c1.1-0.5,2.3-0.7,3.7-0.7c1.2,0,2.2,0.2,3.1,0.5c0.9,0.3,1.6,0.7,2.3,1.3c0.6,0.5,1.1,1.2,1.4,2
			c0.3,0.8,0.6,1.6,0.7,2.5l-4.8,0.6c-0.1-0.9-0.4-1.6-0.8-2.2c-0.4-0.6-1.1-0.8-2.1-0.8c-0.7,0-1.3,0.2-1.8,0.5
			c-0.5,0.3-0.9,0.7-1.1,1.2s-0.5,1.1-0.6,1.8c-0.1,0.7-0.2,1.4-0.2,2.1c0,0.7,0.1,1.5,0.2,2.1s0.3,1.3,0.6,1.8
			c0.3,0.5,0.6,0.9,1.1,1.2c0.5,0.3,1.1,0.5,1.8,0.5c1,0,1.7-0.3,2.2-0.8s0.8-1.3,0.9-2.3H469.2z"/>
		<path id="XMLID_88_" fill="#FF0050" d="M488.8,578.5c-0.3,2-1.1,3.5-2.4,4.5c-1.3,1-3.1,1.5-5.6,1.5c-2.9,0-5.2-0.8-6.6-2.4
			c-1.5-1.6-2.2-3.9-2.2-6.9c0-1.5,0.2-2.8,0.6-4c0.4-1.2,1-2.2,1.8-3c0.8-0.8,1.7-1.4,2.8-1.8c1.1-0.4,2.3-0.6,3.6-0.6
			c2.7,0,4.8,0.8,6.1,2.3c1.4,1.6,2.1,3.7,2.1,6.3v1.9h-12.3c0,1.4,0.4,2.5,1.1,3.3c0.7,0.8,1.7,1.2,3.1,1.2c1.9,0,3-0.8,3.3-2.4
			H488.8z M484.4,573.2c0-1.2-0.3-2.2-0.9-2.9s-1.5-1-2.8-1c-0.6,0-1.2,0.1-1.7,0.3c-0.5,0.2-0.9,0.5-1.2,0.8s-0.6,0.8-0.8,1.2
			c-0.2,0.5-0.3,1-0.3,1.5H484.4z"/>
		<path id="XMLID_94_" fill="#FF0050" d="M492.6,566.3h4.6v2.3c1.4-1.9,3.2-2.9,5.6-2.9c2.5,0,4.3,0.8,5.5,2.5
			c1.2,1.7,1.8,4,1.8,6.9c0,1.4-0.2,2.7-0.5,3.8c-0.4,1.2-0.9,2.1-1.5,3c-0.7,0.8-1.5,1.5-2.4,1.9c-1,0.5-2,0.7-3.2,0.7
			c-0.9,0-1.8-0.2-2.6-0.5s-1.7-1-2.5-1.9v8.4h-4.8V566.3z M497.3,575.3c0,1.2,0.1,2.1,0.3,2.8c0.2,0.7,0.5,1.3,0.9,1.7
			c0.5,0.4,0.9,0.7,1.4,0.8c0.5,0.1,0.9,0.2,1.4,0.2c0.5,0,1-0.1,1.5-0.3c0.5-0.2,0.9-0.5,1.2-1c0.4-0.4,0.6-1,0.8-1.7
			c0.2-0.7,0.3-1.5,0.3-2.5c0-1-0.1-1.9-0.3-2.6c-0.2-0.7-0.5-1.3-0.8-1.7c-0.3-0.4-0.7-0.8-1.2-1s-1-0.3-1.5-0.3
			c-0.6,0-1.1,0.1-1.5,0.2s-0.8,0.4-1.3,0.7c-0.5,0.4-0.8,1-1,1.6c-0.2,0.7-0.3,1.5-0.3,2.5V575.3z"/>
		<path id="XMLID_99_" fill="#FF0050" d="M514.8,570H512v-3.7h2.8v-4.7h4.8v4.7h4.1v3.7h-4.1v8.2c0,0.9,0.2,1.6,0.6,1.9
			c0.4,0.3,0.9,0.5,1.5,0.5c0.3,0,0.6,0,1-0.1c0.3,0,0.6-0.1,1-0.2l0.7,3.5c-0.7,0.2-1.3,0.3-1.9,0.4c-0.6,0.1-1.2,0.1-1.8,0.1
			c-1.9,0-3.4-0.5-4.3-1.4c-0.9-0.9-1.4-2.5-1.4-4.7V570z"/>
		<path id="XMLID_107_" fill="#FF0050" d="M526.6,559.8h4.9v4.3h-4.9V559.8z M526.6,566.3h4.8V584h-4.8V566.3z"/>
		<path id="XMLID_110_" fill="#FF0050" d="M544,584.5c-2.9,0-5.1-0.8-6.6-2.4c-1.6-1.6-2.3-4-2.3-7c0-1.4,0.2-2.8,0.6-3.9
			c0.4-1.2,1-2.1,1.8-3c0.8-0.8,1.7-1.4,2.8-1.9c1.1-0.4,2.3-0.6,3.7-0.6c1.4,0,2.6,0.2,3.7,0.6c1.1,0.4,2.1,1,2.8,1.9
			c0.8,0.8,1.4,1.8,1.8,3c0.4,1.2,0.6,2.5,0.6,3.9c0,1.5-0.2,2.8-0.6,4s-1,2.2-1.8,3c-0.8,0.8-1.7,1.4-2.8,1.9
			C546.6,584.3,545.3,584.5,544,584.5z M544,580.7c1.4,0,2.4-0.5,3-1.5c0.7-1,1-2.4,1-4.2s-0.3-3.2-1-4.1c-0.7-1-1.7-1.4-3-1.4
			s-2.4,0.5-3,1.4c-0.7,1-1,2.3-1,4.1c0,1.8,0.3,3.2,1,4.2C541.6,580.2,542.6,580.7,544,580.7z"/>
		<path id="XMLID_117_" fill="#FF0050" d="M556.5,566.3h4.6v2.4c0.7-1,1.5-1.8,2.5-2.3s2-0.7,3-0.7c2,0,3.5,0.5,4.5,1.6
			c1,1.1,1.5,2.7,1.5,5V584h-4.8v-11.1c0-1.2-0.2-2.1-0.7-2.5c-0.5-0.5-1.1-0.7-1.9-0.7c-0.6,0-1.1,0.1-1.6,0.3
			c-0.4,0.2-0.9,0.4-1.2,0.8c-0.3,0.3-0.6,0.7-0.8,1.1c-0.2,0.4-0.3,0.9-0.3,1.4V584h-4.8V566.3z"/>
		<path id="XMLID_139_" fill="#FF0050" d="M423.2,595.3h5.1v9.4h9.6v-9.4h5.1v24.2h-5.1v-10.2h-9.6v10.2h-5.1V595.3z"/>
		<path id="XMLID_141_" fill="#FF0050" d="M458,617.3c-0.7,0.8-1.5,1.4-2.4,1.9c-0.9,0.5-2,0.7-3.4,0.7c-0.8,0-1.5-0.1-2.3-0.3
			c-0.7-0.2-1.3-0.5-1.9-1c-0.5-0.4-1-1-1.3-1.6c-0.3-0.7-0.5-1.5-0.5-2.4c0-1.2,0.3-2.2,0.8-3s1.3-1.4,2.1-1.8
			c0.9-0.4,1.9-0.7,3-0.9c1.1-0.2,2.2-0.3,3.3-0.3l2.3-0.1v-0.9c0-1.1-0.3-1.8-0.9-2.2s-1.3-0.6-2.1-0.6c-1.9,0-3,0.7-3.2,2.1
			l-4.3-0.4c0.3-1.9,1.1-3.2,2.4-4c1.3-0.8,3.1-1.2,5.3-1.2c1.4,0,2.5,0.2,3.5,0.5c1,0.3,1.7,0.8,2.3,1.4c0.6,0.6,1,1.4,1.3,2.2
			c0.3,0.9,0.4,1.9,0.4,2.9v11.2H458V617.3z M457.9,611.6l-2.1,0.1c-1,0-1.8,0.1-2.4,0.3c-0.6,0.2-1.1,0.4-1.4,0.6
			c-0.3,0.2-0.5,0.5-0.7,0.8c-0.1,0.3-0.2,0.7-0.2,1.1c0,0.6,0.2,1.1,0.6,1.4c0.4,0.3,1,0.5,1.7,0.5c1.2,0,2.2-0.3,3-0.8
			c0.4-0.3,0.8-0.7,1.1-1.2c0.3-0.5,0.4-1.1,0.4-1.8V611.6z"/>
		<path id="XMLID_144_" fill="#FF0050" d="M466.6,601.8h4.6v2.4c0.7-1,1.5-1.8,2.5-2.3c1-0.5,2-0.7,3-0.7c2,0,3.5,0.5,4.5,1.6
			c1,1.1,1.5,2.7,1.5,5v11.7h-4.8v-11.1c0-1.2-0.2-2.1-0.7-2.5c-0.5-0.5-1.1-0.7-1.9-0.7c-0.6,0-1.1,0.1-1.6,0.3
			c-0.4,0.2-0.9,0.4-1.2,0.8c-0.3,0.3-0.6,0.7-0.8,1.1s-0.3,0.9-0.3,1.4v10.7h-4.8V601.8z"/>
		<path id="XMLID_146_" fill="#FF0050" d="M498.9,617.2c-1.4,1.9-3.2,2.9-5.5,2.9c-2.5,0-4.3-0.8-5.6-2.5c-1.2-1.7-1.8-4-1.8-7
			c0-1.4,0.2-2.6,0.5-3.8s0.9-2.1,1.5-3c0.7-0.8,1.5-1.5,2.4-1.9c1-0.5,2-0.7,3.2-0.7c0.9,0,1.8,0.2,2.6,0.5
			c0.9,0.3,1.7,0.9,2.5,1.8v-8.3h4.8v24.2h-4.6V617.2z M498.8,610.5c0-1.1-0.1-2-0.3-2.7c-0.2-0.7-0.5-1.2-0.9-1.7
			c-0.4-0.4-0.9-0.7-1.3-0.8c-0.5-0.1-1-0.2-1.4-0.2c-0.5,0-1,0.1-1.5,0.3c-0.5,0.2-0.9,0.5-1.2,1s-0.6,1-0.8,1.7
			c-0.2,0.7-0.3,1.5-0.3,2.5c0,1.1,0.1,2,0.3,2.7s0.5,1.3,0.8,1.7c0.3,0.4,0.7,0.8,1.2,1c0.5,0.2,0.9,0.3,1.5,0.3
			c1.1,0,2.1-0.3,2.8-1c0.5-0.5,0.8-1,1-1.6c0.2-0.6,0.3-1.5,0.3-2.5V610.5z"/>
		<path id="XMLID_262_" fill="#FF0050" d="M507.8,595.3h4.8v24.2h-4.8V595.3z"/>
		<path id="XMLID_264_" fill="#FF0050" d="M533,614c-0.3,2-1.1,3.5-2.4,4.5s-3.1,1.5-5.6,1.5c-2.9,0-5.2-0.8-6.6-2.4
			c-1.5-1.6-2.2-3.9-2.2-6.9c0-1.5,0.2-2.8,0.6-4c0.4-1.2,1-2.2,1.8-3s1.7-1.4,2.8-1.8c1.1-0.4,2.3-0.6,3.6-0.6
			c2.7,0,4.8,0.8,6.1,2.3s2.1,3.7,2.1,6.3v1.9h-12.3c0,1.4,0.4,2.5,1.1,3.3c0.7,0.8,1.7,1.2,3.1,1.2c1.9,0,3-0.8,3.3-2.4H533z
			 M528.6,608.7c0-1.2-0.3-2.2-0.9-2.9c-0.6-0.7-1.5-1-2.8-1c-0.6,0-1.2,0.1-1.7,0.3c-0.5,0.2-0.9,0.5-1.2,0.8
			c-0.3,0.4-0.6,0.8-0.8,1.2c-0.2,0.5-0.3,1-0.3,1.5H528.6z"/>
		<path id="XMLID_267_" fill="#FF0050" d="M536.8,601.8h4.6v2.5c0.6-0.9,1.3-1.6,2.1-2.1c0.8-0.5,1.7-0.7,2.6-0.7
			c0.5,0,0.8,0,1.1,0.1s0.6,0.1,0.8,0.1l-0.6,4.3c-0.5-0.1-1.2-0.2-2-0.2c-0.5,0-1,0.1-1.5,0.2c-0.5,0.1-0.9,0.4-1.3,0.7
			c-0.4,0.4-0.7,0.8-0.9,1.2c-0.2,0.5-0.3,0.9-0.3,1.4v10.2h-4.8V601.8z"/>
		<path id="XMLID_269_" fill="#FF0050" d="M554.1,613.9c0.2,1,0.6,1.7,1.3,2c0.7,0.3,1.5,0.5,2.4,0.5c1.1,0,1.9-0.1,2.4-0.4
			c0.5-0.3,0.7-0.7,0.7-1.4c0-0.5-0.2-0.8-0.5-1.2c-0.3-0.3-0.9-0.6-1.7-0.7l-2.4-0.4c-2.1-0.3-3.8-0.9-4.8-1.7
			c-1.1-0.8-1.6-2.1-1.6-3.8c0-0.9,0.2-1.6,0.6-2.3c0.4-0.7,0.9-1.3,1.6-1.7c0.7-0.5,1.5-0.8,2.4-1.1c0.9-0.3,2-0.4,3.1-0.4
			c1.4,0,2.6,0.1,3.5,0.4c1,0.3,1.7,0.7,2.3,1.1c0.6,0.5,1.1,1,1.4,1.7c0.3,0.7,0.5,1.4,0.7,2.1l-4.2,0.5c-0.2-0.8-0.6-1.4-1.1-1.8
			s-1.3-0.6-2.5-0.6c-0.6,0-1.2,0.1-1.6,0.2c-0.4,0.1-0.7,0.2-1,0.4c-0.2,0.2-0.4,0.3-0.5,0.5c-0.1,0.2-0.2,0.4-0.2,0.6
			c0,0.6,0.2,1,0.5,1.2s1,0.5,2.1,0.7l2.2,0.4c1.2,0.2,2.3,0.5,3.1,0.8c0.8,0.3,1.5,0.7,2,1.2c0.5,0.5,0.8,1,1,1.6
			c0.2,0.6,0.3,1.4,0.3,2.2c0,1.7-0.6,3-1.9,4c-1.3,1-3.2,1.5-5.9,1.5c-1.1,0-2.1-0.1-3-0.3s-1.8-0.5-2.6-1
			c-0.8-0.5-1.4-1.1-1.9-1.9c-0.5-0.8-0.8-1.8-0.8-3H554.1z"/>
	</g>
</g>
<g id="XMLID_185_">
	<g id="XMLID_187_">
		<path id="XMLID_215_" fill="#FFFFFF" d="M689.5,568.9c-53.5,0-97-43.5-97-97c0-53.5,43.5-97,97-97s97,43.5,97,97
			C786.4,525.4,742.9,568.9,689.5,568.9z"/>
		<path id="XMLID_210_" fill="#FF0050" d="M689.5,378.5c51.5,0,93.5,41.9,93.5,93.5s-41.9,93.5-93.5,93.5
			c-51.5,0-93.5-41.9-93.5-93.5S638,378.5,689.5,378.5 M689.5,371.5c-55.5,0-100.5,45-100.5,100.5s45,100.5,100.5,100.5
			c55.5,0,100.5-45,100.5-100.5S745,371.5,689.5,371.5L689.5,371.5z"/>
	</g>
	<g id="XMLID_186_">
		<path id="XMLID_52_" fill="#FF0050" d="M605.7,459.8h6.1l6,18.1l6.2-18.1h5.9V484h-4.6v-16.2l-5.5,16.2h-3.9l-5.6-16.1V484h-4.5
			V459.8z"/>
		<path id="XMLID_56_" fill="#FF0050" d="M641.5,484.5c-2.9,0-5.1-0.8-6.6-2.4c-1.6-1.6-2.3-4-2.3-7c0-1.4,0.2-2.8,0.6-3.9
			c0.4-1.2,1-2.1,1.8-3s1.7-1.4,2.8-1.9c1.1-0.4,2.3-0.6,3.7-0.6c1.4,0,2.6,0.2,3.7,0.6c1.1,0.4,2.1,1,2.8,1.9
			c0.8,0.8,1.4,1.8,1.8,3c0.4,1.2,0.6,2.5,0.6,3.9c0,1.5-0.2,2.8-0.6,4c-0.4,1.2-1,2.2-1.8,3c-0.8,0.8-1.7,1.4-2.8,1.9
			C644.1,484.3,642.9,484.5,641.5,484.5z M641.5,480.7c1.4,0,2.4-0.5,3-1.5c0.7-1,1-2.4,1-4.2c0-1.8-0.3-3.2-1-4.1
			c-0.7-1-1.7-1.4-3-1.4c-1.4,0-2.4,0.5-3,1.4c-0.7,1-1,2.3-1,4.1c0,1.8,0.3,3.2,1,4.2C639.1,480.2,640.1,480.7,641.5,480.7z"/>
		<path id="XMLID_59_" fill="#FF0050" d="M665,481.6c-1.4,1.9-3.2,2.9-5.5,2.9c-2.5,0-4.3-0.8-5.6-2.5c-1.2-1.7-1.8-4-1.8-7
			c0-1.4,0.2-2.6,0.5-3.8c0.4-1.1,0.9-2.1,1.5-3c0.7-0.8,1.5-1.5,2.4-1.9s2-0.7,3.2-0.7c0.9,0,1.8,0.2,2.6,0.5s1.7,0.9,2.5,1.8v-8.3
			h4.8V484H665V481.6z M664.9,474.9c0-1.1-0.1-2-0.3-2.7c-0.2-0.7-0.5-1.2-0.9-1.7c-0.4-0.4-0.9-0.7-1.3-0.8c-0.5-0.1-1-0.2-1.4-0.2
			c-0.5,0-1,0.1-1.5,0.3s-0.9,0.5-1.2,1c-0.4,0.4-0.6,1-0.8,1.7c-0.2,0.7-0.3,1.5-0.3,2.5c0,1.1,0.1,2,0.3,2.7
			c0.2,0.7,0.5,1.3,0.8,1.7c0.3,0.4,0.7,0.8,1.2,1c0.5,0.2,0.9,0.3,1.5,0.3c1.1,0,2.1-0.3,2.8-1c0.5-0.5,0.8-1,1-1.6
			c0.2-0.6,0.3-1.5,0.3-2.5V474.9z"/>
		<path id="XMLID_62_" fill="#FF0050" d="M672.3,466.3h4.8v11.1c0,1.3,0.2,2.1,0.7,2.6c0.5,0.4,1.1,0.7,1.9,0.7
			c0.6,0,1.1-0.1,1.5-0.3c0.4-0.2,0.8-0.4,1.1-0.8c0.4-0.3,0.7-0.7,0.9-1.1c0.2-0.4,0.3-0.9,0.3-1.4v-10.7h4.8V484h-4.6v-2.4
			c-0.7,1-1.5,1.8-2.5,2.3c-0.9,0.5-1.9,0.7-2.9,0.7c-2,0-3.5-0.5-4.4-1.6s-1.4-2.7-1.4-5V466.3z"/>
		<path id="XMLID_64_" fill="#FF0050" d="M691.1,459.8h4.8V484h-4.8V459.8z"/>
		<path id="XMLID_66_" fill="#FF0050" d="M709.2,481.7c-0.7,0.8-1.5,1.4-2.4,1.9c-0.9,0.5-2,0.7-3.4,0.7c-0.8,0-1.5-0.1-2.3-0.3
			s-1.3-0.5-1.9-1c-0.5-0.4-1-1-1.3-1.6c-0.3-0.7-0.5-1.5-0.5-2.4c0-1.2,0.3-2.2,0.8-3c0.5-0.8,1.3-1.4,2.1-1.8
			c0.9-0.4,1.9-0.7,3-0.9c1.1-0.2,2.2-0.3,3.3-0.3l2.3-0.1v-0.9c0-1.1-0.3-1.8-0.9-2.2c-0.6-0.4-1.3-0.6-2.1-0.6
			c-1.9,0-3,0.7-3.2,2.1l-4.3-0.4c0.3-1.9,1.1-3.2,2.4-4c1.3-0.8,3.1-1.2,5.3-1.2c1.4,0,2.5,0.2,3.5,0.5s1.7,0.8,2.3,1.4
			c0.6,0.6,1,1.4,1.3,2.2c0.3,0.9,0.4,1.9,0.4,2.9V484h-4.5V481.7z M709.1,476.1l-2.1,0.1c-1,0-1.8,0.1-2.4,0.3
			c-0.6,0.2-1.1,0.4-1.4,0.6c-0.3,0.2-0.5,0.5-0.7,0.8c-0.1,0.3-0.2,0.7-0.2,1.1c0,0.6,0.2,1.1,0.6,1.4s1,0.5,1.7,0.5
			c1.2,0,2.2-0.3,3-0.8c0.4-0.3,0.8-0.7,1.1-1.2c0.3-0.5,0.4-1.1,0.4-1.8V476.1z"/>
		<path id="XMLID_69_" fill="#FF0050" d="M717.5,470h-2.8v-3.7h2.8v-4.7h4.8v4.7h4.1v3.7h-4.1v8.2c0,0.9,0.2,1.6,0.6,1.9
			c0.4,0.3,0.9,0.5,1.5,0.5c0.3,0,0.6,0,1-0.1c0.3,0,0.6-0.1,1-0.2l0.7,3.5c-0.7,0.2-1.3,0.3-1.9,0.4c-0.6,0.1-1.2,0.1-1.8,0.1
			c-1.9,0-3.4-0.5-4.3-1.4c-0.9-0.9-1.4-2.5-1.4-4.7V470z"/>
		<path id="XMLID_74_" fill="#FF0050" d="M735.9,484.5c-2.9,0-5.1-0.8-6.6-2.4c-1.6-1.6-2.3-4-2.3-7c0-1.4,0.2-2.8,0.6-3.9
			c0.4-1.2,1-2.1,1.8-3c0.8-0.8,1.7-1.4,2.8-1.9c1.1-0.4,2.3-0.6,3.7-0.6c1.4,0,2.6,0.2,3.7,0.6c1.1,0.4,2.1,1,2.8,1.9
			s1.4,1.8,1.8,3c0.4,1.2,0.6,2.5,0.6,3.9c0,1.5-0.2,2.8-0.6,4c-0.4,1.2-1,2.2-1.8,3c-0.8,0.8-1.7,1.4-2.8,1.9
			C738.5,484.3,737.3,484.5,735.9,484.5z M735.9,480.7c1.4,0,2.4-0.5,3-1.5c0.7-1,1-2.4,1-4.2c0-1.8-0.3-3.2-1-4.1
			c-0.7-1-1.7-1.4-3-1.4s-2.4,0.5-3,1.4c-0.7,1-1,2.3-1,4.1c0,1.8,0.3,3.2,1,4.2C733.5,480.2,734.5,480.7,735.9,480.7z"/>
		<path id="XMLID_77_" fill="#FF0050" d="M747.1,466.3h4.6v2.5c0.6-0.9,1.3-1.6,2.1-2.1c0.8-0.5,1.7-0.7,2.6-0.7
			c0.5,0,0.8,0,1.1,0.1c0.3,0,0.6,0.1,0.8,0.1l-0.6,4.3c-0.5-0.1-1.2-0.2-2-0.2c-0.5,0-1,0.1-1.5,0.2c-0.5,0.1-0.9,0.4-1.3,0.7
			c-0.4,0.4-0.7,0.8-0.9,1.2c-0.2,0.5-0.3,0.9-0.3,1.4V484h-4.8V466.3z"/>
		<path id="XMLID_79_" fill="#FF0050" d="M763.1,478.4c0.2,1,0.6,1.7,1.3,2s1.5,0.5,2.4,0.5c1.1,0,1.9-0.1,2.4-0.4
			c0.5-0.3,0.7-0.7,0.7-1.4c0-0.5-0.2-0.8-0.5-1.2c-0.3-0.3-0.9-0.6-1.7-0.7l-2.4-0.4c-2.1-0.3-3.8-0.9-4.8-1.7
			c-1.1-0.8-1.6-2.1-1.6-3.8c0-0.9,0.2-1.6,0.6-2.3c0.4-0.7,0.9-1.3,1.6-1.7s1.5-0.8,2.4-1.1c0.9-0.3,2-0.4,3.1-0.4
			c1.4,0,2.6,0.1,3.5,0.4c1,0.3,1.7,0.7,2.3,1.1s1.1,1,1.4,1.7c0.3,0.7,0.5,1.4,0.7,2.1l-4.2,0.5c-0.2-0.8-0.6-1.4-1.1-1.8
			s-1.3-0.6-2.5-0.6c-0.6,0-1.2,0.1-1.6,0.2c-0.4,0.1-0.7,0.2-1,0.4c-0.2,0.2-0.4,0.3-0.5,0.5s-0.2,0.4-0.2,0.6c0,0.6,0.2,1,0.5,1.2
			c0.4,0.3,1,0.5,2.1,0.7l2.2,0.4c1.2,0.2,2.3,0.5,3.1,0.8c0.8,0.3,1.5,0.7,2,1.2c0.5,0.5,0.8,1,1,1.6c0.2,0.6,0.3,1.4,0.3,2.2
			c0,1.7-0.6,3-1.9,4c-1.3,1-3.2,1.5-5.9,1.5c-1.1,0-2.1-0.1-3-0.3s-1.8-0.5-2.6-1c-0.8-0.5-1.4-1.1-1.9-1.9c-0.5-0.8-0.8-1.8-0.8-3
			H763.1z"/>
	</g>
</g>
<g id="XMLID_49_">
</g>
<g id="XMLID_432_">
</g>
<g id="XMLID_433_">
</g>
<g id="XMLID_434_">
</g>
<g id="XMLID_435_">
</g>
<g id="XMLID_436_">
</g>
<g id="XMLID_437_">
</g>
<g id="XMLID_438_">
</g>
<g id="XMLID_439_">
</g>
<g id="XMLID_440_">
</g>
<g id="XMLID_441_">
</g>
<g id="XMLID_442_">
</g>
<g id="XMLID_443_">
</g>
<g id="XMLID_444_">
</g>
<g id="XMLID_445_">
</g>
<g id="XMLID_446_">
</g>
</svg>
