<?xml version="1.0" encoding="utf-8"?>
<!-- Generator: Adobe Illustrator 19.1.0, SVG Export Plug-In . SVG Version: 6.00 Build 0)  -->
<svg version="1.0" id="Layer_1" xmlns="http://www.w3.org/2000/svg" xmlns:xlink="http://www.w3.org/1999/xlink" x="0px" y="0px"
	 viewBox="0 0 3997 1620.1" enable-background="new 0 0 3997 1620.1" xml:space="preserve">
<g>
	<g>
		<path fill="#7596FF" d="M0,1079c0-36.6,29-65.6,65.6-65.6h211.3c68.2,0,121.8,18.7,155.9,52.8c27.3,27.3,40.9,60.5,40.9,101.4v1.7
			c0,67.3-35.8,104.8-78.4,128.6c69,26.4,111.6,66.5,111.6,146.6v1.7c0,109.1-88.6,163.6-223.2,163.6H65.6
			c-36.6,0-65.6-29-65.6-65.6V1079z M248.8,1254.6c57.9,0,94.6-18.7,94.6-63.1v-1.7c0-39.2-30.6-61.4-86.1-61.4H127.8v126.1H248.8z
			 M283.7,1494.9c57.9,0,92.9-20.5,92.9-64.8v-1.7c0-40.1-29.8-64.7-97.2-64.7H127.8v131.2H283.7z"/>
		<path fill="#7596FF" d="M756.5,1079c0-36.6,29-65.6,65.6-65.6h207.1c75.8,0,134.6,21.3,173.8,60.5c33.2,33.2,51.1,80.1,51.1,136.3
			v1.7c0,93.7-46.8,151.7-119.3,181.5l91.2,110.8c12.8,16.2,21.3,29.8,21.3,50.3c0,36.6-30.7,60.5-62.2,60.5
			c-29.8,0-49.4-14.5-64.7-34.1L992.5,1419H887.7v130.4c0,36.6-29,65.6-65.6,65.6c-36.6,0-65.6-29-65.6-65.6V1079z M1020.6,1303.1
			c63.9,0,100.5-34.1,100.5-84.3v-1.7c0-56.3-39.2-85.2-103.1-85.2H887.7v171.2H1020.6z"/>
		<path fill="#7596FF" d="M1516.6,1073.9c0-36.6,29-65.6,65.6-65.6c36.7,0,65.6,29,65.6,65.6v475.4c0,36.6-29,65.6-65.6,65.6
			c-36.6,0-65.6-29-65.6-65.6V1073.9z"/>
		<path fill="#7596FF" d="M1933.1,1079c0-36.6,29-65.6,65.6-65.6h167c187.4,0,317,128.6,317,296.5v1.7
			c0,167.9-129.5,298.2-317,298.2h-167c-36.6,0-65.6-29-65.6-65.6V1079z M2165.7,1491.4c107.4,0,179.8-72.4,179.8-178.1v-1.7
			c0-105.6-72.4-179.8-179.8-179.8h-101.4v359.5H2165.7z"/>
		<path fill="#7596FF" d="M2703,1313.4v-1.7c0-169.5,132.1-308.4,312.7-308.4c90.3,0,150,20.5,203.6,57.9
			c12.7,9.4,27.3,27.3,27.3,52.8c0,35.8-29,64.7-64.8,64.7c-18.7,0-30.6-6.8-40.1-13.6c-35.7-25.6-74.1-40.9-130.3-40.9
			c-95.4,0-171.3,84.4-171.3,185.7v1.7c0,109.1,75,189.2,180.6,189.2c47.7,0,90.3-11.9,123.5-35.8v-85.2h-88.6
			c-31.5,0-57.1-24.7-57.1-56.2s25.6-57.1,57.1-57.1h150c36.6,0,65.6,29,65.6,65.6V1477c0,38.3-14.5,64.7-46,83.5
			c-48.6,29.8-119.3,59.6-208.7,59.6C2830.8,1620.1,2703,1489.8,2703,1313.4z"/>
		<path fill="#7596FF" d="M3537.7,1544.3V1079c0-36.6,29-65.6,65.6-65.6h330.6c32.4,0,58.8,26.4,58.8,58.8
			c0,32.4-26.4,57.9-58.8,57.9H3668v121h227.5c32.4,0,58.7,26.4,58.7,58.8c0,32.4-26.4,57.9-58.7,57.9H3668v125.2h270.1
			c32.4,0,58.8,26.4,58.8,58.8c0,32.4-26.4,57.9-58.8,57.9h-334.9C3566.7,1609.9,3537.7,1580.9,3537.7,1544.3z"/>
	</g>
	<path fill="#7596FF" d="M3914.3,671.8C3361,232.3,2695.1,0,1988.5,0S615.9,232.3,62.6,671.8c-29.5,23.4-34.4,66.3-11,95.8
		c23.6,29.6,66.5,34.4,95.8,11c263.9-209.6,554.5-369.8,863.4-477.9v424.5c0,37.7,30.6,68.2,68.2,68.2s68.2-30.6,68.2-68.2V257.1
		c248.4-73.3,507.5-113.4,773-119.3v587.4c0,37.7,30.6,68.2,68.2,68.2s68.2-30.6,68.2-68.2V137.8c265.5,5.9,524.6,45.9,773,119.3
		v468.1c0,37.7,30.6,68.2,68.2,68.2c37.7,0,68.2-30.6,68.2-68.2V300.8c308.9,108,599.6,268.3,863.4,477.9
		c12.5,9.9,27.5,14.8,42.4,14.8c20.1,0,40-8.8,53.5-25.8C3948.7,738.1,3943.8,695.3,3914.3,671.8z"/>
</g>
<g>
</g>
<g>
</g>
<g>
</g>
<g>
</g>
<g>
</g>
<g>
</g>
<g>
</g>
<g>
</g>
<g>
</g>
<g>
</g>
<g>
</g>
<g>
</g>
<g>
</g>
<g>
</g>
<g>
</g>
</svg>
