<?xml version="1.0" encoding="utf-8"?>
<!-- Generator: Adobe Illustrator 18.1.1, SVG Export Plug-In . SVG Version: 6.00 Build 0)  -->
<svg version="1.0" id="Layer_1" xmlns="http://www.w3.org/2000/svg" xmlns:xlink="http://www.w3.org/1999/xlink" x="0px" y="0px"
	 viewBox="0 0 781.6 316.8" enable-background="new 0 0 781.6 316.8" xml:space="preserve">
<g>
	<g>
		<path fill="#FF0050" d="M0,211c0-7.2,5.7-12.8,12.8-12.8h41.3c13.3,0,23.8,3.7,30.5,10.3c5.3,5.3,8,11.8,8,19.8v0.3
			c0,13.2-7,20.5-15.3,25.2c13.5,5.2,21.8,13,21.8,28.7v0.3c0,21.3-17.3,32-43.6,32H12.8C5.7,314.8,0,309.1,0,302V211z M48.6,245.3
			c11.3,0,18.5-3.7,18.5-12.3v-0.3c0-7.7-6-12-16.8-12H25v24.7H48.6z M55.5,292.3c11.3,0,18.2-4,18.2-12.7v-0.3
			c0-7.8-5.8-12.7-19-12.7H25v25.7H55.5z"/>
		<path fill="#FF0050" d="M147.9,211c0-7.2,5.7-12.8,12.8-12.8h40.5c14.8,0,26.3,4.2,34,11.8c6.5,6.5,10,15.7,10,26.7v0.3
			c0,18.3-9.2,29.7-23.3,35.5l17.8,21.7c2.5,3.2,4.2,5.8,4.2,9.8c0,7.2-6,11.8-12.2,11.8c-5.8,0-9.7-2.8-12.7-6.7l-25-31.7h-20.5
			V303c0,7.2-5.7,12.8-12.8,12.8s-12.8-5.7-12.8-12.8V211z M199.6,254.8c12.5,0,19.7-6.7,19.7-16.5V238c0-11-7.7-16.7-20.2-16.7
			h-25.5v33.5H199.6z"/>
		<path fill="#FF0050" d="M296.6,210c0-7.2,5.7-12.8,12.8-12.8c7.2,0,12.8,5.7,12.8,12.8v93c0,7.2-5.7,12.8-12.8,12.8
			c-7.2,0-12.8-5.7-12.8-12.8V210z"/>
		<path fill="#FF0050" d="M378,211c0-7.2,5.7-12.8,12.8-12.8h32.7c36.7,0,62,25.2,62,58v0.3c0,32.8-25.3,58.3-62,58.3h-32.7
			c-7.2,0-12.8-5.7-12.8-12.8V211z M423.5,291.6c21,0,35.1-14.2,35.1-34.8v-0.3c0-20.7-14.2-35.1-35.1-35.1h-19.8v70.3H423.5z"/>
		<path fill="#FF0050" d="M528.5,256.8v-0.3c0-33.2,25.8-60.3,61.1-60.3c17.7,0,29.3,4,39.8,11.3c2.5,1.8,5.3,5.3,5.3,10.3
			c0,7-5.7,12.7-12.7,12.7c-3.7,0-6-1.3-7.8-2.7c-7-5-14.5-8-25.5-8c-18.7,0-33.5,16.5-33.5,36.3v0.3c0,21.3,14.7,37,35.3,37
			c9.3,0,17.7-2.3,24.2-7v-16.7h-17.3c-6.2,0-11.2-4.8-11.2-11c0-6.2,5-11.2,11.2-11.2h29.3c7.2,0,12.8,5.7,12.8,12.8v28.3
			c0,7.5-2.8,12.7-9,16.3c-9.5,5.8-23.3,11.7-40.8,11.7C553.5,316.8,528.5,291.3,528.5,256.8z"/>
		<path fill="#FF0050" d="M691.8,302v-91c0-7.2,5.7-12.8,12.8-12.8h64.6c6.3,0,11.5,5.2,11.5,11.5c0,6.3-5.2,11.3-11.5,11.3h-52
			v23.7h44.5c6.3,0,11.5,5.2,11.5,11.5s-5.2,11.3-11.5,11.3h-44.5V292h52.8c6.3,0,11.5,5.2,11.5,11.5s-5.2,11.3-11.5,11.3h-65.5
			C697.4,314.8,691.8,309.1,691.8,302z"/>
	</g>
	<path fill="#FF0050" d="M765.4,131.4C657.2,45.4,527,0,388.8,0S120.4,45.4,12.2,131.4c-5.8,4.6-6.7,13-2.2,18.7
		c4.6,5.8,13,6.7,18.7,2.2c51.6-41,108.4-72.3,168.8-93.4v83c0,7.4,6,13.3,13.3,13.3s13.3-6,13.3-13.3V50.3
		c48.6-14.3,99.2-22.2,151.2-23.3v114.9c0,7.4,6,13.3,13.3,13.3c7.4,0,13.3-6,13.3-13.3V26.9c51.9,1.2,102.6,9,151.2,23.3v91.5
		c0,7.4,6,13.3,13.3,13.3s13.3-6,13.3-13.3v-83c60.4,21.1,117.2,52.5,168.8,93.4c2.4,1.9,5.4,2.9,8.3,2.9c3.9,0,7.8-1.7,10.5-5
		C772.1,144.3,771.2,136,765.4,131.4z"/>
</g>
</svg>
