<?xml version="1.0" encoding="utf-8"?>
<!-- Generator: Adobe Illustrator 19.0.0, SVG Export Plug-In . SVG Version: 6.00 Build 0)  -->
<svg version="1.0" id="Layer_1" xmlns="http://www.w3.org/2000/svg" xmlns:xlink="http://www.w3.org/1999/xlink" x="0px" y="0px"
	 viewBox="0 0 1109.7 645.6" enable-background="new 0 0 1109.7 645.6" xml:space="preserve">
<circle id="XMLID_4_" opacity="0.21" fill="none" stroke="#7596FF" stroke-width="7" stroke-miterlimit="10" cx="554.4" cy="322.8" r="278.2"/>
<g id="XMLID_8_">
	<g id="XMLID_10_">
		<path id="XMLID_32_" fill="#FF0050" d="M441.8,305.5c51.5,0,93.5,41.9,93.5,93.5s-41.9,93.5-93.5,93.5s-93.5-41.9-93.5-93.5
			S390.3,305.5,441.8,305.5 M441.8,298.5c-55.5,0-100.5,45-100.5,100.5s45,100.5,100.5,100.5s100.5-45,100.5-100.5
			S497.3,298.5,441.8,298.5L441.8,298.5z"/>
	</g>
	<g id="XMLID_9_">
		<path id="XMLID_370_" fill="#FF0050" d="M438,401.6c-0.1,1.3-0.4,2.5-0.9,3.6c-0.5,1.1-1.2,2-2,2.9c-0.8,0.8-1.9,1.4-3.1,1.9
			c-1.2,0.5-2.7,0.7-4.3,0.7c-1.8,0-3.4-0.3-4.8-0.9c-1.4-0.6-2.6-1.5-3.5-2.6c-0.9-1.1-1.6-2.4-2.1-4c-0.5-1.6-0.7-3.3-0.7-5.2
			c0-2,0.3-3.7,0.8-5.3c0.5-1.6,1.3-2.9,2.2-4c1-1.1,2.1-2,3.5-2.5c1.4-0.6,2.9-0.9,4.7-0.9c1.5,0,2.9,0.2,4,0.6
			c1.1,0.4,2.1,0.9,2.9,1.7c0.8,0.7,1.4,1.6,1.9,2.6c0.5,1,0.8,2.2,1.1,3.4l-5,0.6c-0.2-1.4-0.7-2.5-1.4-3.4
			c-0.7-0.8-1.8-1.2-3.4-1.2c-1.9,0-3.4,0.7-4.4,2.2c-1,1.5-1.5,3.5-1.5,6.2c0,2.7,0.5,4.8,1.6,6.2c1.1,1.4,2.5,2.2,4.3,2.2
			c1.6,0,2.7-0.4,3.4-1.2c0.7-0.8,1.2-2,1.4-3.4H438z"/>
		<path id="XMLID_372_" fill="#FF0050" d="M441.5,385.8h5.1v19.9H458l-0.5,4.3h-16V385.8z"/>
		<path id="XMLID_374_" fill="#FF0050" d="M461.3,385.8h5.1V410h-5.1V385.8z"/>
	</g>
</g>
<g id="XMLID_27_">
	<g id="XMLID_53_">
		<path id="XMLID_55_" fill="#FF0050" d="M554.4,99.9c51.5,0,93.5,41.9,93.5,93.5s-41.9,93.5-93.5,93.5c-51.5,0-93.5-41.9-93.5-93.5
			S502.8,99.9,554.4,99.9 M554.4,92.9c-55.5,0-100.5,45-100.5,100.5s45,100.5,100.5,100.5c55.5,0,100.5-45,100.5-100.5
			S609.8,92.9,554.4,92.9L554.4,92.9z"/>
	</g>
	<g id="XMLID_52_">
		<path id="XMLID_356_" fill="#FF0050" d="M523.4,196c-0.1,1.3-0.4,2.5-0.9,3.6c-0.5,1.1-1.2,2-2,2.9c-0.8,0.8-1.9,1.4-3.1,1.9
			c-1.2,0.5-2.7,0.7-4.3,0.7c-1.8,0-3.4-0.3-4.8-0.9c-1.4-0.6-2.6-1.5-3.5-2.6c-0.9-1.1-1.6-2.4-2.1-4c-0.5-1.6-0.7-3.3-0.7-5.2
			c0-2,0.3-3.7,0.8-5.3c0.5-1.6,1.3-2.9,2.2-4c1-1.1,2.1-2,3.5-2.5c1.4-0.6,2.9-0.9,4.7-0.9c1.5,0,2.9,0.2,4,0.6
			c1.1,0.4,2.1,0.9,2.9,1.7c0.8,0.7,1.4,1.6,1.9,2.6c0.5,1,0.8,2.2,1.1,3.4l-5,0.6c-0.2-1.4-0.7-2.5-1.4-3.4
			c-0.7-0.8-1.8-1.2-3.4-1.2c-1.9,0-3.4,0.7-4.4,2.2c-1,1.5-1.5,3.5-1.5,6.2c0,2.7,0.5,4.8,1.6,6.2c1.1,1.4,2.5,2.2,4.3,2.2
			c1.6,0,2.7-0.4,3.4-1.2c0.7-0.8,1.2-2,1.4-3.4H523.4z"/>
		<path id="XMLID_358_" fill="#FF0050" d="M534.9,204.9c-2.9,0-5.1-0.8-6.6-2.4c-1.6-1.6-2.3-4-2.3-7c0-1.4,0.2-2.8,0.6-3.9
			c0.4-1.2,1-2.1,1.8-3c0.8-0.8,1.7-1.4,2.8-1.9c1.1-0.4,2.3-0.6,3.7-0.6c1.4,0,2.6,0.2,3.7,0.6c1.1,0.4,2.1,1,2.8,1.9
			s1.4,1.8,1.8,3c0.4,1.2,0.6,2.5,0.6,3.9c0,1.5-0.2,2.8-0.6,4c-0.4,1.2-1,2.2-1.8,3c-0.8,0.8-1.7,1.4-2.8,1.9
			C537.5,204.7,536.3,204.9,534.9,204.9z M534.9,201.1c1.4,0,2.4-0.5,3-1.5c0.7-1,1-2.4,1-4.2c0-1.8-0.3-3.2-1-4.1
			c-0.7-1-1.7-1.4-3-1.4c-1.4,0-2.4,0.5-3,1.4c-0.7,1-1,2.3-1,4.1c0,1.8,0.3,3.2,1,4.2C532.5,200.6,533.5,201.1,534.9,201.1z"/>
		<path id="XMLID_361_" fill="#FF0050" d="M547.5,186.7h4.6v2.4c0.7-1,1.5-1.8,2.5-2.3c1-0.5,2-0.7,3-0.7c2,0,3.5,0.5,4.5,1.6
			c1,1.1,1.5,2.7,1.5,5v11.7h-4.8v-11.1c0-1.2-0.2-2.1-0.7-2.5c-0.5-0.5-1.1-0.7-1.9-0.7c-0.6,0-1.1,0.1-1.6,0.3s-0.9,0.4-1.2,0.8
			c-0.3,0.3-0.6,0.7-0.8,1.1c-0.2,0.4-0.3,0.9-0.3,1.4v10.7h-4.8V186.7z"/>
		<path id="XMLID_363_" fill="#FF0050" d="M568.7,190.4h-2.8v-3.7h2.8v-0.6c0-1.1,0.2-2,0.5-2.8c0.3-0.8,0.8-1.4,1.3-1.9
			s1.2-0.9,2-1.1c0.7-0.2,1.6-0.4,2.4-0.4c0.6,0,1.2,0,1.8,0.1c0.6,0.1,1.3,0.2,1.9,0.4l-0.6,3.5c-0.7-0.2-1.4-0.3-2.1-0.3
			c-0.6,0-1.2,0.2-1.7,0.5c-0.5,0.4-0.7,1-0.7,1.9v0.7h4.1v3.7h-4.1v14h-4.8V190.4z M580.4,180.1h4.9v4.3h-4.9V180.1z M580.4,186.7
			h4.8v17.7h-4.8V186.7z"/>
		<path id="XMLID_367_" fill="#FF0050" d="M594.4,205.5c0.1,0.5,0.2,0.8,0.4,1.1s0.4,0.5,0.7,0.6c0.3,0.2,0.6,0.3,1,0.3
			c0.4,0.1,0.9,0.1,1.4,0.1c0.9,0,1.6-0.2,2.1-0.5c0.5-0.3,0.9-0.8,1.1-1.3c0.2-0.5,0.4-1.2,0.4-1.9s0.1-1.4,0.1-2.2v-0.5
			c-0.6,0.9-1.3,1.5-2.3,2c-0.9,0.4-2,0.7-3.1,0.7c-2.5,0-4.4-0.8-5.6-2.4c-1.2-1.6-1.8-3.8-1.8-6.5c0-1.3,0.2-2.5,0.5-3.6
			c0.4-1.1,0.9-2,1.5-2.8c0.7-0.8,1.5-1.4,2.4-1.8c1-0.4,2-0.7,3.2-0.7c1,0,1.9,0.2,2.8,0.5c0.9,0.4,1.7,1,2.5,2v-2h4.6v15.2
			c0,1.5-0.2,2.8-0.5,4c-0.3,1.2-0.8,2.2-1.5,3c-0.7,0.8-1.5,1.4-2.6,1.8c-1.1,0.4-2.4,0.6-3.9,0.6c-1.4,0-2.6-0.1-3.6-0.4
			c-1-0.2-1.8-0.6-2.5-1.1c-0.7-0.5-1.2-1.1-1.5-1.8c-0.4-0.7-0.6-1.6-0.7-2.6H594.4z M601.7,194.9c0-1.1-0.1-1.9-0.4-2.6
			c-0.2-0.7-0.5-1.2-0.9-1.5c-0.4-0.4-0.8-0.6-1.3-0.7c-0.5-0.1-1-0.2-1.4-0.2c-0.5,0-1,0.1-1.5,0.3s-0.9,0.5-1.2,0.9
			c-0.4,0.4-0.6,0.9-0.8,1.6c-0.2,0.6-0.3,1.4-0.3,2.3c0,1.9,0.4,3.2,1.1,4c0.7,0.8,1.6,1.2,2.7,1.2c0.6,0,1.1-0.1,1.6-0.3
			c0.5-0.2,0.9-0.4,1.3-0.8s0.6-0.9,0.8-1.5c0.2-0.6,0.3-1.3,0.3-2.2V194.9z"/>
	</g>
</g>
<g id="XMLID_60_">
	<g id="XMLID_75_">
		
			<line id="XMLID_78_" fill="none" stroke="#FF0050" stroke-width="6" stroke-linecap="round" stroke-linejoin="round" x1="150.7" y1="131.8" x2="150.7" y2="131.8"/>
		
			<line id="XMLID_77_" fill="none" stroke="#FF0050" stroke-width="6" stroke-linecap="round" stroke-linejoin="round" stroke-dasharray="0,11.8423" x1="162.4" y1="133.5" x2="449.2" y2="177.3"/>
		
			<line id="XMLID_76_" fill="none" stroke="#FF0050" stroke-width="6" stroke-linecap="round" stroke-linejoin="round" x1="455" y1="178.2" x2="455" y2="178.2"/>
	</g>
</g>
<g id="XMLID_57_">
	<g id="XMLID_80_">
		
			<line id="XMLID_88_" fill="none" stroke="#FF0050" stroke-width="6" stroke-linecap="round" stroke-linejoin="round" x1="600.5" y1="282.6" x2="600.5" y2="282.6"/>
		
			<line id="XMLID_87_" fill="none" stroke="#FF0050" stroke-width="6" stroke-linecap="round" stroke-linejoin="round" stroke-dasharray="0,11.866" x1="606.6" y1="292.8" x2="663.9" y2="389.9"/>
		
			<line id="XMLID_86_" fill="none" stroke="#FF0050" stroke-width="6" stroke-linecap="round" stroke-linejoin="round" x1="666.9" y1="395" x2="666.9" y2="395"/>
	</g>
</g>
<g id="XMLID_62_">
	<g id="XMLID_83_">
		
			<line id="XMLID_104_" fill="none" stroke="#FF0050" stroke-width="6" stroke-linecap="round" stroke-linejoin="round" x1="542.3" y1="399" x2="542.3" y2="399"/>
		
			<line id="XMLID_85_" fill="none" stroke="#FF0050" stroke-width="6" stroke-linecap="round" stroke-linejoin="round" stroke-dasharray="0,12.4567" x1="554.8" y1="399" x2="660.6" y2="399"/>
		
			<line id="XMLID_84_" fill="none" stroke="#FF0050" stroke-width="6" stroke-linecap="round" stroke-linejoin="round" x1="666.9" y1="399" x2="666.9" y2="399"/>
	</g>
</g>
<g id="XMLID_67_">
	<g id="XMLID_108_">
		<linearGradient id="XMLID_391_" gradientUnits="userSpaceOnUse" x1="209.8072" y1="398.9612" x2="344.3924" y2="398.9612">
			<stop  offset="0" style="stop-color:#FF0050;stop-opacity:0"/>
			<stop  offset="1" style="stop-color:#FF0050"/>
		</linearGradient>
		
			<line id="XMLID_111_" fill="none" stroke="url(#XMLID_391_)" stroke-width="6" stroke-linecap="round" stroke-linejoin="round" x1="212.8" y1="399" x2="212.8" y2="399"/>
		<linearGradient id="XMLID_392_" gradientUnits="userSpaceOnUse" x1="209.8072" y1="398.9612" x2="344.3924" y2="398.9612">
			<stop  offset="0" style="stop-color:#FF0050;stop-opacity:0"/>
			<stop  offset="1" style="stop-color:#FF0050"/>
		</linearGradient>
		
			<line id="XMLID_110_" fill="none" stroke="url(#XMLID_392_)" stroke-width="6" stroke-linecap="round" stroke-linejoin="round" stroke-dasharray="0,11.6896" x1="224.5" y1="399" x2="335.5" y2="399"/>
		<linearGradient id="XMLID_393_" gradientUnits="userSpaceOnUse" x1="209.8072" y1="398.9612" x2="344.3924" y2="398.9612">
			<stop  offset="0" style="stop-color:#FF0050;stop-opacity:0"/>
			<stop  offset="1" style="stop-color:#FF0050"/>
		</linearGradient>
		
			<line id="XMLID_109_" fill="none" stroke="url(#XMLID_393_)" stroke-width="6" stroke-linecap="round" stroke-linejoin="round" x1="341.4" y1="399" x2="341.4" y2="399"/>
	</g>
</g>
<g id="XMLID_63_">
	<g id="XMLID_94_">
		
			<line id="XMLID_99_" fill="none" stroke="#FF0050" stroke-width="6" stroke-linecap="round" stroke-linejoin="round" x1="1007.8" y1="545.1" x2="1007.8" y2="545.1"/>
		
			<line id="XMLID_96_" fill="none" stroke="#FF0050" stroke-width="6" stroke-linecap="round" stroke-linejoin="round" stroke-dasharray="0,12.0161" x1="996.8" y1="540.3" x2="672.4" y2="397.4"/>
		
			<line id="XMLID_95_" fill="none" stroke="#FF0050" stroke-width="6" stroke-linecap="round" stroke-linejoin="round" x1="666.9" y1="395" x2="666.9" y2="395"/>
	</g>
</g>
<g id="XMLID_56_">
	<g id="XMLID_138_">
		
			<line id="XMLID_141_" fill="none" stroke="#FF0050" stroke-width="6" stroke-linecap="round" stroke-linejoin="round" x1="1007.8" y1="321.4" x2="1007.8" y2="321.4"/>
		
			<line id="XMLID_140_" fill="none" stroke="#FF0050" stroke-width="6" stroke-linecap="round" stroke-linejoin="round" stroke-dasharray="0,12.0255" x1="996" y1="323.9" x2="672.8" y2="393.7"/>
		
			<line id="XMLID_139_" fill="none" stroke="#FF0050" stroke-width="6" stroke-linecap="round" stroke-linejoin="round" x1="666.9" y1="395" x2="666.9" y2="395"/>
	</g>
</g>
<g id="XMLID_64_">
	<g id="XMLID_143_">
		
			<line id="XMLID_146_" fill="none" stroke="#FF0050" stroke-width="6" stroke-linecap="round" stroke-linejoin="round" x1="1009.3" y1="100.5" x2="1009.3" y2="100.5"/>
		
			<line id="XMLID_145_" fill="none" stroke="#FF0050" stroke-width="6" stroke-linecap="round" stroke-linejoin="round" stroke-dasharray="0,11.8849" x1="1000.3" y1="108.2" x2="671.4" y2="391.1"/>
		
			<line id="XMLID_144_" fill="none" stroke="#FF0050" stroke-width="6" stroke-linecap="round" stroke-linejoin="round" x1="666.9" y1="395" x2="666.9" y2="395"/>
	</g>
</g>
<g id="XMLID_5_">
	<circle id="XMLID_7_" fill="#FF0050" cx="666.9" cy="399" r="100.5"/>
	<g id="XMLID_6_">
		<path id="XMLID_317_" fill="#FFFFFF" d="M610.8,387.1c0.1,1.5,0.6,2.6,1.4,3.3s2.1,1,3.8,1c0.8,0,1.5-0.1,2-0.3
			c0.5-0.2,1-0.4,1.3-0.7c0.3-0.3,0.6-0.6,0.7-1c0.1-0.4,0.2-0.8,0.2-1.3c0-0.6-0.2-1.2-0.7-1.8c-0.5-0.6-1.3-1-2.6-1.2l-3.2-0.6
			c-1.2-0.2-2.3-0.5-3.3-0.9c-1-0.4-1.7-0.8-2.4-1.4c-0.6-0.6-1.1-1.3-1.5-2.1c-0.3-0.8-0.5-1.8-0.5-3c0-1.2,0.2-2.2,0.7-3.1
			c0.5-0.9,1.1-1.6,1.9-2.2c0.8-0.6,1.8-1,3-1.3c1.2-0.3,2.4-0.5,3.8-0.5c1.8,0,3.2,0.2,4.4,0.6c1.2,0.4,2.1,0.9,2.9,1.6
			c0.7,0.7,1.3,1.4,1.6,2.3s0.6,1.8,0.7,2.7l-4.8,0.6c-0.2-1.3-0.7-2.3-1.4-2.9c-0.7-0.6-1.8-0.9-3.2-0.9c-0.9,0-1.6,0.1-2.1,0.2
			c-0.6,0.1-1,0.3-1.3,0.6c-0.3,0.2-0.6,0.5-0.7,0.8c-0.1,0.3-0.2,0.6-0.2,1c0,0.9,0.3,1.6,0.8,2c0.5,0.5,1.4,0.8,2.6,1.1l3.3,0.6
			c2.6,0.5,4.5,1.4,5.8,2.5c1.2,1.2,1.8,2.8,1.8,5c0,1.1-0.2,2-0.6,2.9c-0.4,0.9-1,1.7-1.8,2.3s-1.8,1.2-2.9,1.6
			c-1.2,0.4-2.6,0.6-4.1,0.6c-3.3,0-5.8-0.7-7.6-2.1c-1.8-1.4-2.7-3.5-2.8-6.4H610.8z"/>
		<path id="XMLID_319_" fill="#FFFFFF" d="M644.9,389.4c-0.3,2-1.1,3.5-2.4,4.5c-1.3,1-3.1,1.5-5.6,1.5c-2.9,0-5.2-0.8-6.6-2.4
			c-1.5-1.6-2.2-3.9-2.2-6.9c0-1.5,0.2-2.8,0.6-4c0.4-1.2,1-2.2,1.8-3c0.8-0.8,1.7-1.4,2.8-1.8c1.1-0.4,2.3-0.6,3.6-0.6
			c2.7,0,4.8,0.8,6.1,2.3s2.1,3.7,2.1,6.3v1.9h-12.3c0,1.4,0.4,2.5,1.1,3.3c0.7,0.8,1.7,1.2,3.1,1.2c1.9,0,3-0.8,3.3-2.4H644.9z
			 M640.5,384.1c0-1.2-0.3-2.2-0.9-2.9s-1.5-1-2.8-1c-0.6,0-1.2,0.1-1.7,0.3c-0.5,0.2-0.9,0.5-1.2,0.8c-0.3,0.4-0.6,0.8-0.8,1.2
			c-0.2,0.5-0.3,1-0.3,1.5H640.5z"/>
		<path id="XMLID_322_" fill="#FFFFFF" d="M648.7,377.2h4.6v2.5c0.6-0.9,1.3-1.6,2.1-2.1c0.8-0.5,1.7-0.7,2.6-0.7
			c0.5,0,0.8,0,1.1,0.1c0.3,0,0.6,0.1,0.8,0.1l-0.6,4.3c-0.5-0.1-1.2-0.2-2-0.2c-0.5,0-1,0.1-1.5,0.2c-0.5,0.1-0.9,0.4-1.3,0.7
			c-0.4,0.4-0.7,0.8-0.9,1.2c-0.2,0.5-0.3,0.9-0.3,1.4V395h-4.8V377.2z"/>
		<path id="XMLID_324_" fill="#FFFFFF" d="M661.8,377.2h5.5l4,12.3l4-12.3h5.3l-7,17.7h-4.8L661.8,377.2z"/>
		<path id="XMLID_326_" fill="#FFFFFF" d="M682.8,370.7h4.9v4.3h-4.9V370.7z M682.9,377.2h4.8V395h-4.8V377.2z"/>
		<path id="XMLID_329_" fill="#FFFFFF" d="M707.8,388.5c-0.2,2.1-0.9,3.8-2.2,5.1c-1.3,1.3-3.2,1.9-5.8,1.9c-1.5,0-2.8-0.2-3.9-0.7
			c-1.1-0.5-2-1.1-2.7-1.9c-0.7-0.8-1.2-1.8-1.5-3c-0.3-1.2-0.5-2.4-0.5-3.8c0-1.4,0.2-2.7,0.6-3.9c0.4-1.2,1-2.2,1.7-3
			c0.7-0.8,1.7-1.5,2.7-1.9s2.3-0.7,3.7-0.7c1.2,0,2.2,0.2,3.1,0.5c0.9,0.3,1.6,0.7,2.3,1.3c0.6,0.5,1.1,1.2,1.4,2
			c0.3,0.8,0.6,1.6,0.7,2.5l-4.8,0.6c-0.1-0.9-0.4-1.6-0.8-2.2c-0.4-0.6-1.1-0.8-2.1-0.8c-0.7,0-1.3,0.2-1.8,0.5
			c-0.5,0.3-0.9,0.7-1.1,1.2c-0.3,0.5-0.5,1.1-0.6,1.8c-0.1,0.7-0.2,1.4-0.2,2.1c0,0.7,0.1,1.5,0.2,2.1c0.1,0.7,0.3,1.3,0.6,1.8
			c0.3,0.5,0.6,0.9,1.1,1.2c0.5,0.3,1.1,0.5,1.8,0.5c1,0,1.7-0.3,2.2-0.8c0.5-0.5,0.8-1.3,0.9-2.3H707.8z"/>
		<path id="XMLID_331_" fill="#FFFFFF" d="M727.4,389.4c-0.3,2-1.1,3.5-2.4,4.5c-1.3,1-3.1,1.5-5.6,1.5c-2.9,0-5.2-0.8-6.6-2.4
			c-1.5-1.6-2.2-3.9-2.2-6.9c0-1.5,0.2-2.8,0.6-4c0.4-1.2,1-2.2,1.8-3s1.7-1.4,2.8-1.8c1.1-0.4,2.3-0.6,3.6-0.6
			c2.7,0,4.8,0.8,6.1,2.3s2.1,3.7,2.1,6.3v1.9h-12.3c0,1.4,0.4,2.5,1.1,3.3s1.7,1.2,3.1,1.2c1.9,0,3-0.8,3.3-2.4H727.4z M723,384.1
			c0-1.2-0.3-2.2-0.9-2.9c-0.6-0.7-1.5-1-2.8-1c-0.6,0-1.2,0.1-1.7,0.3c-0.5,0.2-0.9,0.5-1.2,0.8c-0.3,0.4-0.6,0.8-0.8,1.2
			c-0.2,0.5-0.3,1-0.3,1.5H723z"/>
		<path id="XMLID_334_" fill="#FFFFFF" d="M609.8,422.1c-0.1,1.3-0.4,2.5-0.9,3.6c-0.5,1.1-1.2,2-2,2.9c-0.8,0.8-1.9,1.4-3.1,1.9
			c-1.2,0.5-2.7,0.7-4.3,0.7c-1.8,0-3.4-0.3-4.8-0.9c-1.4-0.6-2.6-1.5-3.5-2.6c-0.9-1.1-1.6-2.4-2.1-4c-0.5-1.6-0.7-3.3-0.7-5.2
			c0-2,0.3-3.7,0.8-5.3c0.5-1.6,1.3-2.9,2.2-4c1-1.1,2.1-2,3.5-2.5s2.9-0.9,4.7-0.9c1.5,0,2.9,0.2,4,0.6c1.1,0.4,2.1,0.9,2.9,1.7
			c0.8,0.7,1.4,1.6,1.9,2.6c0.5,1,0.8,2.2,1.1,3.4l-5,0.6c-0.2-1.4-0.7-2.5-1.4-3.4c-0.7-0.8-1.8-1.2-3.4-1.2
			c-1.9,0-3.4,0.7-4.4,2.2s-1.5,3.5-1.5,6.2c0,2.7,0.5,4.8,1.6,6.2c1.1,1.4,2.5,2.2,4.3,2.2c1.6,0,2.7-0.4,3.4-1.2
			c0.7-0.8,1.2-2,1.4-3.4H609.8z"/>
		<path id="XMLID_336_" fill="#FFFFFF" d="M621.3,431.1c-2.9,0-5.1-0.8-6.6-2.4c-1.6-1.6-2.3-4-2.3-7c0-1.4,0.2-2.8,0.6-3.9
			c0.4-1.2,1-2.1,1.8-3s1.7-1.4,2.8-1.9c1.1-0.4,2.3-0.6,3.7-0.6c1.4,0,2.6,0.2,3.7,0.6c1.1,0.4,2.1,1,2.8,1.9
			c0.8,0.8,1.4,1.8,1.8,3c0.4,1.2,0.6,2.5,0.6,3.9c0,1.5-0.2,2.8-0.6,4c-0.4,1.2-1,2.2-1.8,3c-0.8,0.8-1.7,1.4-2.8,1.9
			C623.9,430.8,622.7,431.1,621.3,431.1z M621.3,427.3c1.4,0,2.4-0.5,3-1.5c0.7-1,1-2.4,1-4.2c0-1.8-0.3-3.2-1-4.1
			c-0.7-1-1.7-1.4-3-1.4c-1.4,0-2.4,0.5-3,1.4c-0.7,1-1,2.3-1,4.1c0,1.8,0.3,3.2,1,4.2C618.9,426.8,619.9,427.3,621.3,427.3z"/>
		<path id="XMLID_339_" fill="#FFFFFF" d="M633.9,412.8h4.6v2.4c0.7-1,1.5-1.8,2.5-2.3c1-0.5,2-0.7,3-0.7c2,0,3.5,0.5,4.5,1.6
			s1.5,2.7,1.5,5v11.7h-4.8v-11.1c0-1.2-0.2-2.1-0.7-2.5s-1.1-0.7-1.9-0.7c-0.6,0-1.1,0.1-1.6,0.3c-0.4,0.2-0.9,0.4-1.2,0.8
			c-0.3,0.3-0.6,0.7-0.8,1.1s-0.3,0.9-0.3,1.4v10.7h-4.8V412.8z"/>
		<path id="XMLID_341_" fill="#FFFFFF" d="M655,416.5h-2.8v-3.7h2.8v-4.7h4.8v4.7h4.1v3.7h-4.1v8.2c0,0.9,0.2,1.6,0.6,1.9
			c0.4,0.3,0.9,0.5,1.5,0.5c0.3,0,0.6,0,1-0.1c0.3,0,0.7-0.1,1-0.2l0.7,3.5c-0.7,0.2-1.3,0.3-1.9,0.4c-0.6,0.1-1.2,0.1-1.8,0.1
			c-1.9,0-3.4-0.5-4.3-1.4c-0.9-0.9-1.4-2.5-1.4-4.7V416.5z"/>
		<path id="XMLID_343_" fill="#FFFFFF" d="M677.3,428.3c-0.7,0.8-1.5,1.4-2.4,1.9c-0.9,0.5-2,0.7-3.4,0.7c-0.8,0-1.5-0.1-2.3-0.3
			s-1.3-0.5-1.9-1c-0.5-0.4-1-1-1.3-1.6c-0.3-0.7-0.5-1.5-0.5-2.4c0-1.2,0.3-2.2,0.8-3c0.5-0.8,1.3-1.4,2.1-1.8
			c0.9-0.4,1.9-0.7,3-0.9c1.1-0.2,2.2-0.3,3.3-0.3l2.3-0.1v-0.9c0-1.1-0.3-1.8-0.9-2.2s-1.3-0.6-2.1-0.6c-1.9,0-3,0.7-3.2,2.1
			l-4.3-0.4c0.3-1.9,1.1-3.2,2.4-4c1.3-0.8,3.1-1.2,5.3-1.2c1.4,0,2.5,0.2,3.5,0.5c1,0.3,1.7,0.8,2.3,1.4c0.6,0.6,1,1.4,1.3,2.2
			c0.3,0.9,0.4,1.9,0.4,2.9v11.2h-4.5V428.3z M677.2,422.6l-2.1,0.1c-1,0-1.8,0.1-2.4,0.3c-0.6,0.2-1.1,0.4-1.4,0.6
			c-0.3,0.2-0.5,0.5-0.7,0.8c-0.1,0.3-0.2,0.7-0.2,1.1c0,0.6,0.2,1.1,0.6,1.4c0.4,0.3,1,0.5,1.7,0.5c1.2,0,2.2-0.3,3-0.8
			c0.4-0.3,0.8-0.7,1.1-1.2c0.3-0.5,0.4-1.1,0.4-1.8V422.6z"/>
		<path id="XMLID_346_" fill="#FFFFFF" d="M685.8,406.3h4.9v4.3h-4.9V406.3z M685.9,412.8h4.8v17.7h-4.8V412.8z"/>
		<path id="XMLID_349_" fill="#FFFFFF" d="M694.9,412.8h4.6v2.4c0.7-1,1.5-1.8,2.5-2.3c1-0.5,2-0.7,3-0.7c2,0,3.5,0.5,4.5,1.6
			c1,1.1,1.5,2.7,1.5,5v11.7h-4.8v-11.1c0-1.2-0.2-2.1-0.7-2.5c-0.5-0.5-1.1-0.7-1.9-0.7c-0.6,0-1.1,0.1-1.6,0.3s-0.9,0.4-1.2,0.8
			c-0.3,0.3-0.6,0.7-0.8,1.1c-0.2,0.4-0.3,0.9-0.3,1.4v10.7h-4.8V412.8z"/>
		<path id="XMLID_351_" fill="#FFFFFF" d="M731.2,425c-0.3,2-1.1,3.5-2.4,4.5c-1.3,1-3.1,1.5-5.6,1.5c-2.9,0-5.2-0.8-6.6-2.4
			c-1.5-1.6-2.2-3.9-2.2-6.9c0-1.5,0.2-2.8,0.6-4c0.4-1.2,1-2.2,1.8-3s1.7-1.4,2.8-1.8c1.1-0.4,2.3-0.6,3.6-0.6
			c2.7,0,4.8,0.8,6.1,2.3s2.1,3.7,2.1,6.3v1.9h-12.3c0,1.4,0.4,2.5,1.1,3.3s1.7,1.2,3.1,1.2c1.9,0,3-0.8,3.3-2.4H731.2z
			 M726.8,419.7c0-1.2-0.3-2.2-0.9-2.9c-0.6-0.7-1.5-1-2.8-1c-0.6,0-1.2,0.1-1.7,0.3c-0.5,0.2-0.9,0.5-1.2,0.8
			c-0.3,0.4-0.6,0.8-0.8,1.2c-0.2,0.5-0.3,1-0.3,1.5H726.8z"/>
		<path id="XMLID_354_" fill="#FFFFFF" d="M735,412.8h4.6v2.5c0.6-0.9,1.3-1.6,2.1-2.1c0.8-0.5,1.7-0.7,2.6-0.7c0.5,0,0.8,0,1.1,0.1
			c0.3,0,0.6,0.1,0.8,0.1l-0.6,4.3c-0.5-0.1-1.2-0.2-2-0.2c-0.5,0-1,0.1-1.5,0.2c-0.5,0.1-0.9,0.4-1.3,0.7c-0.4,0.4-0.7,0.8-0.9,1.2
			c-0.2,0.5-0.3,0.9-0.3,1.4v10.3H735V412.8z"/>
	</g>
</g>
<circle id="XMLID_26_" cx="150.7" cy="131.8" r="89.4"/>
<g id="XMLID_61_">
	<path id="XMLID_310_" fill="#FFFFFF" d="M139.5,136c-0.3,2-1.1,3.5-2.4,4.5c-1.3,1-3.1,1.5-5.6,1.5c-2.9,0-5.2-0.8-6.6-2.4
		c-1.5-1.6-2.2-3.9-2.2-6.9c0-1.5,0.2-2.8,0.6-4c0.4-1.2,1-2.2,1.8-3s1.7-1.4,2.8-1.8c1.1-0.4,2.3-0.6,3.6-0.6
		c2.7,0,4.8,0.8,6.1,2.3c1.4,1.6,2.1,3.7,2.1,6.3v1.9h-12.3c0,1.4,0.4,2.5,1.1,3.3c0.7,0.8,1.7,1.2,3.1,1.2c1.9,0,3-0.8,3.3-2.4
		H139.5z M135.1,130.7c0-1.2-0.3-2.2-0.9-2.9s-1.5-1-2.8-1c-0.6,0-1.2,0.1-1.7,0.3c-0.5,0.2-0.9,0.5-1.2,0.8
		c-0.3,0.4-0.6,0.8-0.8,1.2c-0.2,0.5-0.3,1-0.3,1.5H135.1z"/>
	<path id="XMLID_313_" fill="#FFFFFF" d="M143.3,123.8h4.6v2.4c0.7-1,1.5-1.8,2.5-2.3c1-0.5,2-0.7,3-0.7c2,0,3.5,0.5,4.5,1.6
		s1.5,2.7,1.5,5v11.7h-4.8v-11.1c0-1.2-0.2-2.1-0.7-2.5c-0.5-0.5-1.1-0.7-1.9-0.7c-0.6,0-1.1,0.1-1.6,0.3s-0.9,0.4-1.2,0.8
		c-0.3,0.3-0.6,0.7-0.8,1.1c-0.2,0.4-0.3,0.9-0.3,1.4v10.7h-4.8V123.8z"/>
	<path id="XMLID_315_" fill="#FFFFFF" d="M161.2,123.8h5.5l4,12.3l4-12.3h5.3l-7,17.7h-4.8L161.2,123.8z"/>
</g>
<g id="XMLID_11_">
	<circle id="XMLID_13_" fill="#7596FF" cx="1007.8" cy="545.1" r="100.5"/>
	<g id="XMLID_12_">
		<path id="XMLID_272_" fill="#FFFFFF" d="M951.7,533.2c0.1,1.5,0.6,2.6,1.4,3.3s2.1,1,3.8,1c0.8,0,1.5-0.1,2-0.3
			c0.5-0.2,1-0.4,1.3-0.7c0.3-0.3,0.6-0.6,0.7-1c0.1-0.4,0.2-0.8,0.2-1.3c0-0.6-0.2-1.2-0.7-1.8c-0.5-0.6-1.3-1-2.6-1.2l-3.2-0.6
			c-1.2-0.2-2.3-0.5-3.3-0.9c-1-0.4-1.7-0.8-2.4-1.4c-0.6-0.6-1.1-1.3-1.5-2.1c-0.3-0.8-0.5-1.8-0.5-3c0-1.2,0.2-2.2,0.7-3.1
			c0.5-0.9,1.1-1.6,1.9-2.2c0.8-0.6,1.8-1,3-1.3c1.2-0.3,2.4-0.5,3.8-0.5c1.8,0,3.2,0.2,4.4,0.6c1.2,0.4,2.1,0.9,2.9,1.6
			c0.7,0.7,1.3,1.4,1.6,2.3s0.6,1.8,0.7,2.7l-4.8,0.6c-0.2-1.3-0.7-2.3-1.4-2.9c-0.7-0.6-1.8-0.9-3.2-0.9c-0.9,0-1.6,0.1-2.1,0.2
			c-0.6,0.1-1,0.3-1.3,0.6c-0.3,0.2-0.6,0.5-0.7,0.8c-0.1,0.3-0.2,0.6-0.2,1c0,0.9,0.3,1.6,0.8,2c0.5,0.5,1.4,0.8,2.6,1.1l3.3,0.6
			c2.6,0.5,4.5,1.4,5.8,2.5c1.2,1.2,1.8,2.8,1.8,5c0,1.1-0.2,2-0.6,2.9c-0.4,0.9-1,1.7-1.8,2.3s-1.8,1.2-2.9,1.6
			c-1.2,0.4-2.6,0.6-4.1,0.6c-3.3,0-5.8-0.7-7.6-2.1c-1.8-1.4-2.7-3.5-2.8-6.4H951.7z"/>
		<path id="XMLID_274_" fill="#FFFFFF" d="M985.8,535.6c-0.3,2-1.1,3.5-2.4,4.5c-1.3,1-3.1,1.5-5.6,1.5c-2.9,0-5.2-0.8-6.6-2.4
			c-1.5-1.6-2.2-3.9-2.2-6.9c0-1.5,0.2-2.8,0.6-4c0.4-1.2,1-2.2,1.8-3c0.8-0.8,1.7-1.4,2.8-1.8c1.1-0.4,2.3-0.6,3.6-0.6
			c2.7,0,4.8,0.8,6.1,2.3s2.1,3.7,2.1,6.3v1.9h-12.3c0,1.4,0.4,2.5,1.1,3.3c0.7,0.8,1.7,1.2,3.1,1.2c1.9,0,3-0.8,3.3-2.4H985.8z
			 M981.4,530.3c0-1.2-0.3-2.2-0.9-2.9s-1.5-1-2.8-1c-0.6,0-1.2,0.1-1.7,0.3c-0.5,0.2-0.9,0.5-1.2,0.8c-0.3,0.4-0.6,0.8-0.8,1.2
			c-0.2,0.5-0.3,1-0.3,1.5H981.4z"/>
		<path id="XMLID_277_" fill="#FFFFFF" d="M989.6,523.4h4.6v2.5c0.6-0.9,1.3-1.6,2.1-2.1c0.8-0.5,1.7-0.7,2.6-0.7
			c0.5,0,0.8,0,1.1,0.1c0.3,0,0.6,0.1,0.8,0.1l-0.6,4.3c-0.5-0.1-1.2-0.2-2-0.2c-0.5,0-1,0.1-1.5,0.2c-0.5,0.1-0.9,0.4-1.3,0.7
			c-0.4,0.4-0.7,0.8-0.9,1.2c-0.2,0.5-0.3,0.9-0.3,1.4v10.3h-4.8V523.4z"/>
		<path id="XMLID_279_" fill="#FFFFFF" d="M1002.6,523.4h5.5l4,12.3l4-12.3h5.3l-7,17.7h-4.8L1002.6,523.4z"/>
		<path id="XMLID_281_" fill="#FFFFFF" d="M1023.7,516.9h4.9v4.3h-4.9V516.9z M1023.7,523.4h4.8v17.7h-4.8V523.4z"/>
		<path id="XMLID_284_" fill="#FFFFFF" d="M1048.7,534.7c-0.2,2.1-0.9,3.8-2.2,5.1c-1.3,1.3-3.2,1.9-5.8,1.9c-1.5,0-2.8-0.2-3.9-0.7
			c-1.1-0.5-2-1.1-2.7-1.9c-0.7-0.8-1.2-1.8-1.5-3c-0.3-1.2-0.5-2.4-0.5-3.8c0-1.4,0.2-2.7,0.6-3.9c0.4-1.2,1-2.2,1.7-3
			c0.7-0.8,1.7-1.5,2.7-1.9s2.3-0.7,3.7-0.7c1.2,0,2.2,0.2,3.1,0.5c0.9,0.3,1.6,0.7,2.3,1.3c0.6,0.5,1.1,1.2,1.4,2
			c0.3,0.8,0.6,1.6,0.7,2.5l-4.8,0.6c-0.1-0.9-0.4-1.6-0.8-2.2c-0.4-0.6-1.1-0.8-2.1-0.8c-0.7,0-1.3,0.2-1.8,0.5
			c-0.5,0.3-0.9,0.7-1.1,1.2c-0.3,0.5-0.5,1.1-0.6,1.8c-0.1,0.7-0.2,1.4-0.2,2.1c0,0.7,0.1,1.5,0.2,2.1c0.1,0.7,0.3,1.3,0.6,1.8
			c0.3,0.5,0.6,0.9,1.1,1.2c0.5,0.3,1.1,0.5,1.8,0.5c1,0,1.7-0.3,2.2-0.8c0.5-0.5,0.8-1.3,0.9-2.3H1048.7z"/>
		<path id="XMLID_286_" fill="#FFFFFF" d="M1068.3,535.6c-0.3,2-1.1,3.5-2.4,4.5c-1.3,1-3.1,1.5-5.6,1.5c-2.9,0-5.2-0.8-6.6-2.4
			c-1.5-1.6-2.2-3.9-2.2-6.9c0-1.5,0.2-2.8,0.6-4c0.4-1.2,1-2.2,1.8-3s1.7-1.4,2.8-1.8c1.1-0.4,2.3-0.6,3.6-0.6
			c2.7,0,4.8,0.8,6.1,2.3s2.1,3.7,2.1,6.3v1.9h-12.3c0,1.4,0.4,2.5,1.1,3.3s1.7,1.2,3.1,1.2c1.9,0,3-0.8,3.3-2.4H1068.3z
			 M1063.9,530.3c0-1.2-0.3-2.2-0.9-2.9c-0.6-0.7-1.5-1-2.8-1c-0.6,0-1.2,0.1-1.7,0.3c-0.5,0.2-0.9,0.5-1.2,0.8
			c-0.3,0.4-0.6,0.8-0.8,1.2c-0.2,0.5-0.3,1-0.3,1.5H1063.9z"/>
		<path id="XMLID_289_" fill="#FFFFFF" d="M940.9,552.5h8.7c1.9,0,3.4,0.2,4.6,0.6c1.2,0.4,2.2,1,2.9,1.7c0.7,0.7,1.2,1.5,1.5,2.4
			s0.4,1.9,0.4,2.9c0,1.1-0.1,2.1-0.4,3.1c-0.3,1-0.8,1.8-1.5,2.6c-0.7,0.7-1.7,1.3-2.9,1.7c-1.2,0.4-2.7,0.6-4.5,0.6h-3.8v8.7h-5
			V552.5z M949.5,563.8c0.9,0,1.6-0.1,2.2-0.3c0.6-0.2,1-0.4,1.4-0.7c0.3-0.3,0.6-0.7,0.7-1.2s0.2-1,0.2-1.5c0-0.6-0.1-1.1-0.2-1.5
			c-0.1-0.4-0.4-0.8-0.7-1.1c-0.3-0.3-0.8-0.5-1.4-0.7c-0.6-0.2-1.3-0.2-2.2-0.2h-3.6v7.2H949.5z"/>
		<path id="XMLID_292_" fill="#FFFFFF" d="M962.3,559h4.6v2.5c0.6-0.9,1.3-1.6,2.1-2.1c0.8-0.5,1.7-0.7,2.6-0.7c0.5,0,0.8,0,1.1,0.1
			c0.3,0,0.6,0.1,0.8,0.1l-0.6,4.3c-0.5-0.1-1.2-0.2-2-0.2c-0.5,0-1,0.1-1.5,0.2c-0.5,0.1-0.9,0.4-1.3,0.7c-0.4,0.4-0.7,0.8-0.9,1.2
			c-0.2,0.5-0.3,0.9-0.3,1.4v10.3h-4.8V559z"/>
		<path id="XMLID_294_" fill="#FFFFFF" d="M984,577.2c-2.9,0-5.1-0.8-6.6-2.4c-1.6-1.6-2.3-4-2.3-7c0-1.4,0.2-2.8,0.6-3.9
			c0.4-1.2,1-2.1,1.8-3s1.7-1.4,2.8-1.9c1.1-0.4,2.3-0.6,3.7-0.6c1.4,0,2.6,0.2,3.7,0.6c1.1,0.4,2.1,1,2.8,1.9
			c0.8,0.8,1.4,1.8,1.8,3c0.4,1.2,0.6,2.5,0.6,3.9c0,1.5-0.2,2.8-0.6,4c-0.4,1.2-1,2.2-1.8,3c-0.8,0.8-1.7,1.4-2.8,1.9
			C986.6,577,985.3,577.2,984,577.2z M984,573.4c1.4,0,2.4-0.5,3-1.5c0.7-1,1-2.4,1-4.2c0-1.8-0.3-3.2-1-4.1c-0.7-1-1.7-1.4-3-1.4
			c-1.4,0-2.4,0.5-3,1.4c-0.7,1-1,2.3-1,4.1c0,1.8,0.3,3.2,1,4.2C981.6,572.9,982.6,573.4,984,573.4z"/>
		<path id="XMLID_297_" fill="#FFFFFF" d="M993.8,559h5.5l4,12.3l4-12.3h5.3l-7,17.7h-4.8L993.8,559z"/>
		<path id="XMLID_299_" fill="#FFFFFF" d="M1014.8,552.5h4.9v4.3h-4.9V552.5z M1014.9,559h4.8v17.7h-4.8V559z"/>
		<path id="XMLID_302_" fill="#FFFFFF" d="M1036.2,574.3c-1.4,1.9-3.2,2.9-5.5,2.9c-2.5,0-4.3-0.8-5.6-2.5c-1.2-1.7-1.8-4-1.8-7
			c0-1.4,0.2-2.6,0.5-3.8c0.4-1.1,0.9-2.1,1.5-3c0.7-0.8,1.5-1.5,2.4-1.9s2-0.7,3.2-0.7c0.9,0,1.8,0.2,2.6,0.5
			c0.9,0.3,1.7,0.9,2.5,1.8v-8.3h4.8v24.2h-4.6V574.3z M1036.1,567.6c0-1.1-0.1-2-0.3-2.7c-0.2-0.7-0.5-1.2-0.9-1.7
			c-0.4-0.4-0.9-0.7-1.3-0.8c-0.5-0.1-1-0.2-1.4-0.2c-0.5,0-1,0.1-1.5,0.3s-0.9,0.5-1.2,1c-0.4,0.4-0.6,1-0.8,1.7
			c-0.2,0.7-0.3,1.5-0.3,2.5c0,1.1,0.1,2,0.3,2.7c0.2,0.7,0.5,1.3,0.8,1.7c0.3,0.4,0.7,0.8,1.2,1c0.5,0.2,0.9,0.3,1.5,0.3
			c1.1,0,2.1-0.3,2.8-1c0.5-0.5,0.8-1,1-1.6c0.2-0.6,0.3-1.5,0.3-2.5V567.6z"/>
		<path id="XMLID_305_" fill="#FFFFFF" d="M1061.2,571.2c-0.3,2-1.1,3.5-2.4,4.5c-1.3,1-3.1,1.5-5.6,1.5c-2.9,0-5.2-0.8-6.6-2.4
			c-1.5-1.6-2.2-3.9-2.2-6.9c0-1.5,0.2-2.8,0.6-4c0.4-1.2,1-2.2,1.8-3s1.7-1.4,2.8-1.8c1.1-0.4,2.3-0.6,3.6-0.6
			c2.7,0,4.8,0.8,6.1,2.3s2.1,3.7,2.1,6.3v1.9h-12.3c0,1.4,0.4,2.5,1.1,3.3s1.7,1.2,3.1,1.2c1.9,0,3-0.8,3.3-2.4H1061.2z
			 M1056.8,565.9c0-1.2-0.3-2.2-0.9-2.9c-0.6-0.7-1.5-1-2.8-1c-0.6,0-1.2,0.1-1.7,0.3c-0.5,0.2-0.9,0.5-1.2,0.8
			c-0.3,0.4-0.6,0.8-0.8,1.2c-0.2,0.5-0.3,1-0.3,1.5H1056.8z"/>
		<path id="XMLID_308_" fill="#FFFFFF" d="M1065,559h4.6v2.5c0.6-0.9,1.3-1.6,2.1-2.1c0.8-0.5,1.7-0.7,2.6-0.7c0.5,0,0.8,0,1.1,0.1
			c0.3,0,0.6,0.1,0.8,0.1l-0.6,4.3c-0.5-0.1-1.2-0.2-2-0.2c-0.5,0-1,0.1-1.5,0.2c-0.5,0.1-0.9,0.4-1.3,0.7c-0.4,0.4-0.7,0.8-0.9,1.2
			c-0.2,0.5-0.3,0.9-0.3,1.4v10.3h-4.8V559z"/>
	</g>
</g>
<g id="XMLID_14_">
	<circle id="XMLID_16_" fill="#7596FF" cx="1009.3" cy="321.4" r="100.5"/>
	<g id="XMLID_15_">
		<path id="XMLID_234_" fill="#FFFFFF" d="M953.2,309.5c0.1,1.5,0.6,2.6,1.4,3.3s2.1,1,3.8,1c0.8,0,1.5-0.1,2-0.3
			c0.5-0.2,1-0.4,1.3-0.7c0.3-0.3,0.6-0.6,0.7-1c0.1-0.4,0.2-0.8,0.2-1.3c0-0.6-0.2-1.2-0.7-1.8c-0.5-0.6-1.3-1-2.6-1.2l-3.2-0.6
			c-1.2-0.2-2.3-0.5-3.3-0.9c-1-0.4-1.7-0.8-2.4-1.4c-0.6-0.6-1.1-1.3-1.5-2.1c-0.3-0.8-0.5-1.8-0.5-3c0-1.2,0.2-2.2,0.7-3.1
			s1.1-1.6,1.9-2.2s1.8-1,3-1.3c1.2-0.3,2.4-0.5,3.8-0.5c1.8,0,3.2,0.2,4.4,0.6s2.1,0.9,2.9,1.6c0.7,0.7,1.3,1.4,1.6,2.3
			c0.4,0.9,0.6,1.8,0.7,2.7l-4.8,0.6c-0.2-1.3-0.7-2.3-1.4-2.9c-0.7-0.6-1.8-0.9-3.2-0.9c-0.9,0-1.6,0.1-2.1,0.2
			c-0.6,0.1-1,0.3-1.3,0.6c-0.3,0.2-0.6,0.5-0.7,0.8c-0.1,0.3-0.2,0.6-0.2,1c0,0.9,0.3,1.6,0.8,2c0.5,0.5,1.4,0.8,2.6,1.1l3.3,0.6
			c2.6,0.5,4.5,1.4,5.8,2.5c1.2,1.2,1.8,2.8,1.8,5c0,1.1-0.2,2-0.6,2.9c-0.4,0.9-1,1.7-1.8,2.3c-0.8,0.7-1.8,1.2-2.9,1.6
			c-1.2,0.4-2.6,0.6-4.1,0.6c-3.3,0-5.8-0.7-7.6-2.1c-1.8-1.4-2.7-3.5-2.8-6.4H953.2z"/>
		<path id="XMLID_236_" fill="#FFFFFF" d="M987.3,311.8c-0.3,2-1.1,3.5-2.4,4.5c-1.3,1-3.1,1.5-5.6,1.5c-2.9,0-5.2-0.8-6.6-2.4
			c-1.5-1.6-2.2-3.9-2.2-6.9c0-1.5,0.2-2.8,0.6-4c0.4-1.2,1-2.2,1.8-3c0.8-0.8,1.7-1.4,2.8-1.8c1.1-0.4,2.3-0.6,3.6-0.6
			c2.7,0,4.8,0.8,6.1,2.3c1.4,1.6,2.1,3.7,2.1,6.3v1.9h-12.3c0,1.4,0.4,2.5,1.1,3.3s1.7,1.2,3.1,1.2c1.9,0,3-0.8,3.3-2.4H987.3z
			 M982.9,306.5c0-1.2-0.3-2.2-0.9-2.9s-1.5-1-2.8-1c-0.6,0-1.2,0.1-1.7,0.3s-0.9,0.5-1.2,0.8c-0.3,0.4-0.6,0.8-0.8,1.2
			c-0.2,0.5-0.3,1-0.3,1.5H982.9z"/>
		<path id="XMLID_239_" fill="#FFFFFF" d="M991.1,299.7h4.6v2.5c0.6-0.9,1.3-1.6,2.1-2.1c0.8-0.5,1.7-0.7,2.6-0.7
			c0.5,0,0.8,0,1.1,0.1c0.3,0,0.6,0.1,0.8,0.1l-0.6,4.3c-0.5-0.1-1.2-0.2-2-0.2c-0.5,0-1,0.1-1.5,0.2c-0.5,0.1-0.9,0.4-1.3,0.7
			c-0.4,0.4-0.7,0.8-0.9,1.2c-0.2,0.5-0.3,0.9-0.3,1.4v10.3h-4.8V299.7z"/>
		<path id="XMLID_241_" fill="#FFFFFF" d="M1004.1,299.7h5.5l4,12.3l4-12.3h5.3l-7,17.7h-4.8L1004.1,299.7z"/>
		<path id="XMLID_243_" fill="#FFFFFF" d="M1025.2,293.1h4.9v4.3h-4.9V293.1z M1025.3,299.7h4.8v17.7h-4.8V299.7z"/>
		<path id="XMLID_246_" fill="#FFFFFF" d="M1050.2,311c-0.2,2.1-0.9,3.8-2.2,5.1c-1.3,1.3-3.2,1.9-5.8,1.9c-1.5,0-2.8-0.2-3.9-0.7
			c-1.1-0.5-2-1.1-2.7-1.9c-0.7-0.8-1.2-1.8-1.5-3c-0.3-1.2-0.5-2.4-0.5-3.8c0-1.4,0.2-2.7,0.6-3.9c0.4-1.2,1-2.2,1.7-3
			c0.7-0.8,1.7-1.5,2.7-1.9s2.3-0.7,3.7-0.7c1.2,0,2.2,0.2,3.1,0.5c0.9,0.3,1.6,0.7,2.3,1.3c0.6,0.5,1.1,1.2,1.4,2
			c0.3,0.8,0.6,1.6,0.7,2.5l-4.8,0.6c-0.1-0.9-0.4-1.6-0.8-2.2c-0.4-0.6-1.1-0.8-2.1-0.8c-0.7,0-1.3,0.2-1.8,0.5
			c-0.5,0.3-0.9,0.7-1.1,1.2c-0.3,0.5-0.5,1.1-0.6,1.8c-0.1,0.7-0.2,1.4-0.2,2.1c0,0.7,0.1,1.5,0.2,2.1c0.1,0.7,0.3,1.3,0.6,1.8
			c0.3,0.5,0.6,0.9,1.1,1.2c0.5,0.3,1.1,0.5,1.8,0.5c1,0,1.7-0.3,2.2-0.8c0.5-0.5,0.8-1.3,0.9-2.3H1050.2z"/>
		<path id="XMLID_248_" fill="#FFFFFF" d="M1069.8,311.8c-0.3,2-1.1,3.5-2.4,4.5c-1.3,1-3.1,1.5-5.6,1.5c-2.9,0-5.2-0.8-6.6-2.4
			c-1.5-1.6-2.2-3.9-2.2-6.9c0-1.5,0.2-2.8,0.6-4c0.4-1.2,1-2.2,1.8-3s1.7-1.4,2.8-1.8c1.1-0.4,2.3-0.6,3.6-0.6
			c2.7,0,4.8,0.8,6.1,2.3s2.1,3.7,2.1,6.3v1.9h-12.3c0,1.4,0.4,2.5,1.1,3.3s1.7,1.2,3.1,1.2c1.9,0,3-0.8,3.3-2.4H1069.8z
			 M1065.4,306.5c0-1.2-0.3-2.2-0.9-2.9c-0.6-0.7-1.5-1-2.8-1c-0.6,0-1.2,0.1-1.7,0.3c-0.5,0.2-0.9,0.5-1.2,0.8
			c-0.3,0.4-0.6,0.8-0.8,1.2c-0.2,0.5-0.3,1-0.3,1.5H1065.4z"/>
		<path id="XMLID_251_" fill="#FFFFFF" d="M942.4,328.7h8.7c1.9,0,3.4,0.2,4.6,0.6c1.2,0.4,2.2,1,2.9,1.7c0.7,0.7,1.2,1.5,1.5,2.4
			c0.3,0.9,0.4,1.9,0.4,2.9c0,1.1-0.1,2.1-0.4,3.1c-0.3,1-0.8,1.8-1.5,2.6c-0.7,0.7-1.7,1.3-2.9,1.7c-1.2,0.4-2.7,0.6-4.5,0.6h-3.8
			v8.7h-5V328.7z M951,340.1c0.9,0,1.6-0.1,2.2-0.3c0.6-0.2,1-0.4,1.4-0.7c0.3-0.3,0.6-0.7,0.7-1.2c0.1-0.5,0.2-1,0.2-1.5
			c0-0.6-0.1-1.1-0.2-1.5c-0.1-0.4-0.4-0.8-0.7-1.1c-0.3-0.3-0.8-0.5-1.4-0.7c-0.6-0.2-1.3-0.2-2.2-0.2h-3.6v7.2H951z"/>
		<path id="XMLID_254_" fill="#FFFFFF" d="M963.8,335.2h4.6v2.5c0.6-0.9,1.3-1.6,2.1-2.1c0.8-0.5,1.7-0.7,2.6-0.7
			c0.5,0,0.8,0,1.1,0.1c0.3,0,0.6,0.1,0.8,0.1l-0.6,4.3c-0.5-0.1-1.2-0.2-2-0.2c-0.5,0-1,0.1-1.5,0.2c-0.5,0.1-0.9,0.4-1.3,0.7
			c-0.4,0.4-0.7,0.8-0.9,1.2c-0.2,0.5-0.3,0.9-0.3,1.4v10.3h-4.8V335.2z"/>
		<path id="XMLID_256_" fill="#FFFFFF" d="M985.5,353.5c-2.9,0-5.1-0.8-6.6-2.4c-1.6-1.6-2.3-4-2.3-7c0-1.4,0.2-2.8,0.6-3.9
			c0.4-1.2,1-2.1,1.8-3c0.8-0.8,1.7-1.4,2.8-1.9c1.1-0.4,2.3-0.6,3.7-0.6c1.4,0,2.6,0.2,3.7,0.6c1.1,0.4,2.1,1,2.8,1.9
			c0.8,0.8,1.4,1.8,1.8,3c0.4,1.2,0.6,2.5,0.6,3.9c0,1.5-0.2,2.8-0.6,4c-0.4,1.2-1,2.2-1.8,3c-0.8,0.8-1.7,1.4-2.8,1.9
			C988.1,353.3,986.9,353.5,985.5,353.5z M985.5,349.7c1.4,0,2.4-0.5,3-1.5c0.7-1,1-2.4,1-4.2c0-1.8-0.3-3.2-1-4.1
			c-0.7-1-1.7-1.4-3-1.4s-2.4,0.5-3,1.4c-0.7,1-1,2.3-1,4.1c0,1.8,0.3,3.2,1,4.2S984.1,349.7,985.5,349.7z"/>
		<path id="XMLID_259_" fill="#FFFFFF" d="M995.3,335.2h5.5l4,12.3l4-12.3h5.3l-7,17.7h-4.8L995.3,335.2z"/>
		<path id="XMLID_261_" fill="#FFFFFF" d="M1016.3,328.7h4.9v4.3h-4.9V328.7z M1016.4,335.2h4.8v17.7h-4.8V335.2z"/>
		<path id="XMLID_264_" fill="#FFFFFF" d="M1037.7,350.6c-1.4,1.9-3.2,2.9-5.5,2.9c-2.5,0-4.3-0.8-5.6-2.5c-1.2-1.7-1.8-4-1.8-7
			c0-1.4,0.2-2.6,0.5-3.8c0.4-1.1,0.9-2.1,1.5-3c0.7-0.8,1.5-1.5,2.4-1.9s2-0.7,3.2-0.7c0.9,0,1.8,0.2,2.6,0.5
			c0.9,0.3,1.7,0.9,2.5,1.8v-8.3h4.8v24.2h-4.6V350.6z M1037.6,343.9c0-1.1-0.1-2-0.3-2.7c-0.2-0.7-0.5-1.2-0.9-1.7
			c-0.4-0.4-0.9-0.7-1.3-0.8c-0.5-0.1-1-0.2-1.4-0.2c-0.5,0-1,0.1-1.5,0.3s-0.9,0.5-1.2,1c-0.4,0.4-0.6,1-0.8,1.7
			c-0.2,0.7-0.3,1.5-0.3,2.5c0,1.1,0.1,2,0.3,2.7c0.2,0.7,0.5,1.3,0.8,1.7c0.3,0.4,0.7,0.8,1.2,1c0.5,0.2,0.9,0.3,1.5,0.3
			c1.1,0,2.1-0.3,2.8-1c0.5-0.5,0.8-1,1-1.6c0.2-0.6,0.3-1.5,0.3-2.5V343.9z"/>
		<path id="XMLID_267_" fill="#FFFFFF" d="M1062.7,347.4c-0.3,2-1.1,3.5-2.4,4.5c-1.3,1-3.1,1.5-5.6,1.5c-2.9,0-5.2-0.8-6.6-2.4
			c-1.5-1.6-2.2-3.9-2.2-6.9c0-1.5,0.2-2.8,0.6-4c0.4-1.2,1-2.2,1.8-3s1.7-1.4,2.8-1.8c1.1-0.4,2.3-0.6,3.6-0.6
			c2.7,0,4.8,0.8,6.1,2.3s2.1,3.7,2.1,6.3v1.9h-12.3c0,1.4,0.4,2.5,1.1,3.3s1.7,1.2,3.1,1.2c1.9,0,3-0.8,3.3-2.4H1062.7z
			 M1058.3,342.1c0-1.2-0.3-2.2-0.9-2.9c-0.6-0.7-1.5-1-2.8-1c-0.6,0-1.2,0.1-1.7,0.3c-0.5,0.2-0.9,0.5-1.2,0.8
			c-0.3,0.4-0.6,0.8-0.8,1.2c-0.2,0.5-0.3,1-0.3,1.5H1058.3z"/>
		<path id="XMLID_270_" fill="#FFFFFF" d="M1066.5,335.2h4.6v2.5c0.6-0.9,1.3-1.6,2.1-2.1c0.8-0.5,1.7-0.7,2.6-0.7
			c0.5,0,0.8,0,1.1,0.1c0.3,0,0.6,0.1,0.8,0.1l-0.6,4.3c-0.5-0.1-1.2-0.2-2-0.2c-0.5,0-1,0.1-1.5,0.2c-0.5,0.1-0.9,0.4-1.3,0.7
			c-0.4,0.4-0.7,0.8-0.9,1.2c-0.2,0.5-0.3,0.9-0.3,1.4v10.3h-4.8V335.2z"/>
	</g>
</g>
<g id="XMLID_17_">
	<circle id="XMLID_19_" fill="#7596FF" cx="1009.3" cy="100.5" r="100.5"/>
	<g id="XMLID_18_">
		<path id="XMLID_196_" fill="#FFFFFF" d="M953.2,88.5c0.1,1.5,0.6,2.6,1.4,3.3s2.1,1,3.8,1c0.8,0,1.5-0.1,2-0.3
			c0.5-0.2,1-0.4,1.3-0.7c0.3-0.3,0.6-0.6,0.7-1c0.1-0.4,0.2-0.8,0.2-1.3c0-0.6-0.2-1.2-0.7-1.8c-0.5-0.6-1.3-1-2.6-1.2l-3.2-0.6
			c-1.2-0.2-2.3-0.5-3.3-0.9c-1-0.4-1.7-0.8-2.4-1.4c-0.6-0.6-1.1-1.3-1.5-2.1c-0.3-0.8-0.5-1.8-0.5-3c0-1.2,0.2-2.2,0.7-3.1
			s1.1-1.6,1.9-2.2s1.8-1,3-1.3c1.2-0.3,2.4-0.5,3.8-0.5c1.8,0,3.2,0.2,4.4,0.6s2.1,0.9,2.9,1.6c0.7,0.7,1.3,1.4,1.6,2.3
			c0.4,0.9,0.6,1.8,0.7,2.7l-4.8,0.6c-0.2-1.3-0.7-2.3-1.4-2.9c-0.7-0.6-1.8-0.9-3.2-0.9c-0.9,0-1.6,0.1-2.1,0.2
			c-0.6,0.1-1,0.3-1.3,0.6c-0.3,0.2-0.6,0.5-0.7,0.8c-0.1,0.3-0.2,0.6-0.2,1c0,0.9,0.3,1.6,0.8,2c0.5,0.5,1.4,0.8,2.6,1.1l3.3,0.6
			c2.6,0.5,4.5,1.4,5.8,2.5c1.2,1.2,1.8,2.8,1.8,5c0,1.1-0.2,2-0.6,2.9c-0.4,0.9-1,1.7-1.8,2.3c-0.8,0.7-1.8,1.2-2.9,1.6
			c-1.2,0.4-2.6,0.6-4.1,0.6c-3.3,0-5.8-0.7-7.6-2.1c-1.8-1.4-2.7-3.5-2.8-6.4H953.2z"/>
		<path id="XMLID_198_" fill="#FFFFFF" d="M987.3,90.9c-0.3,2-1.1,3.5-2.4,4.5c-1.3,1-3.1,1.5-5.6,1.5c-2.9,0-5.2-0.8-6.6-2.4
			c-1.5-1.6-2.2-3.9-2.2-6.9c0-1.5,0.2-2.8,0.6-4c0.4-1.2,1-2.2,1.8-3c0.8-0.8,1.7-1.4,2.8-1.8c1.1-0.4,2.3-0.6,3.6-0.6
			c2.7,0,4.8,0.8,6.1,2.3c1.4,1.6,2.1,3.7,2.1,6.3v1.9h-12.3c0,1.4,0.4,2.5,1.1,3.3s1.7,1.2,3.1,1.2c1.9,0,3-0.8,3.3-2.4H987.3z
			 M982.9,85.6c0-1.2-0.3-2.2-0.9-2.9s-1.5-1-2.8-1c-0.6,0-1.2,0.1-1.7,0.3s-0.9,0.5-1.2,0.8c-0.3,0.4-0.6,0.8-0.8,1.2
			c-0.2,0.5-0.3,1-0.3,1.5H982.9z"/>
		<path id="XMLID_201_" fill="#FFFFFF" d="M991.1,78.7h4.6v2.5c0.6-0.9,1.3-1.6,2.1-2.1c0.8-0.5,1.7-0.7,2.6-0.7
			c0.5,0,0.8,0,1.1,0.1c0.3,0,0.6,0.1,0.8,0.1l-0.6,4.3c-0.5-0.1-1.2-0.2-2-0.2c-0.5,0-1,0.1-1.5,0.2c-0.5,0.1-0.9,0.4-1.3,0.7
			c-0.4,0.4-0.7,0.8-0.9,1.2c-0.2,0.5-0.3,0.9-0.3,1.4v10.3h-4.8V78.7z"/>
		<path id="XMLID_203_" fill="#FFFFFF" d="M1004.1,78.7h5.5l4,12.3l4-12.3h5.3l-7,17.7h-4.8L1004.1,78.7z"/>
		<path id="XMLID_205_" fill="#FFFFFF" d="M1025.2,72.2h4.9v4.3h-4.9V72.2z M1025.3,78.7h4.8v17.7h-4.8V78.7z"/>
		<path id="XMLID_208_" fill="#FFFFFF" d="M1050.2,90c-0.2,2.1-0.9,3.8-2.2,5.1c-1.3,1.3-3.2,1.9-5.8,1.9c-1.5,0-2.8-0.2-3.9-0.7
			c-1.1-0.5-2-1.1-2.7-1.9c-0.7-0.8-1.2-1.8-1.5-3c-0.3-1.2-0.5-2.4-0.5-3.8c0-1.4,0.2-2.7,0.6-3.9c0.4-1.2,1-2.2,1.7-3
			c0.7-0.8,1.7-1.5,2.7-1.9s2.3-0.7,3.7-0.7c1.2,0,2.2,0.2,3.1,0.5c0.9,0.3,1.6,0.7,2.3,1.3c0.6,0.5,1.1,1.2,1.4,2
			c0.3,0.8,0.6,1.6,0.7,2.5l-4.8,0.6c-0.1-0.9-0.4-1.6-0.8-2.2c-0.4-0.6-1.1-0.8-2.1-0.8c-0.7,0-1.3,0.2-1.8,0.5
			c-0.5,0.3-0.9,0.7-1.1,1.2c-0.3,0.5-0.5,1.1-0.6,1.8c-0.1,0.7-0.2,1.4-0.2,2.1c0,0.7,0.1,1.5,0.2,2.1c0.1,0.7,0.3,1.3,0.6,1.8
			c0.3,0.5,0.6,0.9,1.1,1.2c0.5,0.3,1.1,0.5,1.8,0.5c1,0,1.7-0.3,2.2-0.8c0.5-0.5,0.8-1.3,0.9-2.3H1050.2z"/>
		<path id="XMLID_210_" fill="#FFFFFF" d="M1069.8,90.9c-0.3,2-1.1,3.5-2.4,4.5c-1.3,1-3.1,1.5-5.6,1.5c-2.9,0-5.2-0.8-6.6-2.4
			c-1.5-1.6-2.2-3.9-2.2-6.9c0-1.5,0.2-2.8,0.6-4c0.4-1.2,1-2.2,1.8-3s1.7-1.4,2.8-1.8c1.1-0.4,2.3-0.6,3.6-0.6
			c2.7,0,4.8,0.8,6.1,2.3s2.1,3.7,2.1,6.3v1.9h-12.3c0,1.4,0.4,2.5,1.1,3.3s1.7,1.2,3.1,1.2c1.9,0,3-0.8,3.3-2.4H1069.8z
			 M1065.4,85.6c0-1.2-0.3-2.2-0.9-2.9c-0.6-0.7-1.5-1-2.8-1c-0.6,0-1.2,0.1-1.7,0.3c-0.5,0.2-0.9,0.5-1.2,0.8
			c-0.3,0.4-0.6,0.8-0.8,1.2c-0.2,0.5-0.3,1-0.3,1.5H1065.4z"/>
		<path id="XMLID_213_" fill="#FFFFFF" d="M942.4,107.8h8.7c1.9,0,3.4,0.2,4.6,0.6c1.2,0.4,2.2,1,2.9,1.7c0.7,0.7,1.2,1.5,1.5,2.4
			c0.3,0.9,0.4,1.9,0.4,2.9c0,1.1-0.1,2.1-0.4,3.1c-0.3,1-0.8,1.8-1.5,2.6c-0.7,0.7-1.7,1.3-2.9,1.7c-1.2,0.4-2.7,0.6-4.5,0.6h-3.8
			v8.7h-5V107.8z M951,119.1c0.9,0,1.6-0.1,2.2-0.3c0.6-0.2,1-0.4,1.4-0.7c0.3-0.3,0.6-0.7,0.7-1.2c0.1-0.5,0.2-1,0.2-1.5
			c0-0.6-0.1-1.1-0.2-1.5c-0.1-0.4-0.4-0.8-0.7-1.1c-0.3-0.3-0.8-0.5-1.4-0.7c-0.6-0.2-1.3-0.2-2.2-0.2h-3.6v7.2H951z"/>
		<path id="XMLID_216_" fill="#FFFFFF" d="M963.8,114.3h4.6v2.5c0.6-0.9,1.3-1.6,2.1-2.1c0.8-0.5,1.7-0.7,2.6-0.7
			c0.5,0,0.8,0,1.1,0.1c0.3,0,0.6,0.1,0.8,0.1l-0.6,4.3c-0.5-0.1-1.2-0.2-2-0.2c-0.5,0-1,0.1-1.5,0.2c-0.5,0.1-0.9,0.4-1.3,0.7
			c-0.4,0.4-0.7,0.8-0.9,1.2c-0.2,0.5-0.3,0.9-0.3,1.4V132h-4.8V114.3z"/>
		<path id="XMLID_218_" fill="#FFFFFF" d="M985.5,132.6c-2.9,0-5.1-0.8-6.6-2.4c-1.6-1.6-2.3-4-2.3-7c0-1.4,0.2-2.8,0.6-3.9
			c0.4-1.2,1-2.1,1.8-3c0.8-0.8,1.7-1.4,2.8-1.9c1.1-0.4,2.3-0.6,3.7-0.6c1.4,0,2.6,0.2,3.7,0.6c1.1,0.4,2.1,1,2.8,1.9
			c0.8,0.8,1.4,1.8,1.8,3c0.4,1.2,0.6,2.5,0.6,3.9c0,1.5-0.2,2.8-0.6,4c-0.4,1.2-1,2.2-1.8,3c-0.8,0.8-1.7,1.4-2.8,1.9
			C988.1,132.3,986.9,132.6,985.5,132.6z M985.5,128.8c1.4,0,2.4-0.5,3-1.5c0.7-1,1-2.4,1-4.2c0-1.8-0.3-3.2-1-4.1
			c-0.7-1-1.7-1.4-3-1.4s-2.4,0.5-3,1.4c-0.7,1-1,2.3-1,4.1c0,1.8,0.3,3.2,1,4.2S984.1,128.8,985.5,128.8z"/>
		<path id="XMLID_221_" fill="#FFFFFF" d="M995.3,114.3h5.5l4,12.3l4-12.3h5.3l-7,17.7h-4.8L995.3,114.3z"/>
		<path id="XMLID_223_" fill="#FFFFFF" d="M1016.3,107.8h4.9v4.3h-4.9V107.8z M1016.4,114.3h4.8V132h-4.8V114.3z"/>
		<path id="XMLID_226_" fill="#FFFFFF" d="M1037.7,129.7c-1.4,1.9-3.2,2.9-5.5,2.9c-2.5,0-4.3-0.8-5.6-2.5c-1.2-1.7-1.8-4-1.8-7
			c0-1.4,0.2-2.6,0.5-3.8c0.4-1.1,0.9-2.1,1.5-3c0.7-0.8,1.5-1.5,2.4-1.9s2-0.7,3.2-0.7c0.9,0,1.8,0.2,2.6,0.5
			c0.9,0.3,1.7,0.9,2.5,1.8v-8.3h4.8V132h-4.6V129.7z M1037.6,122.9c0-1.1-0.1-2-0.3-2.7c-0.2-0.7-0.5-1.2-0.9-1.7
			c-0.4-0.4-0.9-0.7-1.3-0.8c-0.5-0.1-1-0.2-1.4-0.2c-0.5,0-1,0.1-1.5,0.3s-0.9,0.5-1.2,1c-0.4,0.4-0.6,1-0.8,1.7
			c-0.2,0.7-0.3,1.5-0.3,2.5c0,1.1,0.1,2,0.3,2.7c0.2,0.7,0.5,1.3,0.8,1.7c0.3,0.4,0.7,0.8,1.2,1c0.5,0.2,0.9,0.3,1.5,0.3
			c1.1,0,2.1-0.3,2.8-1c0.5-0.5,0.8-1,1-1.6c0.2-0.6,0.3-1.5,0.3-2.5V122.9z"/>
		<path id="XMLID_229_" fill="#FFFFFF" d="M1062.7,126.5c-0.3,2-1.1,3.5-2.4,4.5c-1.3,1-3.1,1.5-5.6,1.5c-2.9,0-5.2-0.8-6.6-2.4
			c-1.5-1.6-2.2-3.9-2.2-6.9c0-1.5,0.2-2.8,0.6-4c0.4-1.2,1-2.2,1.8-3s1.7-1.4,2.8-1.8c1.1-0.4,2.3-0.6,3.6-0.6
			c2.7,0,4.8,0.8,6.1,2.3s2.1,3.7,2.1,6.3v1.9h-12.3c0,1.4,0.4,2.5,1.1,3.3s1.7,1.2,3.1,1.2c1.9,0,3-0.8,3.3-2.4H1062.7z
			 M1058.3,121.2c0-1.2-0.3-2.2-0.9-2.9c-0.6-0.7-1.5-1-2.8-1c-0.6,0-1.2,0.1-1.7,0.3c-0.5,0.2-0.9,0.5-1.2,0.8
			c-0.3,0.4-0.6,0.8-0.8,1.2c-0.2,0.5-0.3,1-0.3,1.5H1058.3z"/>
		<path id="XMLID_232_" fill="#FFFFFF" d="M1066.5,114.3h4.6v2.5c0.6-0.9,1.3-1.6,2.1-2.1c0.8-0.5,1.7-0.7,2.6-0.7
			c0.5,0,0.8,0,1.1,0.1c0.3,0,0.6,0.1,0.8,0.1l-0.6,4.3c-0.5-0.1-1.2-0.2-2-0.2c-0.5,0-1,0.1-1.5,0.2c-0.5,0.1-0.9,0.4-1.3,0.7
			c-0.4,0.4-0.7,0.8-0.9,1.2c-0.2,0.5-0.3,0.9-0.3,1.4V132h-4.8V114.3z"/>
	</g>
</g>
<g id="XMLID_66_">
	<path id="XMLID_165_" d="M9.7,411.9h-2l0-4.2c-0.8,0-1.7-0.1-2.5-0.4c-0.9-0.2-1.8-0.5-2.8-0.9v-3.7c1,0.6,1.9,1,2.8,1.3
		s1.7,0.5,2.5,0.5V400c-1.8-0.4-3.2-1-4.1-1.9c-0.9-0.9-1.3-2.1-1.3-3.5c0-1.6,0.5-2.8,1.4-3.7c0.9-0.9,2.3-1.4,4-1.5v-3.3h2l0,3.3
		c0.7,0,1.3,0.1,2.1,0.3c0.7,0.1,1.4,0.3,2.2,0.5v3.6c-0.6-0.4-1.2-0.7-1.9-0.9c-0.7-0.2-1.5-0.4-2.3-0.4v4.3
		c1.8,0.3,3.2,0.9,4.1,1.9s1.4,2.2,1.4,3.8c0,1.5-0.5,2.8-1.5,3.8c-1,1-2.3,1.5-4,1.6L9.7,411.9z M7.7,396.4v-3.9
		c-0.6,0.1-1,0.3-1.3,0.6c-0.3,0.3-0.4,0.7-0.4,1.3c0,0.5,0.1,1,0.4,1.3C6.7,395.9,7.1,396.2,7.7,396.4z M9.7,400.4v4.2
		c0.6-0.1,1-0.3,1.4-0.7c0.3-0.4,0.5-0.8,0.5-1.4c0-0.6-0.2-1-0.5-1.4C10.7,400.7,10.3,400.5,9.7,400.4z"/>
	<path id="XMLID_169_" d="M38.6,394.4v-8.3h4.1v21.7h-4.1v-2.3c-0.4,0.9-1,1.6-1.7,2c-0.7,0.5-1.5,0.7-2.4,0.7
		c-1.8,0-3.2-0.7-4.2-2.1c-1-1.4-1.5-3.4-1.5-6.1c0-2.6,0.5-4.7,1.5-6.1c1-1.4,2.4-2.1,4.3-2.1c0.8,0,1.6,0.2,2.3,0.6
		S38.1,393.5,38.6,394.4z M32.9,400c0,1.5,0.3,2.7,0.8,3.5c0.5,0.9,1.2,1.3,2.1,1.3c0.9,0,1.6-0.4,2.1-1.3c0.5-0.9,0.8-2,0.8-3.5
		c0-1.5-0.3-2.7-0.8-3.5s-1.2-1.3-2.1-1.3c-0.9,0-1.6,0.4-2.1,1.3C33.1,397.3,32.9,398.5,32.9,400z"/>
	<path id="XMLID_172_" d="M60.2,398.8v8.9h-4.1V406c-0.5,0.7-1.1,1.2-1.9,1.6c-0.8,0.4-1.6,0.6-2.6,0.6c-1.8,0-3.2-0.5-4.1-1.4
		c-1-0.9-1.5-2.2-1.5-3.9c0-1.8,0.6-3.2,1.8-4c1.2-0.9,3-1.3,5.5-1.3h2.8v-0.7c0-0.7-0.2-1.2-0.7-1.5c-0.5-0.3-1.2-0.5-2.1-0.5
		c-1,0-1.9,0.1-2.8,0.4c-0.9,0.2-1.9,0.6-2.9,1.2v-3.5c0.9-0.4,1.8-0.6,2.7-0.8c0.9-0.2,1.9-0.3,3-0.3c2.5,0,4.3,0.5,5.3,1.5
		C59.6,394.3,60.2,396.2,60.2,398.8z M54.5,400.4c-1.5,0-2.6,0.2-3.2,0.6c-0.6,0.4-0.9,1.1-0.9,2c0,0.7,0.2,1.3,0.6,1.7
		c0.4,0.4,1,0.6,1.7,0.6c1.1,0,1.9-0.4,2.5-1.2c0.6-0.8,0.9-1.9,0.9-3.4v-0.3H54.5z"/>
	<path id="XMLID_175_" d="M77.9,396.4c-0.4-0.4-1-0.7-1.6-0.9c-0.6-0.2-1.3-0.3-2-0.3c-0.9,0-1.6,0.2-2.3,0.5
		c-0.6,0.3-1.1,0.7-1.5,1.3c-0.2,0.4-0.4,0.8-0.5,1.3c-0.1,0.5-0.1,1.3-0.1,2.3v7.2H66v-15.6H70v2.4c0.4-0.9,1-1.6,1.8-2.1
		c0.8-0.5,1.8-0.7,2.9-0.7c0.6,0,1.1,0.1,1.6,0.2c0.5,0.1,1,0.3,1.5,0.6V396.4z"/>
	<path id="XMLID_177_" d="M88.7,387.7v4.4h5.3v3.1h-5.3v7.4c0,0.7,0.2,1.2,0.5,1.5c0.3,0.3,0.9,0.5,1.7,0.5h3.1v3.1h-3.4
		c-2.3,0-3.9-0.4-4.8-1.1c-0.8-0.7-1.2-2.1-1.2-4.2v-7.2h-4v-3.1h4v-4.4H88.7z"/>
	<path id="XMLID_179_" d="M112.2,394.4c0.5-0.9,1.1-1.5,1.7-1.9s1.4-0.6,2.3-0.6c1.8,0,3.3,0.7,4.3,2.1c1,1.4,1.5,3.4,1.5,6.1
		c0,2.6-0.5,4.6-1.5,6.1c-1,1.4-2.4,2.1-4.2,2.1c-0.9,0-1.8-0.2-2.5-0.7c-0.7-0.5-1.3-1.1-1.7-2v2.3h-4.1v-21.7h4.1V394.4z
		 M117.9,400c0-1.5-0.3-2.7-0.8-3.5s-1.2-1.3-2.1-1.3s-1.6,0.4-2.1,1.3c-0.5,0.9-0.8,2-0.8,3.5c0,1.5,0.3,2.7,0.8,3.5
		c0.5,0.9,1.2,1.3,2.1,1.3s1.6-0.4,2.1-1.3C117.6,402.7,117.9,401.5,117.9,400z"/>
	<path id="XMLID_182_" d="M139.3,396.4c-0.4-0.4-1-0.7-1.6-0.9c-0.6-0.2-1.3-0.3-2-0.3c-0.9,0-1.6,0.2-2.3,0.5
		c-0.6,0.3-1.1,0.7-1.5,1.3c-0.2,0.4-0.4,0.8-0.5,1.3c-0.1,0.5-0.1,1.3-0.1,2.3v7.2h-4.1v-15.6h4.1v2.4c0.4-0.9,1-1.6,1.8-2.1
		c0.8-0.5,1.8-0.7,2.9-0.7c0.6,0,1.1,0.1,1.6,0.2c0.5,0.1,1,0.3,1.5,0.6V396.4z"/>
	<path id="XMLID_184_" d="M143.5,392.1h8.1v12.5h5.1v3.1h-14.2v-3.1h5.1v-9.3h-4V392.1z M147.5,384.5h4.1v4.8h-4.1V384.5z"/>
	<path id="XMLID_187_" d="M168.6,394.4v-8.3h4.1v21.7h-4.1v-2.3c-0.4,0.9-1,1.6-1.7,2c-0.7,0.5-1.5,0.7-2.4,0.7
		c-1.8,0-3.2-0.7-4.2-2.1c-1-1.4-1.5-3.4-1.5-6.1c0-2.6,0.5-4.7,1.5-6.1c1-1.4,2.4-2.1,4.3-2.1c0.8,0,1.6,0.2,2.3,0.6
		S168.1,393.5,168.6,394.4z M163,400c0,1.5,0.3,2.7,0.8,3.5c0.5,0.9,1.2,1.3,2.1,1.3c0.9,0,1.6-0.4,2.1-1.3c0.5-0.9,0.8-2,0.8-3.5
		c0-1.5-0.3-2.7-0.8-3.5s-1.2-1.3-2.1-1.3c-0.9,0-1.6,0.4-2.1,1.3C163.2,397.3,163,398.5,163,400z"/>
	<path id="XMLID_190_" d="M190.1,406.6c0,2.5-0.6,4.3-1.7,5.4c-1.1,1.1-3,1.7-5.5,1.7c-0.9,0-1.7-0.1-2.5-0.2s-1.7-0.3-2.6-0.6v-3.8
		c0.8,0.4,1.6,0.7,2.4,0.9c0.8,0.2,1.6,0.3,2.5,0.3c1.2,0,2-0.3,2.6-0.8c0.5-0.5,0.8-1.4,0.8-2.5v-1.7c-0.4,0.7-0.9,1.3-1.6,1.7
		s-1.5,0.5-2.4,0.5c-1.8,0-3.2-0.7-4.3-2.1s-1.6-3.3-1.6-5.7c0-2.5,0.5-4.4,1.6-5.9c1.1-1.4,2.5-2.2,4.2-2.2c0.9,0,1.7,0.2,2.4,0.6
		c0.7,0.4,1.2,1,1.6,1.8v-2h4.1V406.6z M186,399.7c0-1.4-0.3-2.5-0.8-3.4c-0.5-0.8-1.2-1.3-2.1-1.3c-0.9,0-1.5,0.4-2.1,1.3
		s-0.8,2-0.8,3.4c0,1.4,0.3,2.5,0.8,3.4s1.2,1.3,2.1,1.3c0.9,0,1.6-0.4,2.1-1.3S186,401.1,186,399.7z"/>
	<path id="XMLID_193_" d="M207.4,407c-0.9,0.4-1.9,0.7-2.9,0.9c-1,0.2-2,0.3-3.1,0.3c-2.6,0-4.6-0.7-6-2.1c-1.4-1.4-2.1-3.4-2.1-6
		c0-2.5,0.7-4.6,2-6c1.3-1.5,3.1-2.2,5.4-2.2c2.3,0,4.1,0.7,5.4,2.1c1.3,1.4,1.9,3.3,1.9,5.8v1.7h-10.6c0,1.2,0.4,2.1,1.1,2.7
		c0.7,0.6,1.8,0.9,3.2,0.9c0.9,0,1.9-0.1,2.8-0.4c0.9-0.3,1.9-0.7,2.9-1.3V407z M203.9,398.2c0-1.1-0.3-1.9-0.8-2.4
		c-0.5-0.6-1.3-0.8-2.4-0.8c-0.9,0-1.7,0.3-2.2,0.9c-0.6,0.6-0.9,1.4-1,2.4L203.9,398.2z"/>
</g>
<g id="XMLID_164_">
</g>
<g id="XMLID_376_">
</g>
<g id="XMLID_377_">
</g>
<g id="XMLID_378_">
</g>
<g id="XMLID_379_">
</g>
<g id="XMLID_380_">
</g>
<g id="XMLID_381_">
</g>
<g id="XMLID_382_">
</g>
<g id="XMLID_383_">
</g>
<g id="XMLID_384_">
</g>
<g id="XMLID_385_">
</g>
<g id="XMLID_386_">
</g>
<g id="XMLID_387_">
</g>
<g id="XMLID_388_">
</g>
<g id="XMLID_389_">
</g>
</svg>
